<mxfile host="app.diagrams.net" agent="Mozilla/5.0 (Macintosh; Intel Mac OS X 10_15_7) AppleWebKit/605.1.15 (KHTML, like Gecko) Version/17.5 Safari/605.1.15" version="24.7.16">
  <diagram name="Page-1" id="faFGbYDfc-yJfE558ecA">
    <mxGraphModel dx="1781" dy="551" grid="1" gridSize="10" guides="1" tooltips="1" connect="1" arrows="1" fold="1" page="1" pageScale="1" pageWidth="827" pageHeight="1169" math="0" shadow="0">
      <root>
        <mxCell id="0" />
        <mxCell id="1" parent="0" />
        <mxCell id="H6BzAk40-mozzjdeYq3K-52" style="edgeStyle=orthogonalEdgeStyle;rounded=0;orthogonalLoop=1;jettySize=auto;html=1;targetPerimeterSpacing=0;" parent="1" source="8IqVLHPNGlRaz7gmKTyD-1" target="H6BzAk40-mozzjdeYq3K-1" edge="1">
          <mxGeometry relative="1" as="geometry" />
        </mxCell>
        <mxCell id="8IqVLHPNGlRaz7gmKTyD-1" value="Real Raw&lt;div&gt;Data&lt;/div&gt;" style="shape=cylinder3;whiteSpace=wrap;html=1;boundedLbl=1;backgroundOutline=1;size=15;" parent="1" vertex="1">
          <mxGeometry x="-120" y="540" width="80" height="80" as="geometry" />
        </mxCell>
        <mxCell id="H6BzAk40-mozzjdeYq3K-53" style="edgeStyle=orthogonalEdgeStyle;rounded=0;orthogonalLoop=1;jettySize=auto;html=1;targetPerimeterSpacing=0;" parent="1" source="H6BzAk40-mozzjdeYq3K-1" target="H6BzAk40-mozzjdeYq3K-2" edge="1">
          <mxGeometry relative="1" as="geometry" />
        </mxCell>
        <mxCell id="H6BzAk40-mozzjdeYq3K-1" value="NOME&lt;div&gt;(annotation tool)&lt;/div&gt;" style="whiteSpace=wrap;html=1;" parent="1" vertex="1">
          <mxGeometry x="40" y="550" width="120" height="60" as="geometry" />
        </mxCell>
        <mxCell id="H6BzAk40-mozzjdeYq3K-55" style="edgeStyle=orthogonalEdgeStyle;rounded=0;orthogonalLoop=1;jettySize=auto;html=1;dashed=1;endArrow=open;endFill=0;" parent="1" source="H6BzAk40-mozzjdeYq3K-2" target="H6BzAk40-mozzjdeYq3K-41" edge="1">
          <mxGeometry relative="1" as="geometry">
            <mxPoint x="90" y="670" as="targetPoint" />
            <Array as="points">
              <mxPoint x="280" y="640" />
              <mxPoint x="100" y="640" />
            </Array>
          </mxGeometry>
        </mxCell>
        <mxCell id="H6BzAk40-mozzjdeYq3K-2" value="Real Data Annotated" style="shape=cylinder3;whiteSpace=wrap;html=1;boundedLbl=1;backgroundOutline=1;size=15;fillColor=#dae8fc;strokeColor=#6c8ebf;" parent="1" vertex="1">
          <mxGeometry x="240" y="540" width="80" height="80" as="geometry" />
        </mxCell>
        <mxCell id="H6BzAk40-mozzjdeYq3K-7" value="" style="shape=table;startSize=0;container=1;collapsible=0;childLayout=tableLayout;fontSize=16;" parent="1" vertex="1">
          <mxGeometry x="-80" y="680" width="360" height="240" as="geometry" />
        </mxCell>
        <mxCell id="H6BzAk40-mozzjdeYq3K-8" value="" style="shape=tableRow;horizontal=0;startSize=0;swimlaneHead=0;swimlaneBody=0;strokeColor=inherit;top=0;left=0;bottom=0;right=0;collapsible=0;dropTarget=0;fillColor=none;points=[[0,0.5],[1,0.5]];portConstraint=eastwest;fontSize=16;" parent="H6BzAk40-mozzjdeYq3K-7" vertex="1">
          <mxGeometry width="360" height="120" as="geometry" />
        </mxCell>
        <mxCell id="H6BzAk40-mozzjdeYq3K-9" value="text" style="shape=partialRectangle;html=1;whiteSpace=wrap;connectable=0;strokeColor=inherit;overflow=hidden;fillColor=none;top=0;left=0;bottom=0;right=0;pointerEvents=1;fontSize=16;" parent="H6BzAk40-mozzjdeYq3K-8" vertex="1">
          <mxGeometry width="93" height="120" as="geometry">
            <mxRectangle width="93" height="120" as="alternateBounds" />
          </mxGeometry>
        </mxCell>
        <mxCell id="H6BzAk40-mozzjdeYq3K-10" value="Sei pronto/a a #MakeAnImpactThatMatters all’interno di Officine Innovazione? Officine Innovazione è la società del network italiano Deloitte che..." style="shape=partialRectangle;html=1;whiteSpace=wrap;connectable=0;strokeColor=inherit;overflow=hidden;fillColor=none;top=0;left=0;bottom=0;right=0;pointerEvents=1;fontSize=16;" parent="H6BzAk40-mozzjdeYq3K-8" vertex="1">
          <mxGeometry x="93" width="267" height="120" as="geometry">
            <mxRectangle width="267" height="120" as="alternateBounds" />
          </mxGeometry>
        </mxCell>
        <mxCell id="H6BzAk40-mozzjdeYq3K-12" value="" style="shape=tableRow;horizontal=0;startSize=0;swimlaneHead=0;swimlaneBody=0;strokeColor=inherit;top=0;left=0;bottom=0;right=0;collapsible=0;dropTarget=0;fillColor=none;points=[[0,0.5],[1,0.5]];portConstraint=eastwest;fontSize=16;" parent="H6BzAk40-mozzjdeYq3K-7" vertex="1">
          <mxGeometry y="120" width="360" height="40" as="geometry" />
        </mxCell>
        <mxCell id="H6BzAk40-mozzjdeYq3K-13" value="label" style="shape=partialRectangle;html=1;whiteSpace=wrap;connectable=0;strokeColor=inherit;overflow=hidden;fillColor=none;top=0;left=0;bottom=0;right=0;pointerEvents=1;fontSize=16;" parent="H6BzAk40-mozzjdeYq3K-12" vertex="1">
          <mxGeometry width="93" height="40" as="geometry">
            <mxRectangle width="93" height="40" as="alternateBounds" />
          </mxGeometry>
        </mxCell>
        <mxCell id="H6BzAk40-mozzjdeYq3K-14" value="INCLUSIVO" style="shape=partialRectangle;html=1;whiteSpace=wrap;connectable=0;strokeColor=inherit;overflow=hidden;fillColor=none;top=0;left=0;bottom=0;right=0;pointerEvents=1;fontSize=16;" parent="H6BzAk40-mozzjdeYq3K-12" vertex="1">
          <mxGeometry x="93" width="267" height="40" as="geometry">
            <mxRectangle width="267" height="40" as="alternateBounds" />
          </mxGeometry>
        </mxCell>
        <mxCell id="H6BzAk40-mozzjdeYq3K-16" value="" style="shape=tableRow;horizontal=0;startSize=0;swimlaneHead=0;swimlaneBody=0;strokeColor=inherit;top=0;left=0;bottom=0;right=0;collapsible=0;dropTarget=0;fillColor=none;points=[[0,0.5],[1,0.5]];portConstraint=eastwest;fontSize=16;" parent="H6BzAk40-mozzjdeYq3K-7" vertex="1">
          <mxGeometry y="160" width="360" height="80" as="geometry" />
        </mxCell>
        <mxCell id="H6BzAk40-mozzjdeYq3K-17" value="context" style="shape=partialRectangle;html=1;whiteSpace=wrap;connectable=0;strokeColor=inherit;overflow=hidden;fillColor=none;top=0;left=0;bottom=0;right=0;pointerEvents=1;fontSize=16;" parent="H6BzAk40-mozzjdeYq3K-16" vertex="1">
          <mxGeometry width="93" height="80" as="geometry">
            <mxRectangle width="93" height="80" as="alternateBounds" />
          </mxGeometry>
        </mxCell>
        <mxCell id="H6BzAk40-mozzjdeYq3K-18" value="This job description is inclusive because it is using [&#39;pronto/a&#39;] in the text which covers both masculine and feminine genders." style="shape=partialRectangle;html=1;whiteSpace=wrap;connectable=0;strokeColor=inherit;overflow=hidden;fillColor=none;top=0;left=0;bottom=0;right=0;pointerEvents=1;fontSize=16;" parent="H6BzAk40-mozzjdeYq3K-16" vertex="1">
          <mxGeometry x="93" width="267" height="80" as="geometry">
            <mxRectangle width="267" height="80" as="alternateBounds" />
          </mxGeometry>
        </mxCell>
        <mxCell id="H6BzAk40-mozzjdeYq3K-20" value="" style="shape=table;startSize=0;container=1;collapsible=0;childLayout=tableLayout;fontSize=16;" parent="1" vertex="1">
          <mxGeometry x="-70" y="690" width="360" height="240" as="geometry" />
        </mxCell>
        <mxCell id="H6BzAk40-mozzjdeYq3K-21" value="" style="shape=tableRow;horizontal=0;startSize=0;swimlaneHead=0;swimlaneBody=0;strokeColor=inherit;top=0;left=0;bottom=0;right=0;collapsible=0;dropTarget=0;fillColor=none;points=[[0,0.5],[1,0.5]];portConstraint=eastwest;fontSize=16;" parent="H6BzAk40-mozzjdeYq3K-20" vertex="1">
          <mxGeometry width="360" height="120" as="geometry" />
        </mxCell>
        <mxCell id="H6BzAk40-mozzjdeYq3K-22" value="text" style="shape=partialRectangle;html=1;whiteSpace=wrap;connectable=0;strokeColor=inherit;overflow=hidden;fillColor=none;top=0;left=0;bottom=0;right=0;pointerEvents=1;fontSize=16;" parent="H6BzAk40-mozzjdeYq3K-21" vertex="1">
          <mxGeometry width="93" height="120" as="geometry">
            <mxRectangle width="93" height="120" as="alternateBounds" />
          </mxGeometry>
        </mxCell>
        <mxCell id="H6BzAk40-mozzjdeYq3K-23" value="Sei pronto/a a #MakeAnImpactThatMatters all’interno di Officine Innovazione? Officine Innovazione è la società del network italiano Deloitte che..." style="shape=partialRectangle;html=1;whiteSpace=wrap;connectable=0;strokeColor=inherit;overflow=hidden;fillColor=none;top=0;left=0;bottom=0;right=0;pointerEvents=1;fontSize=16;" parent="H6BzAk40-mozzjdeYq3K-21" vertex="1">
          <mxGeometry x="93" width="267" height="120" as="geometry">
            <mxRectangle width="267" height="120" as="alternateBounds" />
          </mxGeometry>
        </mxCell>
        <mxCell id="H6BzAk40-mozzjdeYq3K-24" value="" style="shape=tableRow;horizontal=0;startSize=0;swimlaneHead=0;swimlaneBody=0;strokeColor=inherit;top=0;left=0;bottom=0;right=0;collapsible=0;dropTarget=0;fillColor=none;points=[[0,0.5],[1,0.5]];portConstraint=eastwest;fontSize=16;" parent="H6BzAk40-mozzjdeYq3K-20" vertex="1">
          <mxGeometry y="120" width="360" height="40" as="geometry" />
        </mxCell>
        <mxCell id="H6BzAk40-mozzjdeYq3K-25" value="label" style="shape=partialRectangle;html=1;whiteSpace=wrap;connectable=0;strokeColor=inherit;overflow=hidden;fillColor=none;top=0;left=0;bottom=0;right=0;pointerEvents=1;fontSize=16;" parent="H6BzAk40-mozzjdeYq3K-24" vertex="1">
          <mxGeometry width="93" height="40" as="geometry">
            <mxRectangle width="93" height="40" as="alternateBounds" />
          </mxGeometry>
        </mxCell>
        <mxCell id="H6BzAk40-mozzjdeYq3K-26" value="INCLUSIVO" style="shape=partialRectangle;html=1;whiteSpace=wrap;connectable=0;strokeColor=inherit;overflow=hidden;fillColor=none;top=0;left=0;bottom=0;right=0;pointerEvents=1;fontSize=16;" parent="H6BzAk40-mozzjdeYq3K-24" vertex="1">
          <mxGeometry x="93" width="267" height="40" as="geometry">
            <mxRectangle width="267" height="40" as="alternateBounds" />
          </mxGeometry>
        </mxCell>
        <mxCell id="H6BzAk40-mozzjdeYq3K-27" value="" style="shape=tableRow;horizontal=0;startSize=0;swimlaneHead=0;swimlaneBody=0;strokeColor=inherit;top=0;left=0;bottom=0;right=0;collapsible=0;dropTarget=0;fillColor=none;points=[[0,0.5],[1,0.5]];portConstraint=eastwest;fontSize=16;" parent="H6BzAk40-mozzjdeYq3K-20" vertex="1">
          <mxGeometry y="160" width="360" height="80" as="geometry" />
        </mxCell>
        <mxCell id="H6BzAk40-mozzjdeYq3K-28" value="context" style="shape=partialRectangle;html=1;whiteSpace=wrap;connectable=0;strokeColor=inherit;overflow=hidden;fillColor=none;top=0;left=0;bottom=0;right=0;pointerEvents=1;fontSize=16;" parent="H6BzAk40-mozzjdeYq3K-27" vertex="1">
          <mxGeometry width="93" height="80" as="geometry">
            <mxRectangle width="93" height="80" as="alternateBounds" />
          </mxGeometry>
        </mxCell>
        <mxCell id="H6BzAk40-mozzjdeYq3K-29" value="This job description is inclusive because it is using [&#39;pronto/a&#39;] in the text which covers both masculine and feminine genders." style="shape=partialRectangle;html=1;whiteSpace=wrap;connectable=0;strokeColor=inherit;overflow=hidden;fillColor=none;top=0;left=0;bottom=0;right=0;pointerEvents=1;fontSize=16;" parent="H6BzAk40-mozzjdeYq3K-27" vertex="1">
          <mxGeometry x="93" width="267" height="80" as="geometry">
            <mxRectangle width="267" height="80" as="alternateBounds" />
          </mxGeometry>
        </mxCell>
        <mxCell id="H6BzAk40-mozzjdeYq3K-30" value="" style="shape=table;startSize=0;container=1;collapsible=0;childLayout=tableLayout;fontSize=16;" parent="1" vertex="1">
          <mxGeometry x="-60" y="700" width="360" height="240" as="geometry" />
        </mxCell>
        <mxCell id="H6BzAk40-mozzjdeYq3K-31" value="" style="shape=tableRow;horizontal=0;startSize=0;swimlaneHead=0;swimlaneBody=0;strokeColor=inherit;top=0;left=0;bottom=0;right=0;collapsible=0;dropTarget=0;fillColor=none;points=[[0,0.5],[1,0.5]];portConstraint=eastwest;fontSize=16;" parent="H6BzAk40-mozzjdeYq3K-30" vertex="1">
          <mxGeometry width="360" height="120" as="geometry" />
        </mxCell>
        <mxCell id="H6BzAk40-mozzjdeYq3K-32" value="text" style="shape=partialRectangle;html=1;whiteSpace=wrap;connectable=0;strokeColor=inherit;overflow=hidden;fillColor=none;top=0;left=0;bottom=0;right=0;pointerEvents=1;fontSize=16;" parent="H6BzAk40-mozzjdeYq3K-31" vertex="1">
          <mxGeometry width="93" height="120" as="geometry">
            <mxRectangle width="93" height="120" as="alternateBounds" />
          </mxGeometry>
        </mxCell>
        <mxCell id="H6BzAk40-mozzjdeYq3K-33" value="Sei pronto/a a #MakeAnImpactThatMatters all’interno di Officine Innovazione? Officine Innovazione è la società del network italiano Deloitte che..." style="shape=partialRectangle;html=1;whiteSpace=wrap;connectable=0;strokeColor=inherit;overflow=hidden;fillColor=none;top=0;left=0;bottom=0;right=0;pointerEvents=1;fontSize=16;" parent="H6BzAk40-mozzjdeYq3K-31" vertex="1">
          <mxGeometry x="93" width="267" height="120" as="geometry">
            <mxRectangle width="267" height="120" as="alternateBounds" />
          </mxGeometry>
        </mxCell>
        <mxCell id="H6BzAk40-mozzjdeYq3K-34" value="" style="shape=tableRow;horizontal=0;startSize=0;swimlaneHead=0;swimlaneBody=0;strokeColor=inherit;top=0;left=0;bottom=0;right=0;collapsible=0;dropTarget=0;fillColor=none;points=[[0,0.5],[1,0.5]];portConstraint=eastwest;fontSize=16;" parent="H6BzAk40-mozzjdeYq3K-30" vertex="1">
          <mxGeometry y="120" width="360" height="40" as="geometry" />
        </mxCell>
        <mxCell id="H6BzAk40-mozzjdeYq3K-35" value="label" style="shape=partialRectangle;html=1;whiteSpace=wrap;connectable=0;strokeColor=inherit;overflow=hidden;fillColor=none;top=0;left=0;bottom=0;right=0;pointerEvents=1;fontSize=16;" parent="H6BzAk40-mozzjdeYq3K-34" vertex="1">
          <mxGeometry width="93" height="40" as="geometry">
            <mxRectangle width="93" height="40" as="alternateBounds" />
          </mxGeometry>
        </mxCell>
        <mxCell id="H6BzAk40-mozzjdeYq3K-36" value="INCLUSIVO" style="shape=partialRectangle;html=1;whiteSpace=wrap;connectable=0;strokeColor=inherit;overflow=hidden;fillColor=none;top=0;left=0;bottom=0;right=0;pointerEvents=1;fontSize=16;" parent="H6BzAk40-mozzjdeYq3K-34" vertex="1">
          <mxGeometry x="93" width="267" height="40" as="geometry">
            <mxRectangle width="267" height="40" as="alternateBounds" />
          </mxGeometry>
        </mxCell>
        <mxCell id="H6BzAk40-mozzjdeYq3K-37" value="" style="shape=tableRow;horizontal=0;startSize=0;swimlaneHead=0;swimlaneBody=0;strokeColor=inherit;top=0;left=0;bottom=0;right=0;collapsible=0;dropTarget=0;fillColor=none;points=[[0,0.5],[1,0.5]];portConstraint=eastwest;fontSize=16;" parent="H6BzAk40-mozzjdeYq3K-30" vertex="1">
          <mxGeometry y="160" width="360" height="80" as="geometry" />
        </mxCell>
        <mxCell id="H6BzAk40-mozzjdeYq3K-38" value="context" style="shape=partialRectangle;html=1;whiteSpace=wrap;connectable=0;strokeColor=inherit;overflow=hidden;fillColor=none;top=0;left=0;bottom=0;right=0;pointerEvents=1;fontSize=16;" parent="H6BzAk40-mozzjdeYq3K-37" vertex="1">
          <mxGeometry width="93" height="80" as="geometry">
            <mxRectangle width="93" height="80" as="alternateBounds" />
          </mxGeometry>
        </mxCell>
        <mxCell id="H6BzAk40-mozzjdeYq3K-39" value="This job description is inclusive because it is using [&#39;pronto/a&#39;] in the text which covers both masculine and feminine genders." style="shape=partialRectangle;html=1;whiteSpace=wrap;connectable=0;strokeColor=inherit;overflow=hidden;fillColor=none;top=0;left=0;bottom=0;right=0;pointerEvents=1;fontSize=16;" parent="H6BzAk40-mozzjdeYq3K-37" vertex="1">
          <mxGeometry x="93" width="267" height="80" as="geometry">
            <mxRectangle width="267" height="80" as="alternateBounds" />
          </mxGeometry>
        </mxCell>
        <mxCell id="H6BzAk40-mozzjdeYq3K-40" value="" style="shape=table;startSize=0;container=1;collapsible=0;childLayout=tableLayout;fontSize=16;" parent="1" vertex="1">
          <mxGeometry x="-50" y="710" width="360" height="240" as="geometry" />
        </mxCell>
        <mxCell id="H6BzAk40-mozzjdeYq3K-41" value="" style="shape=tableRow;horizontal=0;startSize=0;swimlaneHead=0;swimlaneBody=0;strokeColor=inherit;top=0;left=0;bottom=0;right=0;collapsible=0;dropTarget=0;fillColor=none;points=[[0,0.5],[1,0.5]];portConstraint=eastwest;fontSize=16;" parent="H6BzAk40-mozzjdeYq3K-40" vertex="1">
          <mxGeometry width="360" height="120" as="geometry" />
        </mxCell>
        <mxCell id="H6BzAk40-mozzjdeYq3K-42" value="text" style="shape=partialRectangle;html=1;whiteSpace=wrap;connectable=0;strokeColor=inherit;overflow=hidden;fillColor=none;top=0;left=0;bottom=0;right=0;pointerEvents=1;fontSize=16;" parent="H6BzAk40-mozzjdeYq3K-41" vertex="1">
          <mxGeometry width="93" height="120" as="geometry">
            <mxRectangle width="93" height="120" as="alternateBounds" />
          </mxGeometry>
        </mxCell>
        <mxCell id="H6BzAk40-mozzjdeYq3K-43" value="Sei pronto/a a #MakeAnImpactThatMatters all’interno di Officine Innovazione? Officine Innovazione è la società del network italiano Deloitte che..." style="shape=partialRectangle;html=1;whiteSpace=wrap;connectable=0;strokeColor=inherit;overflow=hidden;fillColor=none;top=0;left=0;bottom=0;right=0;pointerEvents=1;fontSize=16;" parent="H6BzAk40-mozzjdeYq3K-41" vertex="1">
          <mxGeometry x="93" width="267" height="120" as="geometry">
            <mxRectangle width="267" height="120" as="alternateBounds" />
          </mxGeometry>
        </mxCell>
        <mxCell id="H6BzAk40-mozzjdeYq3K-44" value="" style="shape=tableRow;horizontal=0;startSize=0;swimlaneHead=0;swimlaneBody=0;strokeColor=inherit;top=0;left=0;bottom=0;right=0;collapsible=0;dropTarget=0;fillColor=none;points=[[0,0.5],[1,0.5]];portConstraint=eastwest;fontSize=16;" parent="H6BzAk40-mozzjdeYq3K-40" vertex="1">
          <mxGeometry y="120" width="360" height="40" as="geometry" />
        </mxCell>
        <mxCell id="H6BzAk40-mozzjdeYq3K-45" value="label" style="shape=partialRectangle;html=1;whiteSpace=wrap;connectable=0;strokeColor=inherit;overflow=hidden;fillColor=none;top=0;left=0;bottom=0;right=0;pointerEvents=1;fontSize=16;" parent="H6BzAk40-mozzjdeYq3K-44" vertex="1">
          <mxGeometry width="93" height="40" as="geometry">
            <mxRectangle width="93" height="40" as="alternateBounds" />
          </mxGeometry>
        </mxCell>
        <mxCell id="H6BzAk40-mozzjdeYq3K-46" value="INCLUSIVO" style="shape=partialRectangle;html=1;whiteSpace=wrap;connectable=0;strokeColor=inherit;overflow=hidden;fillColor=none;top=0;left=0;bottom=0;right=0;pointerEvents=1;fontSize=16;" parent="H6BzAk40-mozzjdeYq3K-44" vertex="1">
          <mxGeometry x="93" width="267" height="40" as="geometry">
            <mxRectangle width="267" height="40" as="alternateBounds" />
          </mxGeometry>
        </mxCell>
        <mxCell id="H6BzAk40-mozzjdeYq3K-47" value="" style="shape=tableRow;horizontal=0;startSize=0;swimlaneHead=0;swimlaneBody=0;strokeColor=inherit;top=0;left=0;bottom=0;right=0;collapsible=0;dropTarget=0;fillColor=none;points=[[0,0.5],[1,0.5]];portConstraint=eastwest;fontSize=16;" parent="H6BzAk40-mozzjdeYq3K-40" vertex="1">
          <mxGeometry y="160" width="360" height="80" as="geometry" />
        </mxCell>
        <mxCell id="H6BzAk40-mozzjdeYq3K-48" value="context" style="shape=partialRectangle;html=1;whiteSpace=wrap;connectable=0;strokeColor=inherit;overflow=hidden;fillColor=none;top=0;left=0;bottom=0;right=0;pointerEvents=1;fontSize=16;" parent="H6BzAk40-mozzjdeYq3K-47" vertex="1">
          <mxGeometry width="93" height="80" as="geometry">
            <mxRectangle width="93" height="80" as="alternateBounds" />
          </mxGeometry>
        </mxCell>
        <mxCell id="H6BzAk40-mozzjdeYq3K-49" value="This job description is inclusive because it is using [&#39;pronto/a&#39;] in the text which covers both masculine and feminine genders." style="shape=partialRectangle;html=1;whiteSpace=wrap;connectable=0;strokeColor=inherit;overflow=hidden;fillColor=none;top=0;left=0;bottom=0;right=0;pointerEvents=1;fontSize=16;" parent="H6BzAk40-mozzjdeYq3K-47" vertex="1">
          <mxGeometry x="93" width="267" height="80" as="geometry">
            <mxRectangle width="267" height="80" as="alternateBounds" />
          </mxGeometry>
        </mxCell>
        <mxCell id="Dh4Kh4LchYcDdsTdWtMs-1" style="edgeStyle=orthogonalEdgeStyle;rounded=0;orthogonalLoop=1;jettySize=auto;html=1;targetPerimeterSpacing=0;" edge="1" parent="1" source="Dh4Kh4LchYcDdsTdWtMs-2" target="Dh4Kh4LchYcDdsTdWtMs-4">
          <mxGeometry relative="1" as="geometry" />
        </mxCell>
        <mxCell id="Dh4Kh4LchYcDdsTdWtMs-2" value="Real Raw&lt;div&gt;Data&lt;/div&gt;" style="shape=cylinder3;whiteSpace=wrap;html=1;boundedLbl=1;backgroundOutline=1;size=15;" vertex="1" parent="1">
          <mxGeometry x="400" y="540" width="80" height="80" as="geometry" />
        </mxCell>
        <mxCell id="Dh4Kh4LchYcDdsTdWtMs-3" style="edgeStyle=orthogonalEdgeStyle;rounded=0;orthogonalLoop=1;jettySize=auto;html=1;targetPerimeterSpacing=0;" edge="1" parent="1" source="Dh4Kh4LchYcDdsTdWtMs-4" target="Dh4Kh4LchYcDdsTdWtMs-5">
          <mxGeometry relative="1" as="geometry" />
        </mxCell>
        <mxCell id="Dh4Kh4LchYcDdsTdWtMs-7" style="edgeStyle=orthogonalEdgeStyle;rounded=0;orthogonalLoop=1;jettySize=auto;html=1;dashed=1;endArrow=none;endFill=0;" edge="1" parent="1" source="Dh4Kh4LchYcDdsTdWtMs-4" target="Dh4Kh4LchYcDdsTdWtMs-6">
          <mxGeometry relative="1" as="geometry" />
        </mxCell>
        <mxCell id="Dh4Kh4LchYcDdsTdWtMs-4" value="NOME&lt;div&gt;(annotation tool)&lt;/div&gt;" style="whiteSpace=wrap;html=1;" vertex="1" parent="1">
          <mxGeometry x="560" y="550" width="120" height="60" as="geometry" />
        </mxCell>
        <mxCell id="Dh4Kh4LchYcDdsTdWtMs-5" value="Real Data Annotated" style="shape=cylinder3;whiteSpace=wrap;html=1;boundedLbl=1;backgroundOutline=1;size=15;fillColor=#dae8fc;strokeColor=#6c8ebf;" vertex="1" parent="1">
          <mxGeometry x="760" y="540" width="80" height="80" as="geometry" />
        </mxCell>
        <mxCell id="Dh4Kh4LchYcDdsTdWtMs-6" value="" style="shape=image;verticalLabelPosition=bottom;labelBackgroundColor=default;verticalAlign=top;aspect=fixed;imageAspect=0;image=data:image/jpeg,/9j/4AAQSkZJRgABAgEASABIAAD/4QDKRXhpZgAATU0AKgAAAAgABgESAAMAAAABAAEAAAEaAAUAAAABAAAAVgEbAAUAAAABAAAAXgEoAAMAAAABAAIAAAITAAMAAAABAAEAAIdpAAQAAAABAAAAZgAAAAAAAABgAAAAAQAAAGAAAAABAAeQAAAHAAAABDAyMjGRAQAHAAAABAECAwCgAAAHAAAABDAxMDCgAQADAAAAAQABAACgAgAEAAAAAQAAAh6gAwAEAAAAAQAAARWkBgADAAAAAQAAAAAAAAAAAAD/wAARCAEVAh4DASIAAhEBAxEB/8QAHwAAAQUBAQEBAQEAAAAAAAAAAAECAwQFBgcICQoL/8QAtRAAAgEDAwIEAwUFBAQAAAF9AQIDAAQRBRIhMUEGE1FhByJxFDKBkaEII0KxwRVS0fAkM2JyggkKFhcYGRolJicoKSo0NTY3ODk6Q0RFRkdISUpTVFVWV1hZWmNkZWZnaGlqc3R1dnd4eXqDhIWGh4iJipKTlJWWl5iZmqKjpKWmp6ipqrKztLW2t7i5usLDxMXGx8jJytLT1NXW19jZ2uHi4+Tl5ufo6erx8vP09fb3+Pn6/8QAHwEAAwEBAQEBAQEBAQAAAAAAAAECAwQFBgcICQoL/8QAtREAAgECBAQDBAcFBAQAAQJ3AAECAxEEBSExBhJBUQdhcRMiMoEIFEKRobHBCSMzUvAVYnLRChYkNOEl8RcYGRomJygpKjU2Nzg5OkNERUZHSElKU1RVVldYWVpjZGVmZ2hpanN0dXZ3eHl6goOEhYaHiImKkpOUlZaXmJmaoqOkpaanqKmqsrO0tba3uLm6wsPExcbHyMnK0tPU1dbX2Nna4uPk5ebn6Onq8vP09fb3+Pn6/9sAQwABAQEBAQECAQECAwICAgMEAwMDAwQFBAQEBAQFBgUFBQUFBQYGBgYGBgYGBwcHBwcHCAgICAgJCQkJCQkJCQkJ/9sAQwEBAQECAgIEAgIECQYFBgkJCQkJCQkJCQkJCQkJCQkJCQkJCQkJCQkJCQkJCQkJCQkJCQkJCQkJCQkJCQkJCQkJ/90ABAAi/9oADAMBAAIRAxEAPwD++LW9UttE0yfVrwkRW0TzPt67UUsf0H54r5v+A37XfwO/aQ+EXgX4z/D/AFhYNM+I1gmpaDb6iUtby5gcZGLZ235HQhQTz34w/wDbM8XfHLwT+zt4g1z9m/wSPiH4y8pILDQzfW+mrP8AaHWGWRrq6eOKNYYnaVvm3FUIQFsA/wAqXiH/AII7/tk+DrH4c/Cy0+Htl401eHwd4A0PRvHy39nC3w+v/Dt+LzV5oUmlS6H2nJYNYxSmUDY2FJIAP6m/2YP2wvhH+1RpWs3Pw9uxFd6Hrms6Hc2M7p9rWXRNQm06eQxgkiNpICyE9VKnPJr5N0L/AILOfsZa1+17dfsYXM2u6V4ktfEU/hJdRv8ATHh0W41uBPMOnwagWMb3DxkOiEAsCD7V+S/7EX/BOj9pv4a/8FANL+JeufBmz8Cf2T8QfiD4p1r4jw32nyXPiHQ9evLr+zdKkjtbiS6bmSKcxTRCGMKuNsm9avax+xZ/wUU+Jnxz+I/7Lt/8OLbw38LPGPx5T4qN8Q7jVbCV0sLFtPmhhtNPhnkuvtE0tgEDTRRqFc7iMAUAf0+/8LR+HarqznXbEjQFLakRcRn7IoTcTPg4TGOc/T2pZfin8OoodIuG16wCa84TTibiIC7Y4wICW/eEkgYXPWv4tfhV/wAEaP20dM8OfGvTfiV4FvdQvdQ8O6npk0lrcaJZ/wDCYXV14hh1OCeO4gvfPuZIIoPMT+2PJBZ2tz+6dq7nRP8Agmp+2aNH8B33xY/Zx0H4gyXPh46BounSX+l6LF4Fvo/EE98NVdLK4ZLaW5tHWWc6S8zLJDsTIYigD+q342/tHxfDR/Dll4J0aXxrd6v4l0/w/e2+m3EPmaZFevIj39yDnEMDRlXU4yeAQQc7Xj/9qD4B/DD4b+J/it4r8V6fFovhDTv7V1WaOZJPs1sY/MQsqkH94o/dqeWyMdRX4HeGP+CXfxf8P+I9S+L2n+A7ZPGviH9pmz8aajqX2y18+XwZYXUkttL5puC3kReY7i23+dubdsLYz+Pv/BOr/gmj8TP2wP2LNNvvBPwa0nwToeq/CfxZo83im4udPlTxtq+q3ok0WeWO3laYNp8kIcSXaJ5UmFjOzkAH9nfg79rLQ/GXxO1vw9Hpr2ngvS/DOl+JLXxjNcRjS7xdRkuFNujcbZIBCrPkkESKOoIr3i7+Lfwu0yys9UvvEWnQ2upKklpLJcxrHMsrbUaN921lZuBjOP0H8n3jn/gm9+1v420GDxNpPwHsdE8Paf4U+GVvqXw1iv8ASltNY/4RfW9WvNX0JdlybXa6Tw3StM6wy7tjPksK4JP+CL/x++Jnw31Ffif8IbC2s4/hj8Sz4L8MSXunzx+EvEeu6tHeeHNOtWE4jjuLWLzXjnhzb27OyrL92gD+0aJy+cgjB7ipa8q+B2l+KtE+DvhXSPHaldcttG0+LUVZw5F2lugnBK5UnzN2WBOTk5r1WgAooooAKKKKACiiigAooooAKKKKACiiigAooooAKKKKACiiigAooooAKKKKACiiigCN329OtflB4r/4LLfsZ+Bf2x9Q/Ym8az67pfiTS9WsdBuNUuNMkTQU1PUreG6tLRtSJ8sTTJOgRGxuY4Gc1+rk4yAPXj9K/lZ+P/7HX/BQT4rftZ/HP4EeGfhlaW3wq+MXxG8I+Lp/iDd6lY/6Fp3h+w0tbkW9hHcNei6abT2hiYwoOS27kkAH9GvxQ/aI+EXwn8F+L/HXizXbRbbwNp02p6xFHMjzW8MUTTDdEDuBdVIQHBZsAdePLP2Vf2xvBH7SnwX8F/F69tm8IXHj6CS60rRtUmiF9JCrsFYJ8uSyKH2gEjOCSQRX8tvw3/4I0ftdH4l/Gy1+LHg8a217oPxAt4dWuk0VbTxddeIpnm0cS3EVy99O9vJ5M3/ExiiS2eICI8Bq6b9on/gld+2SvxO+C2h/s/8Awj0nTNB8AeH/AAF9kv8ASYNAhbTNR0zVv7R8QpNdy3EV7byu53qNPjkiucyGRwWJYA/qC/ai/a8+Ev7L37PHir9o3xZef2jpfhTTJ9Vnt9PdJp5YLaRIpDEgbLhZHVWPQEgEjIB7b4YftKfBj4x+OfGPw1+HGu2+pa14Ev003W7WFgz2ty8KT7GGc8LIFJ4Af5Tgjn+Rjx5/wTg/4KUeM/BHjT4Dt8KxHp3hn4ffEjwr4f1hdX0zy9euvE3iay1ewaFGuxJAskCOD5yRqkikMCNhb9ov2S/2UPH37I/7af7VfxU8H/B7So7H4g3EHijwx4g06Swt59UuHsIhc6JMnmLNE76hFNctJIEgd7gyFtxLUAfe/wACP28/2bP2jPiB8U/hr8NNc83U/g3ra+H/ABP9oTyYre8dSRskb5Wi3JJHv4+eNx2597k+M3woi8PR+L5fE2mjSpWdY7v7VF5LmI7ZAJM7SVP3gDkCv4vPCn/BIX/gql4N+DXjXwd458N6H4p/4Xd8Obqx8R22k39vbXNtrza//wAJCv8Aaj3UkKXNyzahfWwngaWNVVVZyojz9fXH/BGHxPf/ALQdv8OtV+EWk3HwLsfiT4n8QWuiyyWLabFZah4Et7C1uEsvOyqvrsbARbCyyZnwEKtQB/U5c/ETwLY6zp/h271myiv9WQyWds9xGJZ41A3PEjMGdemCoIOQRnNeQ/Dz9r39nb4oeG/E3jHwh4rsJ9K8IaxcaFq100yLFbXtsUEkbNuxwXVQe5yBnBNfyg+G/wDgld+3aup/DnR/H/wth1zxbcaX8N4dO+IlzqthJd/DxfCdzG+q2y5uGlka5iiIRrJJY5/NCSONhx1nxP8A+CXP7UXgjwB8QvgT8G/gD4fuPDmq/GG78UG/sbbw9e/2poF5az/2cIbHVLqOENpk83kyJOItkbNJArMOQD+kX48/txfDH4S3virwB4TB8YfEHw74Wm8WReF7GZFu7yzRtiJE5yqNK2GUnPyHI4xX0d4Y+K/hTVzp2jandwadrt7p8WoyaTPMgvIYpFBO+Lh/k53HbgYP1r+P25/4JD/tgaH8I9DeT4NaX4i8c69+zndfDvUdVF7piXukeJrNXjtS889yvmJc2bJaLLC8gVIwrkIcD3OD/gmp+1pB+2VH4nHwps/7Rj8ZL4vHxWGoWYuF8NJ4fWx/4REJ5pvseaPs+wRC2wTKH3KXIB/Vl4Z+IHgvxnJdQ+FNXtNSeyKidbWaOYxblyu9UJK5HODXYx55z+P1r+cn/gkJ/wAE4vip+wr8XPDer3/gW08G6Xqvwd0XSvFklnNaMb3xlaapeSyyXIt5ZHuJ1tJ1/fnehVtu8lcD+jG3Zn3OehPHTHuOD60AWaKKKACiiigAooooAKKKKACiiigAooooAKKKKACiiigAooooA//Q/vxmQNj16dD0P0piwnncc857j+ea/Ir/AIKc/wDBS7xZ+x1rPgr9nn9mvwLcfFb43fEh528P+GIJBBEtraj/AEi+vbhiqwW6t8gYnluBgAkfn+v7c/8Awcy/fg/Y18GFTyMeMNP598f2hnHYZA6dTVxptq6Mp1oRdpM/p2W1jAxgYp5hUkEk5HSv5ih+3R/wc0lgp/Y08GfNwM+MNPH/ALkKaP26v+DmhlDL+xr4L55/5HCwP8tQqvYT7GccXTetz+nVogcbscGkMWTnIznv6V/MX/w3T/wc1f8ARmvgv/wsLD/5YUf8N0/8HNX/AEZr4L/8LCw/+WFHsZ9i/rEO5/Tp5WTliPWsvRPD+ieGdLg0Pw3aW9hZWy7IYLdFiijXOdqIgCqMknAAr+Z//hun/g5q/wCjNfBf/hYWH/ywpf8Ahuj/AIOav+jNPBh/7nCw/wDlhR7CfYHiIdz+nHYxOWI4IOM+lKsajLLjJPrX8xv/AA3R/wAHNPX/AIYz8GZ/7HCw/wDlhR/w3T/wc1f9GZ+DP/CwsP8A5YUvZS7C+s0+5/TrBGYwRxjrge/Jqev5g/8Ahun/AIOav+jM/Bn/AIWFh/8ALCl/4bp/4Oav+jM/Bv8A4WFh/wDLCl7OQvrVP+Y/p7or+YT/AIbp/wCDmn/ozPwb/wCFhYf/ACwo/wCG6f8Ag5q/6Mz8G/8AhYWH/wAsKPZyF9bp9z+nuiv5g/8Ahun/AIOav+jM/Bn/AIWFh/8ALCj/AIbp/wCDmr/ozPwZ/wCFhYf/ACwo9nIf1ql/Mf0+UV/MH/w3T/wc1f8ARmfgz/wsLD/5YUf8N0/8HNX/AEZn4M/8LCw/+WFHs5B9ap/zH9PlFfzB/wDDdP8Awc1f9GZ+DP8AwsLD/wCWFH/DdP8Awc1f9GZ+DP8AwsLD/wCWFHs5D+s0/wCY/p8or+YP/hun/g5q/wCjM/Bn/hYWH/ywo/4bp/4Oav8AozPwZ/4WFh/8sKPZyF9apfzH9PlFfzB/8N0/8HNX/Rmfgz/wsLD/AOWFH/DdP/BzV/0Zn4M/8LCw/wDlhR7OQfWqX8x/T5RX8wf/AA3T/wAHNX/Rmfgz/wALCw/+WFH/AA3T/wAHNX/Rmfgz/wALCw/+WFHs5B9apfzH9PlFfzB/8N0/8HNX/Rmfgz/wsLD/AOWFH/DdP/BzV/0Zn4M/8LCw/wDlhR7OQfWqX8x/T5RX8wf/AA3T/wAHNX/Rmfgz/wALCw/+WFH/AA3T/wAHNX/Rmfgz/wALCw/+WFHs5B9apfzH9PlFfzB/8N0/8HNX/Rmfgz/wsLD/AOWFH/DdP/BzV/0Zn4M/8LCw/wDlhR7OQfWqX8x/T5TGcLj3r+Yb/hun/g5q/wCjM/Bn/hYWH/ywpr/t0f8ABzNjdL+xn4Nx0wvjCw3H2Uf2hycZP0Bpqkw+tU+5/T6CD0pa/Jn/AIJgf8FJ9V/bl0zxj8LvjT4Muvhj8ZPhheQ2Xi7wtdP5qw/alZ7W7tJx8s9pcKrBHXjIyCUZGb9YYm3DIzjjr16VFjdSTSaEmiWVdr9CCMHuD1FMETYwcY+lSSlQOfevL5/ix4UsfG2reB9RmFpNoumxardTzMqW8dtI0qlzIxUAIImLkngc+tIZ6ayZGHwaaUBbccc8HPf0r5Rvv20f2dbbxh4b8MN4r0vyPFdpqF3p9+b23FpI2nXNnay24l8z5pTJex/KoO0A7iOAewvv2k/hUniG28KeHtWtta1FtZg0S5gsZ4pXs7m4WYobhFfKpmCRO53qRyQcAHvvkhmLDHuO2alEeVwwGaZbSeYpOMDt7ggH1J/PB9qs0AVvKcHJwcdM/lSrCVGEwv0H4f0qxRQBAYiQd3Oef6UeWcA8ZHPIqeigCu0Jb5WPGOwpEg2jb+vfjpVmjA6UAVzBhdgOQeCDzUkaFBgn6VJRQAUUUUAFFFFABRRRQAUUUUAFFFFABRRRQAUUUUAFFFFABRRRQB//0f6F7fT7HVf+DiPW9Q1GJJ5tL+A9lBasy5MUdx4gleZUP8JfYCcYzg+tfs/G7SfM5LEgEsRgE4xlQT7dB9e9fjbpeT/wcJ+LgMkD4HaYSB3xr1xx+JwOldt+0f4v+JHhP9rXSfFGoeItTtfCFheeHNPjl0S5iuLTTLvUr+O3ktdb0tC1zKNUMiwwXLR7IAQ+9GGR6eE0pI+SzSDlVaR+rYfOPKPzDnj73pkA8cZ96+JPib+2VH8NvHWo+Cv+EfN79gdEWYXWwOGRXHy+Vwfm6V8RfCT/AIKC+Pf2jta8LW3iPwzfaPo/iDVdF1bRrqO11jSlFhezTRxwXdxciOG8lxsZjaNJbuATnBAHyX+2D8d/iDov7XPjyyh07Tn8M6Br2maNcu0rDUJZtQ0+0uEeFPuhUNwqspBYgEoMoanF4iUFofLZxOrRppQZ+rA/4KBRsePCje/+m/8A2qk/4eBoBj/hFG7/APL6PQ/9Mq/n8i/aJ+Nd14Xt9etNH0RJxpMviS8hlluAF08T+TDDCVfm4YoS+53jTI5O4Zy/F37SPxnn0fxPqnhrTdLtLLyNcj0Oadp2uFuNKt45w92igoscis20Km4MmGG1ufN/tGofM/2liv5j+hf/AIeBKw48KN1HS9HXA/6YmmS/8FAUGf8AilTxxj7aM5yOB+5z+QP4V+E5+NXxY0vUYY9ZsNHurPSf7Ig1uSBrhZ2udZk8qBrBGBGyMtGZBIOcsV+Ucch40+Onij4a+Etf+I2jINRk1fX9SjsbaeG+ugtlosJt5jFDZZkAeeznk8wBUDOSxC4IHmMxrMsTfWR/Wp8IfiKPit4Bs/HJtPsBunmTyN5fb5Mzx/eKpnJU9q9N/DP51+GVz+3Z4i/Zw/ZJ+HHjbwXpdvqJ1ay1LXtRtJbPULt0021uIRPtXT4n+zZku1C3N1tgQ7VkfLqS7/gqT+2Z8bPgb410jwp8EPFHh3RI7zwXreqeVq635un1B2trTTkjNqrIGd7gtDv6PFIzhlC17dKveGx9thqVWdOM29z9yywUbmGAPr/WglR8o6nkZ9PrX84Xxs/a0/bf8JfD34++FfCN3Jd3dz/aVx4a8RWEDSWPh+LQdBt7/V0eSQMyiQkGyEuZS04xko2z3/8AaU/4KA+OdI8d+N/g3aWzW2jwWV7/AGbqunWmppdR3WjQ2t3fD7Zg2UzESPbrbW0zXCSDDoMkF3R0PCVD9vuo+RTnqAT3Hv6U0OjDAycHGcHnH0r8S/F//BU7xyNJ8N618MfB8+pWurjW9VMU2k6vc3L6Po2px6UEe3s4Xexv55GZmS6EaQYCSgOSp54/8FHNX0D9qD4vXFprEGsaRYeH9VXw94duCsRt9T8IW8c12krjJVtQkubkcZCx2BYBcnBzISwlTqz919yAEnjHrkfz600EMNwBxX4rfEz9tb9on4bWeo6n8QtN0uDxB4Bstb1a9sNKllNjqFtF4bk1iyheSdg6urRFJXyqhgSuR17uy/bH/a88GfEO88N/GXwx4YOn6TqsWi3k2jzXrvLdX2myalaTW4l5EEYhaGdZF3liGjBUmi6K+qy6M/W/IFIWwOPzzX48xft8ftCaL8OIda8e6J4bh1vxfoeka/4Th00ahqcYi1O4htvs99b2izXVzOhnR1FgjLIofYWWNyvT/A39uf44ftE2Ph/xf8ONC0Cz0O2stHk8SjVpriyvFuNXuJLcDT0kaPYluUDulwBLJnyo90oIUugWGmtz9Xssegz9KcCOdwwe2c1+GtpJ+0v8efgR8KfiZ8dPGcui+INa8atoV1/wiF3d2NrPp73V5GVlTdGfOAgQK67WKAHJZmrr/BX7Vfx2+B3izx3Y/ESGx1XwTZ6p4nt9Fvri5uZdSFxo1jBcxRTEl4xb3DOYolQ7w/B5YGhyXYr2Delz9ngynAABI5ODTeq9D1z3P4V+L/wf/bc/ao+OvxP8A+FdCs9B0lYPGWr+GvF8F7YatYTXC2ehWutQtZ2t9Gt1blYbtFYTqpkkQMo8mX5vmz4Ffteftla74I+C/hj4jy3dtHo2s6ZqPirxPNbmO31zRtWcjSoIZZBsMpjkmN8V5ieyIJHnx5n2q7CeEmf0aZGeVP5H8utHBOOn1yK/C/wr+39+1d8Y9Q07wx8MrHw3peqHxfottcPqOn6xa29xoutWtzcQeX9pRZGlJtyDcRqYJFKtCx+bG3rX7dH7Wnw5j1TQfFOm6Jrmt6v4117TNBOk6brGoRW+k6LHFI4vLewinufOPmIFkRGjGX38Ywe0XYX1SoftnuXuefalxyAQefr09eK/Iu2/br/aa8beAdd+J3w/8D2Vlptp/wAI/b2ttfw6hc6lHeazp1jqUwnsLQNcSfZFuWie2gja4ZsbVIDgdj+0R+3R4y+E/wCyv4H+N/g+x03Utb8R2J1O4to7XUtShW1tbCS9vTDDYLJdEAR7FlmURR71abABIrmQ/qkz9Q+oDdM/offPbj9aQMHAYDAPI9vY+9fi74E8U+O/2mvjqvhC08U6xoek+J9N8S39t9mu50a1EUng66s9gjkwGiW5mUc7SssiEbJW3XfCn7aXxu0RNL/4RnQ9PvPCdjLDea9dapfXc+pPDq/im70VVsnLMCbUIJvnyoiCxRgYUA5kJYaXQ/ZXj3o496/DPVP2+v2wPhX8K9Pk8c6NoviTxZr3iLxlFaf2Rpms3lvHpnhnULq3aKWKyiaVZmESRwyYWJUxJOwOWPtOtfttftK68niDVPhj4U0S0sE8VeGPCGijW5blbj7Xr+m6VqU1xfRxldsNumotHsQiUtGCBjljmQ/qkz9ZMoPvf1pN8YNfkb/w3t8eJvD8/iyz8OaJHY/D7SbXUPHcM01z9pkaW/vbB49GAG1ihsJZAbj7/mRomSGrof20/wBoP9oCwu/FHhH4NR6XZaD4Pu/Ddrrt/cXNxb6oz6xfW4U6cYnWILHE4EnmsPMy6KSRtJzIPqs+p+qeB1H8801gjKVk+4eGHqD/AJ/LNfOX7KHimbxl8GI9cn8/cNa8QWo+03E11Jts9avbZczXBMpG2IbVbhFwqgIAo+jx94f57irsrHLNyi7I/ELwbaxaR/wcqeI4NMxANb/Zysr6/VOBPdW3ip7aOVsfeZIgI1Y5IX5RwMV+/Setfgb4b5/4OXL3P/RssP8A6mUlfvmn3RXjV1abifcZdrQiyK4GV56c5718U/GL9nb4y+OPibrHjDwF42sfDmleI/Dr6DqFrNpLX1ySBciGeC4F5Ckex7jcQ8MgbaFIGTX20/OBzzxx796+bviv8Zte0HxZafDT4cafHqWuXEJu7iS5JW0srbcFRpihDs8z/LDHGrO5DHG1WIxbsdFWtGCvI/Ozwp/wSy8eeE4rAaX470Vgf7Yg1CNvDpML2usyaO8q2K/bs2kyf2UWEpaQM8xOxMA16b8Bv+CZ9h8D/Hg8V6f4hgubew1OzurDZYul61payXcphvbh7l1uJXa4GJliiwVZsfvCF+ox49/aDzh4/DZY4PBvBnI4YDrgngE+hHbJevxB/aCIz5Xhz/yc+vpU+0iczzKj/MfVNurqDkhj6jgHk47ntxnvirPze1fJx+IP7QnaHw5+d5Sf8LC/aEHWHw5+d5R7SJP9q0P5j6y+b2o+b2r5M/4WF+0H/wA8vDf53lH/AAsL9oP/AJ5eG/zvKPaRD+1aH8x9Z/N7UfN7V8mf8LC/aD/55eG/zvKP+FhftB/88vDf53lHtIh/atD+Y+s/m9qPm9q+TP8AhYX7Qf8Azy8N/neUf8LC/aD/AOeXhv8AO8o9pEP7VofzH1n83tR83tXyZ/wsL9oP/nl4b/O8o/4WF+0H/wA8vDn53lHtIilm1BfaPrP5vakLbfvfpXycPiF+0Gf+WfhsfjeUyXx7+0LIPkj8OA57G87+uf5+vtkialeELOT3K/tOh/Mj61Vg3SnV84/CT4w674l8TX3w2+IenrpviGxgS9R4C7Wd9aO5j8+2ZgCCjgJNE+HQlWI2yIW+iY2LZzn8a1v0OunVUldEtFFNZgg3HtQaDqK8+8feP9P8D2UcsytNcTEiOJepwOSfYZGa8kb9oORTj+zwAe+8Y6DOMketAH05RXzEP2hn6f2eD9HB/kTTv+GhXP8AzDx/30f/AK1AH03RXzGf2hJOv9nj/vqgftBzH5l0/j/eoA+nKK+YT+0LIQdtgMgZ+8af/wANCPk/8S8df71AH03RXzJ/w0JJ/wBA8f8AfX/16Q/tCSf9A/8AJvY0AfTmQOtGQelfP/hv45WOsatFpupWxtxMwUODkAkd/QV75H3PHPpQB//S/ok0zb/xEIeMNxGD8DdMzk4Axr85ye2OMc+tfop49/Za/Z++KHxN0j41eP8Awpa6p4n8PtE+nX0okDxtbyGWA7VYRuUflGcHa2CMHBr87tJx/wARCfi4E4/4sdpmeMjH9vXHX8cV6n8a7HxL8YPjv4+8O3vxH1D4c6f8NfD9nqmmSWU8cMQmuo5p5dXvGkHl3EFt5flNDNuhIVmdWO2vTwztSR8pjk3Xdj6u8F/sjfs2+ANWvfEXgzwjZ2NzqWox6rNInm7WvYpJJIplQsY02NM5URhUwxxgAY/G/wDaO/Zi8IN+2D43+Lup6E+qazqOqW97b3JhmBt0j060slCgNsf/AFJYPguDIcYwa4bxN4t/bj+PHhrxV8VJNY0bQZPFel/D3T1snvPENnJYQa0sF3dxbLS6jjhmZ5XSSeILP5YCBwflb7h+Hv7SHxu024ufA3ws0/RpYPCuq+ItQ8Qv4i1K6Z5LO28TahpMcOmXNzOSjbbZ2zPvhiBSNcblUKrHnVmjxMdlDrx5Wfn74j/Zt8BeLLHR9O8SeD/tkOgjy9Pja3uFSBcp8iooUMhZFJV2KkcAcGukk+EOiFjv8Ns5WW4uMtbTD99efu7lipwP3mcOSMYx1r660P8AbF+OXha9vbXwdpGl3XhDwdZ2+u+I5tVub251KW31HxDqmnPHYu0pXfFFYmYCUEAEAABlB9j/AGTP24PiV+0R8Ytc8HeIfCtxpugSQ6vcaRejStStFhXR9QNhLHPd3WLW6eZiHie0OwKGDEngc/1JHirhXzPyys/2XPhbpep6Rr1n4NEV14cjSCxmaOc+RHGzMmdxZSyeY23zAdpORTta/Zp8A+JfBuneBPFfhSXU9M0gPJbQzxTgqxRkZiYyrs7qx3MDhtzA8ZNfc/wc/bE/aNNjoTXFhpOreF9Dj8Nx6/f3bz/2vcyeJ9Rn0+H7IEkWMfZ5DEWMq4KFtuWAIveEf28v2mNS0DQH8Q+HfDVvqnxK061vvBohku2trZrjULewY6uTJlk3XUc+bfDbdycv1FgolQ4V1+I9s+EX7IX7O3xr/Z+8GaL8ZfB1nqy+Gvt0GmQ3fmILeKS7DNEqrIhKSeTE218j5EODgGvsjxZ8C/hD421W31rxl4bstSvLdLKBJriEPII9Pu1vbVASB8kVyglAHBYAtld2fz6sv2/vibpF9a/D3xvomlx+KNVu59A0qSzac2V5rGk65/ZGqsNzbvs0UM9rdquRIsYn3kCM48lsv+Cj3xy8Sab8SrTwrpuhWep+E7bTdW0JNS03V4ItQtNT1C+02zsoV3I97d3F1ZosE1kzWrmYIoZgcd0dFZH0eGwc6dNQvsfrZd/B34Y3/hXxJ4K1DRbWTS/GjXTa5bNkR33222FrcmUZJ/fQoIzsIG0ccA15Lc/sVfsrX/xB1H4rXfgjTX8SauJVur1lcF/PRI5Bt8wohcRIrmMKWK/WvjW2/aG/adtfHt/8KPB+m6BB8Qb1ze6r/bN5ey6PbfYNLs5r2G0/fKylp7nbHtxGEG+QYYMcCx/4KQfFe80i9+Pd14Z01PhdbNbWy2we5/t97i88MQeIogDuMKIPP+zsvllslSpO0tTui3RqLqfe/iz9kD9mf4g39lrPijwjZX09jqdxrEEqtKh+2XckctxOzRuFYzPFHJID8rMoOMmt/Vv2XP2fde8NWvgzUPB2mS6ZZTXE0MQhXCPeQz29w+5fmLSQ3MyMGJyJCCDjj8vB8ff2hP2tfgR4tTV9O8ReH9Z8NJYarYR+HdN1HQ5NXfVoLpLCy36kPO/0O7jjubmWNhBIoRSTGZEr6p+Lmk/Ev4hfEf4S/szeM/F974eTW/Deratrd5oz/ZbnUtR0c6ZEIIZ0w8UXmXc104iZWcxIMtEXQjkhRhJvVn1H4r/Zx+Bnjy51W/8AGPhSyv5tZt5LW/aVHYzxS2TWDxvg9HtSYsDnaegZhVrx38Bfhh43tdVbUtHtV1HU5vtpvGQl0vY7WS0iucFxl4YZXUEEgAmvwf8AGfxN/bO8UaPP408G+MtLvbb4aeBfGN7pmo3kmowSX8+ny3enpqEsWnvb2VwyxR7UE8TRrIjPHtZuPqD4aePf2gPg14gtf2XPhmuk3/je8sdO2Xuu6hrWoaUqwWV3fSkG8uJr0yOhjVSWySSWO1UAaK9g+jPr34e/8E5v2RPAPwll+EreDrG5stRSwGps5mjN3cadmSGU/vv3RVy8iiIqoY56CvQNJ/Yi/ZQ0fVvCmvaP4F06O58DxRQ6E8XmKLNIJGnhVV8wqfLeRnUvuwTlRzXwXrH7X/x/g1nXD8D9F0S51TVdYe4um1XULm/sIbex8G6PrLx2j2c7RkSST+SjW37pmxKysWcntfhp/wAFDviB8Uv2l9K+H2l+ELlfB99fQaRNcrpWpvNDdzaWNRa5fUgP7O+zLIwhMZPmZ+fAGKbQKlU7n6A6D+zz8FPC8ElvoPhu1to5Nb/4STCB1X+1OcXaqWIWTk8LtXk5UZqPxF+zn8C/Fmm3ek+I/DNld2+oy38twsiEq0uqQGG8kbkYM0QCvjjAGMda/NnxB+1b+0/4P1rxZofwss9I12Wz1nx1q9xJr0k5WPTPDbaeI7K1EDoRJN9qIRn/AHce07vvAjZ1/wD4KEfF3wt4i8X+P9Y8O6TcfDrRLjUrDTFgecaxNc2Oh22tRST5f7MtvJ5zQsSqmMhZGIQbym0Hspdz7V8LfsX/ALLPgrwvZ+EvCvgqxs9OsdbXxJDEvm/u9VREh+1B3beZdkap8+VKjYflGB6j/wAKV+FEPgXR/htFoNmNC8OvbvplkYsxWr2oAg2jdn5M8E/MCc5zX5y+Kv28vjT8BLnUPD/7Q2jaBNeaULcS3miNOlk76zZXUmiWiC5diJ576zktHDHGZoHwFJaqMX7fXxek+OF78Ib6x0TSrWbTdUt7HUrqx1RdPtdV0XT1vNQFzfswtbi2t5Unhlht2+0QtGd4wGBkPZT6M+wdD/YK/ZA8NeE9V8BaH4A0230rWZbV723UTuJX0+XzrQljJuHkvyoUjbnA4zWt42/Yw/Zd+I41uTxp4Ms75/Ed/FquosWlElxdwwi3WYsjg+YIvkbYQG43ZIBX8/vBn7WX7S+oX2mXvibQ9FtfH/jLRdAt9IjM2oR6DEmq6pq4tbi5tpZPMj3Wln5h2lZZWeOInOxa27n9vD9pN9Vt4rTw74eNh4Vt0k8XyubtmkkXWn0ac6TiQJtVQbhUnLnBMXLDALofsanVn6J69+zX8CfEfhPVPh9rvhqzk0nWJ7e5u7cF03yWUMNtBJvVwwaKKCNAVIKhQMnqed8d/scfsv8AxK+GGg/Bfx14LsL7wt4XiEGlaa3mRxWkIga38uMRyKdphJQqTggng4r5d/ZQ/bm+IX7Q3xu1XwXrPhS407wvMdWOj3v9l6jbeWujag9i6XV7cAWd21wEMiizz5YOxyGBx5X+xx+2R8Qfj3YeOL3VNC1LR9N8SaFd+M9Du5rPU7ZbON1WD7L9qv8A9xNI37uZXslFuD5hXh1qroiVKVtz9N/CnwT+E/gXxDB4r8J6BZ6bqNpDc2kM8SFWSG8Nqs6DLZCSfYrUEHoYUxwOMu2/Z3+BllptxoNt4asora8ESSxhSA6wXj38QI3EkrdM8vrvJIr84Pgn+3L45tvjH8LfgBfWq6noXiGzstGudRay1CScarJoVxrJeTUObADbb+UbZmNySRJkpuI6/wAb/tw/Gnwf8UPHnga50TR4YrfUbXR/CguYryD7ZcX2oafpSXdxdFhbXVvHNqCPcJZYmgRNkjIzii5EaL6M+sPGX7En7K3j+C/t/F3gexu11fUzrV2MyRb78x+W0+UcbWMXDKpCHndk9fXh8HfhZJPLO+hWzPdaxbeIJDtYM+pWVvFBb3WN27zI4beFFJwNsY4HFfnTZ/tk/tO6z4tv/hTpmkeFF8TeA3vp/F9xczz2+nXNrYvZORpbSzZgkaK8jJkumMcbI+SM8ePax/wUI+IPwz8Sr4N8BeEbzXbWDW/Emp61/oera072SeLL3SoY7S4ty8NoxEDSp9pP2dFCrEoTaabaNPZS7n6T6z+xv+zD4l8T6F4z13wTp9xqfhyc3WnT7XUwySXBu2baHAY+ezSjzAyhySoBPOj8U/2Sf2b/AI2+ONO+J/xZ8JWOu65oyxLa3c4lYxLbuZolKowVxHKzSLv3FWPBFflr8QP2sv2pfCnwG1HXfiTPouqa1a/EfX49NTRLDWp3TSPCd9dXDrcQWDLcSAG2ihkkIMKxyf6QXJO76k+N/wC1J8ZvEHw58P3H7P1hpFrea54DufHF/Lr8kyiHTkt4nFvayW7gi43z/wCuk3RxhQW5dCZbQeym9Ln6F+D/AAh4Y8CaIfD3hGyisLEXF1cmKEHaJrueS6uWyScl55ZJGz/EzYrqudxVxhgfTHGfy9elfzs65/wUD+Nt78FvEHwz0vR9Q/s/TfA9zor+II9O1X7VDrEPhD+2v7ROrhmsvKVmCbdwuRK27OK/oP0B5JNHtXm3bvKj3bhghioYg55yCec/mTmqUuhliIcuh+MPhv8A5WXL7/s2aH/1MZK/fJPu1+Bvhz/lZdvv+zZof/Uxkr98k+7XlYv+Kz7DLf4CIz13H+Hmvhr4oeItF+HXj74hfEfVkZoNK0PT7m5Ee3zGgs472UqgYgEkM3BIHbIySPud9oHPGeM/Wvhf4peHtK+Jfjz4ifC++uZLZNT0PTra4eIAtDHdLexiRQ3yEgK3JB2nBrlqv3WY5uk6DbPNf+GxP2ZU07Vr+XxdZwxeH547PUU2Ts9vPNIyiIBI2MjLKkisYy6psYM2ACej8K/tEfC/xJDqtxNqUdkuk3/2ORZA2WEl49hazABSAtzcRNHGuexJArxbWv2IPDty2l6x4R8Van4e1fR21WWyv4ILSZoxrN5Le3W6O4jkiYnzpoBuRjtfzCN+WqtL+wx4fOu2+r6d4v1WztpL6zvtStFgtJE1FrHUJNVtkl8yMmNYrmWQkRAb4ztclQFXh50fGr2XQ9U8MftYfAjxheRN4d8Q2lxpl1pb6pb34MiRypE0wlEYkC5VBA75IJMYZh0r0TwH8avhP8Tdd1bw38P9et9W1DQmVb+3hEgaEnAGd6KG+b5W2k4bKnBFfHGlf8E4fh//AMIYvhDxN4s1jWUElsVnlS2QC2hupp5bZI4oxHHbXNrcXFlJGgAW3lcIA+CPb/gX+yp4V+BHxF8U/EDQ9bv9R/4SWW6ljtbxY9lgt7fS6jPHbsFEmx55XYCQkgEY9Sc6E1HofUwbA2g5x/hmjLUEjA5zwMY9MD+uaSjnRFkLlqMtSUUc6CyFy1GWpKKOdBZC5ajLUlFP2nYLpai7iMncRgEn6AZz909Dj+Xev5u/2n/iF+2z8Nf2sbv4I+FPHetrHq17G+jqrKf3F8++ID92dyxFvLJyD8h68A/0iqQvznjac5/z714n4u+A/gfxr8XPC3xn1qEPq/hOK5S2IX5T9pGNxwMkxsdyD1Zj1r5HizIp42lBUZOLTXzPmuI8o+tU4+yk4yR0vw38P3fhn4jeBbPV7t9R1Cz0fUbCa9lILy5FpJKzAf3pIEJ9SBnkYH2/ECCc8+9fIVhdxt8efDGj5xc/YNXutgHPlxG1jkbPoHnQDPBzx0NfXdvtOWXoQD+Y/nX22EpezgqXZH6rkNJ08NGDLFNbpTqjlICEn0rpPZPkn4/tK3iuzgBIH2XIGepLvu/NV56ngDBr86vEvx/8V6V401qx8P8AhNtS8NeHX+xajqwufLkhvfI+0AC22MHtIyVimm3LIjsAsbKfl/Rv4/27r4ksbyUfuWgCA/3mR2JX3yGxxznB7Gvz68R/s3eF/Enju68Zy6pqVtbaiy3F9pkEwWzuL6KD7PFdybCDuSLgxL+6dwGYFgpAByvhH9tj4F+KfCfhfxNdag+mHxRPBaw21wrJJFc3CwtHG6sAdrtcQrGwyGLqOACKhh/bl/ZxvPC6eLrbWJnsZAHVhbSsTavF5qXhAGRbsmSHOOQRnjFUvFv7EXwg8Ya5oet38t0G0S6027jjwCrtpj20lt9/LwkPbRl3iIlZcozFGxXBfGj9iOfxToeg2Hwc1mPQ7ix0+x0C6uLlrhWk0axgmtxDF9nZfnbzmJMmYyygY60Ae+6D+1R8CfEkfia40vX4Wj8IRvPqDfwxpGzxs/AYsqzRvEQQDuU4GCM+Z+F/26PglrV8+jalO+m38mpXWn21pOC1yxhmNvGXjOzbJPMDFGBld6ncAMkdD4P/AGNfg54LsfFemaVE4tfFkJtZdsccMkETyNPKqTR7XYmdjKryMXT92gyqqBzun/sO/CxPF+meOvEN7da1rVtdNeXV5exQyT3cpu3vY2DMu63MVy7ShbfYW3bGJVRgAr/C39uf4X+NfDmk3njcr4b1PV9PfVobBpfOb7IXxCSxVW3yRlZCgyqYOHYHNdnq37WngjS/ilb/AA4Syur37ZqVrpMV1aqJAt3ObhH86PI8uONoGGec5yfuiuR8Q/sKfB3xR4ih8R6pPePLa6QukQhWBaGNbU2omSUfvN4jbGwHyy4EhHmc11fhf9knwP4XSG5ttW1K51RNRh1Zr6R1aaW7jnnnYsn+r2Sm4lBjA2AFcDCqAAQa1+2B8NfC5vNO8TuLLVIp9Xt7W1Dh/POlSOiknbkGfy1XCqxBY5I75Wh/t1fs9aj4b0fWNT1caddawoX7FNlZIT5VvMXO4ZMQF3bhX5dhMnyN8208dfsP/B/4i+NIvGXiCW8mlS6uL7yVbO+eeWWfMUhBkiKyTyMfIKB/lEm7y48Ys37BHwj1S50m98W3t5rt9psoRrq+jhnlnsjFaRCzXzEKxoI7G1AkjxNtRzn96+QD6v8Ahl4yPj7wZpnjX7ObQ34d/J379myZo/vYB6p+Hav1ct/9Qn+6P5V+W3gXwhZeD/D1h4M8PBpIbYGOIEcku5Y49gWOPQAV+pMPyps/u4A/KgD/0/6JdLJX/g4U8WspI2/A7TCSM9P7euMjoa/Qr4y/sm/s5ftC6zo/if42eDrDxJfaCc2U94jloV3h8fLtDLuVTtkygI6V+eulkD/g4T8XZ/6IdpePTP8Ab1x37V7/APGz9qP45eAPj/c+GfC+laJN4K8PXnhi01eS5Ny2p3LeJ9Rj0xFtGjdYYmt5Zo5XMqPvjVlUAncPUwtvZq58lmF3XaR9l6h8J/hnq017eX+iWjzalNaXNw7KC00mnkNaOxBwWgIBjz8qkAV514r/AGSP2ZPHOtaRrnizwXpd/e6DqF3qthJJH80N5qF0b26mAU/MZbo+c+flLkn1Nfkvcf8ABRT9sL4u/DXVtZ+FmiWXhOa+bR9U0PU9c0PVLe1i0+81y202S1lknl8u6neOZX8+3AhRN+V3FWr174g/8FOvG/w0+KWofBXxD4csbzVNEu9R0bV54Hljgt9SvHWTwtFtZ2YjVLPLMMs3mD5WC8VvzLocvsKnc/S63+APwUis9T0xPDVgbbWreLT72MJ8k9vBPc3ccb5PzKk93czL6PK/cCovAX7OXwO+FvjPXPiZ4A8M2ek654oJl1W9gWRJLkh2cFgWO3LOT8uD8xz1r84/G/7fH7Rvgrwdq3xLv/D/AIev9N1fSNfufDFjCbhL2K80CWOORdTdpihinDtjyUj8vAV2zItdn8IP2kviXpn7cOvfsveNU+365qMtvqd/exWt3HokVna6RbPNHpk00jK1w91cQM8IZmWMuzZ4ZVzkPDzS95n3jZfs9/BPRtLm0XTvDNjbWl09h5sccWBI2lXBubIHuxt5stH/ALRJ61ma5+zD+z94q8Jw+CfEHhHT7rSrbSjokNsyHbFYSSQzfZ05DLGZoIn453Rq3B5r89tM/aB+NfhL46z3NhqOiad8ONL/AOE11HxDBqgu57+VNHljYSQXTTGOBUDK2xQ0KoJMIMjZ88ap+2t8XfizZw2PxIsJ9G1Tw1e6ul/a2lpqugx3dvd+Gp7+1WS3upReb42G4TeYqMVVowDkK4vpYcKD3iz9lvDH7OHwJ8FWHhHTPC/hXT7GHwHNcXHh1Iostps11DNBO8DHcxeVJplkLAsfMZicjNeK3P8AwTf/AGFrzStQ0a8+F+iSWmp3NtfXURik2yz2RuJLZyockeSbqdowp2hpGIwSa+J/Gn/BSr4s+D/E3xA8OaFoFnqllo/hrXr/AMNmSyv4YZrzw7NZ2k8M+oyyfZ72My3D+aLQK0PllHO/5j6xdftWftcXGu3PwO06y8HJ4+0E65e6rd3KXi6PPYaOtjIgtI/tKzrNMuoRb3eV0iKNuT94KGrFeyqJbn134r/Yr/ZU8d+FIPA3i7wJpd9pdtLFcRW8iN+7khgW1jYMrBgBCAgByMcHivTv+FKfCMJJF/wjtisT6lFrLR+UAjX0FrHYpcFSdm5LaJIQoGNiADjivgT4l6tN+0144+G3iG18W638PdF1fwHdeLo5LO5ED2U0yW80U1ysoMEptkly0cyPH13Jjlflfw9/wUn/AGh/HnhzSNEu/Ct19lu/DGl2+s6jZ6RqW+DV9W8OjVWvotQUmzt4IWlQeQ4aU7vlcYwYbEqc3pc/WzwT+yZ+zn8N/C9z4B8CeELHTNJvNSt9SuLaJZdrXlpseCXO4ktH5abcEAYGOmDv/Gb9n74KftJ+FoPBnxy8O2nifTbO5W4ihvFYiO4VSu5WUiRSQ2Tg5yPmOeB+Y9v+1x8brX4bS6pNbaVc+B7CODwfcrJJdr4gk1SfQ4b4Xa3CTrElvvnjGAizbAZlcA7q4bT/ANoP9vmbwV4jv/AGv+FLfTtO8X/DjRdFh1Gyv7m5h0/XodE+0w3MnnBpmkF9hpPv583BB2BB7gsNLofrzF+z/wDBKz8Ojwvb+GLGLTE0STw6YBDtT+yJVKyWbAZzE24ll4znOc5zzvxN/ZU/Z3+NGn3Wk/FPwdYazDfSW0s6TxkMz2UUkVu3yFWDRxyyKuDwrspJ4A+Qvg7+258WviL+11qXwVv/AArLD4Wh1HU9Ei1GHSr+Ly77SIY5JZ5NRlb7HLDOWfZHHGJIyAj7ujeNfG/9pf8Aad8W/AzxP4q0AeHdO0zUdWjtfCcNvdS2urRy6X4rttLkXUA82HhuCjmXyFjEMbeU43HFPmsCw07H6jWHwD+DFnfS6hp/huwjmmZ5WaOHqZbGLTHGA2DusbeK2J+6UjA6g5wND/Ze/Z38L/Eq0+Meg+FbCz8T6baJZ2+oRBldLdIfsqouW2Z8oeUGYbtoIzivzM+J/wDwUR/aS+G2qw/CqfwnZ6x4x0afW5Nck0fRtV1GwuLTSW050S0jgleW0kuYdUg2zXUkkMTxsrJgjH0p+0B+1N8evC3j1PD3wcsPD0Vpp3gseONTXxC863DW6zmGSzgSOWPZMVx+/k3IrcPtDKCKoH1afc+x5fgZ8HZL691BvDtiZ9RGorcyeUCZf7W2NfbiMk/aRFHvP3m2gdAarx/AP4KC3ayfw1p/2Z7p71onhypnmtVsXlYHjc9qBCeMbQAOhr4J0f8Aa8/af+JUQT4faZ4a0mTxT4ru9B8LSaxHeusVtp1lNe3NxqIhnRpHlEXlwxw7CrZkIYLXlh/b1/a48Zahb3Xwr8PeFYLCCTQdIvV1E3bzHU9aubyzluLeSO4RGs7eW08wAhnnibKtup3QLDz6M/Q7wt+xz+y54J8ASfC3w34H0my8Pyahb6xJZ+Xuia+tfLNvcfOSd0RjjMZ6J5fGM1j+LP2Gf2QfHPibXvGPjb4f6TqOp+KIrmDVpp4mzdQ3sTQ3IlBbaPMiJWTHXkjljn5b0H9vL4lQeA/FF/4r0rSY9b8KpbWs6W7TLa3WoL4nvvC92YFeRnWAtZebCu4OpYbzyc48/wC3f8c/DsEfxH8SaRoU/g/XbLUNd0qC0FyNTstK0TULSG++3o0pje4e0ufNjESRrFKmyVW3KQm0P2NTe59kWX7Ev7J1l4Bu/hTaeA9LTQr22htJ7KOJ9rQQXUl9EgO8yBUuZpJV2kBXfjkV2Ojfs0/ADw/4aj8HaH4S0y302Owj0tLcRDy1sYZzcpFjIJRJ3L4PJdiT1NfmZq3/AAUx+L158QtI07wP4LfVPDs5tdVlaz0vUtQlutG1PVJ9PsZIrm2byLWQRW5uTJOCsgIEY+Vq9A+PX7SnxQ+Cvxi+JFv4AmGp6vc3nhy20yzu7K+1eOGJtOuri7li06xlScA7AJGjxjeGbINEVdk8k+59/wDgT9nX4H/C7x/rnxY+H/hy10jxD4kZm1O/gEgknLvvbeGJUFpPmPqSTVX4efs0/Af4S33iHUfhz4WsdHuPFbFtX8hGC3R/eEhgxYBCZpGIXbksx5Jr5J8Qftc/GDx38IvhV4x/Z403Q7PV/iJ4VTxkw8RtN9kgslsLe7a2WSGSJvOYy7A7HZGis0i4Ga5j4p/th+INR+HWp6RFb2VjPqep+IvDkctvOxkihsPDNxrMdxFKrHLs0a7XBKlCHQZwTaQ3RqH17pP7IH7MGjfFHTvjPo/gfTIPFWjiNLLUlRjPCIbb7FHty2FdLY+VuxuMeFJwcVJrP7IP7MfiDxF4l8U6z4L0671LxhbPZ6zcSIzNcwSlC8bjdwHaNGJUD5grHJUEfE37On7RX7TOn+Ll8P8AxfvdD1bw/qPizRfDWmC3huIb6zguPDX9pM9xNJIUmkmlWIABQfMlcfcKAV9H/b1+M3ibw94g8eaZpOhW+geHfD91qLOVubm4utSl1K+03T7W2jhkUuGe2i3rtLSmZY42Dch8qJdKofY1x+w3+yLdeHvDnha68AaVJpvhG4lu9IgKPi1lml+0yOp3ZJeXDNvzkjnNdD4l/ZI/Zr8ZavpGueKvBunXd74f1C71TT5mjKmC8v7w6hdXAIPLT3bNNJu+UvniuH/Ym/aI8UftH/DLV9d8dWC6frvhzXbrQ79UsrvTUea3jinEiWd+TdQZS4UFZiWJBYEqRj7EwBx75/GrjST1MZVGtGz5Q8d/sRfsl/Ek6lc+NvAWlam2sX76reechHn3jwG3aV238u0TFXIBD966n4n/ALKP7N3xj0DQPCXxO8G6drWmeFh5OkW86MEtEEax7I9mCI/KRRtztO0ZHAr6G7k+vX3pCqnqM9qr2KJVeSPmKf8AY1/ZcufEUvi+bwNpjalcaM2gTTmJl83S2g+ytasA20I0AEbHGdoCnivpi0t4rWBLaBQqRqqLtGBtHAwMnHr+NTYGc/5/zzSgD+X86UqaWpE6jlufiV4c/wCVl2+/7Nmh/wDUxkr98k+7X4G+HP8AlZdvv+zZof8A1MZK/fJPu14mL/is+4y3+AhH7N6fyr5y+LPwO1Txt4htPH3w91weG/ElrCbNrt7b7dBcWjHcY5rYyRB2U/6ty+Y8tj7xr6MkKgbm7c188eOv2mfhT8P/AIraX8HfFVxcQarqqxMkgtpGtIvtEjRW6z3IHlwvO6lIg7Au3C5wawavudVSmpLlkedL8Ef2kc4/4T7SiQcknQ+/t/pXQDp35PJoPwP/AGkh93x9pXQj/kB9j/29V9WDWtNW1e6ku4tiy/Zy4YFVk3bNmQR8wbggHIJI7ZqVtf0ZIriWe7iVbQiOcs6gRswBAc5ABOV9OTxWfsYdjleX0X0Pk4/BD9pIks/j7Ssk5P8AxI+p9f8Aj6pf+FJftInr4/0v/wAEY9c/8/XrX1ymo2TXTWJnjMyKXZAy7ggON23O7GeM4xkY+t+PDj/J/Wj2MOxH9mUex8bf8KR/aP8A+h+0r/wRj/5Ko/4Uj+0h/wBD/pX/AIIx/wDJVfZvlr/n/wDXR5a/5/8A10exh2D+zKPY+Mv+FI/tIf8AQ/6V/wCCMf8AyVR/wpH9pD/of9K/8EY/+Sq+zfLX/P8A+ujy1/z/APro9jDsH9mUex8Zf8KR/aQ/6H/Sv/BGP/kqj/hSP7SH/Q/6V/4Ix/8AJVfZvlr/AJ//AF0eWv8An/8AXR7GHYP7Mo9j4y/4Uj+0h/0P+lf+CMf/ACVR/wAKR/aQ/wCh/wBK/wDBGP8A5Kr7N8tf8/8A66PLX/P/AOumqMewf2ZR7Hxl/wAKR/aQ6/8ACf6V/wCCMf8AyVTH+CH7SX8HxA0tTzgjQxwSMH/l69CffOORX2h5a/5//XSGNT15701TQ1llHsfO/wAIvgdfeBtev/HfjzWV8R+I76GO0F2tt9jggtYjuSC3thLKIlLYeTD/ADuAxGQMfRES7VxnPvTwAOlLjvVa9TshBRVkFIQD1paKZZzPijwro/i2xGnauhZAcgqdrDp0P4CvOv8AhRHgUnd/pPXP+t5/PBr2vAPWigDxX/hRHgb/AKef+/v/ANakPwG8Ck5zdD6S/wD2Ne10YB60AeKD4DeBVO4G6J95f/saX/hRHgY5H+k89f3v/wBjXtWAOlFAHiv/AAojwKcH/SeOn738f7tB+BHgVgQ32kg9f3vX/wAdr2qigDxU/AjwMwIb7Sc9f3v/ANj70f8ACh/AvP8Ax888H97/APY17VRQB5bofwj8HeH9STVbSOSWaP7vmvuAPqOBzXp6BgPm6/XNPooA/9T+iTS9v/EQj4vU9W+BumLwR0/t64J4P0HPav1W1v4X/DvxHf3eoa7otpdXN/LYzTtLGGaSXS51urNm4yxt5Y1ljwRhlB6gY/KnTCB/wcI+L8nA/wCFG6Xn0I/t+ckH8unfpXTftv8Ax9+O0Wp+JvA3wxuNI0nw74N1PwhBrUl79oj1O7Os6raYWwninhiijSN9kjSJIsmWiABzn08K/wB0j5DMU/rDsfbFh+x3+y5ZWXiyysvAekJB45y/iCFbbK6iDK0recoYjmRi4THD89enWN+zr8DJLz+1JfCOmPdtdaVfNK1upc3WhqBp07P1L2ijbEzZKDjPQV+R1t+3d8bfj3ZavomteHLzQNBu9WsJtIvotMvdPeCK18TW2nyQTXc0s0V208eWYwLEigvGwYmuo8K61rvwt+Bvw7/aPuLy/wBe1fxBpEDtZXl7efZxPoej6xeJKUEy5a5aQJNvyreWkhBZQRutzm9nPufpHa/sk/sxW3ivxJ4+svA+jf2t4wjkj1m9NurNexSyCVxJzhlaRQzgYyxyTnIr0m4+FPw3ufFKeOJtDtH1iG9GoC68tTOt0tq9l52/PEgtnePdwNp249fy80X9sH9tTVU8OfDQWHg9PHXirVNNaC8NtfHSrbTdS8OalratPAt41w08UmnSW7MJVjcMhAQnnX8Oft1/HXxjLp/i3RNL8P2+gadfeGdC1uwuVuDqU+p+Jp4bRZ7BxcJHFbW09wjmOaJnkiSQiRW+YU0g9jN6XP0B139nH4CeKrm0uPEvhLSr+XS7291C3eS3VvJur+BoL2Zechp4nMcoPJDd8VyXhD9i/wDZO8A6PJ4f8FfD7RNMtJGYtDBbKBvlt2tmYkg5ZoZGjPqhOc5r8/NS/wCCj/xf8S/DU658N9HsBrdvNZ6TdQ/2bf6yU121iuG1+1isrOeGd49PlgSMlX+XzVkYuhyczxF+2X8b/i/4bbxHokegT+ANT8DaJ4pvre3W+h1jTZtcFoLKzkvobvynkmka5cbI0YQoqNlmzUpjjQqJWP0Yg/Y1/ZStfFWt+OR4A0Uat4kinh1W6a3G+6huCGnWQt99ZWVC+c7j97oK1fiX+yd+zT8aYWtvir4I0nXklvv7Rb7VAHL3exYvObByxMSqpLE5UBTwMD8+PHv7ef7Q/gXwVr3xMstI8O3+j39h4lfwtpqefHfwXHh2Qw51aX7Q6NHNhg3lJCYpNkbHLEnB+Kf7f/7U/wALNSX4QS+G9P13xxptzrcuq3Wj6Hql/p81npKWMsYitobrzrZ7hb9A008zxQlSzAq6gHMEqVRK9z9J/jD+yp+zf+0Fe6Pq/wAbPBOk+KLnw7n+zmv7dZDaElCwjbJVVyoJBHbPWruv/svfs++K/iNb/FrXvB2l3fiW2szpkWoPADMtoY5IfKyDjb5cki44xk4IGc/C37VH7fXxc+EOveF7D4W+B77VHuvCo8Z6natpN7qU/wBk8xU/s9JLV4ls7kksPPuRJGCOU4GcH9srx18ZPhx+2B4e+ImlXOn3fhnwv4IvdRttHma/t5n1W61Ky05JZzDdRW8kKG6jyksThEEm1fMKOibRMYVLn3kf2TP2a3+II+KMvgfS28RLYDShf/Z8S/Yvs/2ZoM4wE8gmIAZJUYyR0t6z+yt+zbr0eqR654I0m6GuaXbaLqG+2DCfTbAj7NA/G0pCVXyx1TAx7fFmmftX/tVx/Eu2+BGp2nhS88QaXq99ba1q1pb3i6c1na6NZazHJZwNdNKszR3awMrSMA+JgNp2Hznw3+1n8efG/wDwj1j8adJ0WKfULvwh4h0dNFku7UQW2r315a/ZbxzdOsskRtDIXUxwusmwxsEYs1JMaozWrZ+lXhf9mz4D+CviddfGnwj4U07TvFd5arY3Gp28QWYwqsaCMkNtx+5iGABwq56DGPY/sl/s06d4r17xzY+CNJg1nxTNBPqt0IAHvZYLiK8jaQ8gss8ccmRyXQNgkAj88fhj+27+1f8AFiz0v4eaXB4T0nx7qcl5dyNqNhqMNlY2NnZ2t0YZLc3v2iZ7g3ai3u0kWGWJWlRDlVHW/Dr9v74veP8A9pyy+HFj4QaXwhLf2ejXN3Z6deXMEd5d6NBrBuodcjlWwktENykIjERlYnfvCEEVyiUJfzH3N8QP2VP2bvixeRan8RfBWmavNHqT60ks8JZ1vXiihNwCpDGQxwwoc5OEAwMCuN+K37FvwJ+OXxns/i78ZNBs/EraVpcWm2NlewCWO2eG4ku/tCNvxuJcKU24woxxX57ftO/tx/Es/EXxr8CdMtjB4dmW/sNK1K00+9hnW+0eGGa8Y6qZhaXDeYJoTBDEkkZQ+YzDcK5r/hvD43fCfxdf/Dnwf4cvvFtvpGparrWqyDTL7Vpbizu/EupWFvaW9zbTJHZNFHZSlXmjmTDIqoNh3LltqJwltc/XTx7+zX8Bfij4JvPh14+8I6bqui6lqDaxcWU1uDFLfuxZ7llGCJSScuSCM/eGa0dO+BHwY0e1it9N8M6bFDCunKipbqoVNJQrYAEAjFqGIjbJ2AnB6V8SfHX41/F/wV+0s/w5+CFrpCa/4m1HRtIW71/7ZPYQRNpes6lJKbSG4iIdTpoAMRXcGyzHCkeGaF+33+1q3g+zufFuh+E7TXvFdvo91oiqt0trZC/1hdGmjvpGuWM7LLi4iMPlBkxHhny5m41Slfc/Rfxf+xx+y38QNW0rxB458CaRql5olzdXtnPcW6s8Fxe3v9o3MyA8bpLwfaCcH958wwRk6+jfst/s7eGvFHifxtoPg3SrPV/G8M0WvXMVvmS/S6YtOspHzESM5ZiAMtktk4x8CL+3B+0TofijU/CniHStAu28AaN4r1bxVd2MN1svz4fNg0MWlRtOxhe4j1FVkMzymOWN0LAhgvl2lf8ABRD9rTUfh8mqXPhC1sr621K2kur2+8P6vBbrpFxp092Slgbv7Tut5YljnvTIYUR1cx84BcHTmle5+o+sfssfs3axqvhLxBq/grSpbvwFFBD4dleHb/Z0dnjyI4CMBREUVkBGARxg4qx8S/2YfgB8ZorqL4peDtM103s9vdTfbIA5kntInht5CwywdIpGVecqrN2PHxb8Av26fip8aP2ppvhy3hiUeCLq91PS7HVItLvFWObS4w/2p9VaVrK5hugsiJHFDHIhZSWI68L8Qf2k/jz48+Hep+Jb6fRNK8L6vrkVnolvp081vrtuukeKrPTbgXOZStwlwpYnyUjESMA5bearmJ5ZvS5+g3jn9lP9nD4neAdC+FXxA8FaTqnhvwwsKaRp0tuGgskt4VghSBBgKqRAR4AACAA8da1/+yD+zFqnxOn+M2o+BtHk8VXds9jNqbW4NwYJLX7C8e/phrX9ww4Ji+XOABX5f+Ef28vi34b+Ium/CHwB4Qu9U0iw1N/7WeLTdR1R5o9W8UappkXlagLhorPyBaNNILlJVMbBYhGFBqv4q/bS/bi174DjxLpFx4Q8O6t4s8PW/ijw9dLZ3t1HaWUWpWVleQ3im6Ilnkjv4JYXjMQRd+5X4IXMHsJLW5+oHir9j/8AZk8aQazB4w8C6RqCeI4NPttTWWAf6THpQH2FJADt/wBHwBCCflwDk9tew/Zd/Z10rwJc/Cuy8G6RD4d1KxTSrjTxboLeSyRnlSAx8hkVpGIAJGXJPJr5auvjL8VPA/wP+J3jTwFYW1/4p0fxg+mpHIl7e2zNLcW1vO8Nr56zSbEleSKzglQysAkeGYEfPGkf8FIPjbrXxI8NaBoHhiPW9JV9BtPENzp2jahLBJca3dm1MkN4tx5OnpZgiSeG6SabKSRgofmBzB7OS1ufqx8J/gz8KPgR4Xk8G/BzQLPw1pcs7Xr2tnGIo2uJQFZ2HOXYIoJPJAAzwK9Q2kHbz6LwRnjPc5PfvjivyB0f9uz9ojRfh/4D8WfEzRdDXUPitp6nwxZ2EV0CdSmntVjtrndMSw+zSy3cgVUOyPZu+VieMk/aG+Pen+G7TwX4D/4R678Py6L4w1PxFYXA1F9YtLTS7nUoPtKXy3oCLcTLBBBH5YdGEjIyogRKVQUqN/U/bNQd6xsQpPH0OOmDntjP1pituUNgrlQcHqMjODyeef5V+Wvx4+Ovxq0L4W6F4A+B76Jp103w7vfFOo3niFrl1+y2dvbRC3tZIriBluS10JDPI7rFtXdkurD2P9gLxReeKvhPe3WoGeSeGWwjknuJpZpJ5DpdmzSt5rEKXLbiECqSc4JJZrhUuzOeHcVc+6aUf4fzpKUf4fzrapsc5+JXhz/lZdvv+zZof/Uxkr98k+7X4G+HP+Vl2+/7Nmh/9TGSv3yT7teBi/4rPu8t/gIZKpYADr2Pp71+c37QP7HnxB+L37Q+m/GLQ/Elzp2lWf8AZEVzo8d3JFaX0VldzXEpuoFiZZHhdoprU+YMSIQ21W3D9GpMDB98V84/Gj463fw61iw8G+B9Dl8U+Jb+KS7TT4p0tY47WEhXmmuJFZIhuZVQHl2OBwDWDdjpq1YwV5H4tj/glR+0nZfBq48AafN4ce8lv7WZ5JtVv2jf7FYXlvFqMUn2HdDdNNcqJY1jcSQxqpkGBn3D/h3x8dLHxF4k1pNJ8Javb3+tWOrtp+pahfP/AG08cGqQXH26f7G7wQxy30V5bW8azKs0RBcBgw+20/aM/aYjX5/hFEzdCT4kseo4IJEWM8c46U8ftG/tLdvhDEO/HiOx6n/tlU+0icv9o0f5jyX9n79hXWvg7460D4n6hJp1x4hsrsLe38TzNPJpZ0lLIWSF0OY47iOIpyv7uMMdrEqP05t92SDjoOR3PQk/5/H0+Il/aM/aXAwPhBGR/wBjHZf0hoP7R37TAOf+FQRjP/Ux2X/xmj2kQ/tGj/Mfc1FfDH/DSH7TH/RIY/8Awo7H/wCNUf8ADSH7TH/RIY//AAo7H/41R7SIf2jR/mPueivhj/hpD9pj/okMf/hR2P8A8ao/4aQ/aY/6JDH/AOFHY/8Axqj2kQ/tGj/Mfc9FfDH/AA0h+0x/0SGP/wAKOx/+NUf8NIftMf8ARIY//Cjsf/jVHtIh/aNH+Y+56K+GP+GkP2mP+iQx/wDhR2P/AMao/wCGkP2mP+iQx/8AhR2P/wAao9pEP7Ro/wAx9z0V8Mf8NIftMf8ARIY//Cjsf/jVH/DSH7TH/RIY/wDwo7H/AONUe0iH9o0f5j7nor4Y/wCGkP2mP+iQx/8AhR2P/wAao/4aQ/aY/wCiQx/+FHY//GqPaRD+0aP8x9z0V8Mf8NIftMf9Ehj/APCjsf8A41R/w0h+0x/0SGP/AMKOx/8AjVHtIh/aNH+Y+56K+GP+GkP2mP8AokMf/hR2P/xqj/hpD9pj/okMf/hR2P8A8ao9pEP7Ro/zH3PRXwx/w0h+0x/0SGP/AMKOx/8AjVH/AA0h+0x/0SGP/wAKOx/+NUe0iH9o0f5j7nor4Y/4aQ/aY/6JDH/4Udj/APGqP+GkP2mP+iQx/wDhR2P/AMao9pEP7Ro/zH3PRXwx/wANIftMf9Ehj/8ACjsf/jVH/DSH7TH/AESGP/wo7H/41R7SIf2jR/mPueivhj/hpD9pj/okMf8A4Udj/wDGqev7R37TDf8ANIEP08R2X9IqPaRD+0aP8x9xMwHB70KwPA7V8Qw/tUfEbw/e2158ZPh7J4Z0GWaO3m1OHVLfUFtnmYJG80cKIyw7iN8mcIOTxX2tbOsm6RSTnH547e2MdOKqMk9jopYiE21Fn//V/om0k/8AHQn4uVeSPgdpbAeu3X5+OOe/54r9G/iN+y9+z58XvG2k/Ej4n+DNJ8Qa/oQRLDUL21WWa2MU3moYz1GyT5l6c8g5r84tMx/xEJeLg33T8DtLzn7v/Ifn654+ma9U+OHxk+MXg/8AaLuPAHwMg0hde8S6toOiLe64Lq6sraGXTNX1CSZrWG5i5BsQg2Mmd/zZwK9LCfwkfIZmv37PsLQ/2Wv2c/Duv674r8P+CdItNR8T3Ed1q9xFbRrJdSw3IuklmJBy6XCrMCeRJ8yndzXZy/CD4W3HhbTfBM3h3T20fSkdLKzMC+RBHLG1vIkakcK0UroeACG6YzX5ieEv25v2lPEuvWWvHTvD9t4Y0G18MR+JIPJuZtRuL7Xb29025GnyC58qFILm3WSMSxylkJTdnBqhpf8AwUF+MnhXw7pXxO+K8Xhr/hE/EGi2/jd20+KdJ9E8PpfWdrepetJPOtzcxQ3sUizIkKbYpgIgAuzo5jjVK+iZ+o0Hwh+FcGs2PiW38PWCajpflGzuEt1E0LW1tPYxNE2MqYra5nt1wRhJHAwGIPGH9lj9nFPG2j/E+PwTosfiHwyjR6TfraxrPZqzSsREwX5AZJpWHqXb3r84NR/4KE/HuHx/4D8PyaPYWtp4qfRtPvbc6Xd3K2d94juJI9OE2oreJFGYYXgmkheJ2uFZtjICHHJeAf2nf2jPD/gfwT4t+IWoaF4g8feI9M+wW+qxwXlnpVvPqniS20mF7qxNydywGbdIQ6SuVWNWjDNkch/VprU/VDxf+yr+zT470K58I+MPAei6jpt1rEviCa1uLOOSOXU5/llvGUjmZx95+rDgnBNcxo/7EX7IPhzxNP4z0L4aeHrTVrmzh0+S8hsYkkltLa3htYYGdFyY0gt4ogCD+7jVegAr4D1v9uD9rC11nWfDWn2nhW5b4b2Go6l4ru1trwQ6nHpl3brJHpKi7zbNJa3B2vMZ1SZHBDEZHd/t9fHv432WgeKfB3wgvNF0rTdB8MWOvarcaj5/2u8h1G7kgjj02aGeIW724t5HkkcSqC0Y2puzUjVOb6n3FF+yp+zNbeJ/EnjX/hBdGOq+L4ng1y6ezjEt/DIyvItySAXVnRSwIOWVc9Bh3xM/Zb/Zv+MC+V8U/A+ja9i//tF/tlokp+2CPY05JDfvDGoUk9VAGTwD+Zelf8FEf2jbzxd4mj0HwVLeeGtFm1q2tGk0m5g2L4duFhnml1Frp4bhrqKOTy44oY2gleNXMhzuq+Iv+Cmvxr1XxZpl18IvCX/CQeHLm0HiK3k0/SbzUG1HQbnVbjT7GNJ4rmNLGaRLV5zLJHOjb02R4FNy0K9hN7s/Vv4mfs9/BP4zanomrfFnwpp2vXfhqYXOlyX8CyvaSKyt5kLH7hBRCD2wM4PA6nxN8Nvh94wuZ73xZo1nqEt5p9xpMrXEKuZNPumVprZmYndFIyKxQ/KSoIGQa/ITwD+1l8bvA/hGQeG5tJv9E8H6pf3uvR6ws8+qapBqHirULKKLTJVnRYnhiXKtJFMGYLEFTORcu/2+v2ndG8NXvjy5tvCl/a67feJ9L8PWFrHcrc2lz4d1ebTll1Gb7U4kjuEhOfLji8uXCln3czzp6WF9XktT9PPh3+zX8AfhPpNl4d+Gvg7StFsrB7preG0tljVGvgBckY5zOFHmE9cDOa2R8EvhBmynHhnTg1hBaW9s5gQNDDYPLLaInAKiGSVygX7pckYzX5b61+27+2D8HrnxDqHxs07wzq+l+G9U1Tw5PHoFjexXl5f22hf8JBbXsEc13KyQOjx2klqyu5kV5RJ5bLGM7wP+27+2n8R9H0rwjpOgaTofia+1me2Opa9omoWOn/YItEbWdyWDXxnZ1dfsxlW6ClisgQKDGaVlqS6ctkz7/uf2Ff2NbnwbcfD+8+Gfh59Cub4alJZPZR+U12IzGs+0jAcoTHwOUJU8cV6JF+zn8Crf4rQfHG38JaXD4xtrRbKHV1tlW8W3SIxpEJR8wVU+VeuAABivkH9kX46fH34v/Fbxj4t+IWqaTH4NXQPDeq6foltZyrqNnNqOnR3FypummKyx+b5igCIsxxtYMMV5l+yV+3n8b/jf8OfFHj/4g+FJNItYPB6+MtIefTLjTYUingedLGaS4uJvtjqNhNzGIUfBPlDNU5AqM+h91Xn7In7MOp+O9S+Kd/4A0O48RawXF7qMllGbmcyBUcu2CcuiKD0yRk57XfEP7K37Nni7XdH8V+JPA+j3+oaFeS6lp11LZo0lvc3M63U8sZYfK8ko8xm6luetfnh4N/a9/bQ0/wAcafB8W7fwauiRQ+E9W1M2FpeR3D2fi6W6to4oGmvHEc1g9lK00rrItyrhY0jKndwXg/8A4KLftI/EXxBrPgDwhpOjQaxe6h4a/wCEfvtS0i+tLKPTfEOpX+nCVx9u3X/kfYiyTwSQJPuKCNcZo5yvYVT9kbz4a/DvVPFNv45vdFs7jWYp4riK+aJTOJ4rea3RxJyQ629xPEpyMLIw6HFeGfFr9jn4C/GLwVY+A9W0DT4NKge0SSFbVGjnsbe5F0bJlOB9mlk+dk6BiWxkA1+fWtf8FJPjDoGtfDuyv9LsLtNQ1HStI8Vx2Om3U0a3OreIBoEUkN39sEenwhitwizpceYMwlt2XOLrH/BR39pLwl4dl8Xa3p/h3WE8UeHbHXvDlhpNpdy32nnUdXh02OLU4ftZa5eBJsymBrcGZDEFQngTV9hfV6h+tXgX4A/BH4baRY6D8P8AwppmkWunWN1p9rDbW6xrFZ38q3FzCq54imlAeRDwzjOMjNeZx/sNfsep4IHwyh+G+gDQTqP9trYLaJ5AvfK8g3IT/np5QEef7nyfd4r84Nb/AG/f20X8LQX/AIa8NaLZXuhaZq2o6vBrml3uny6gbHVrbS4Psdsb0yWKyrc+Y3nvOVaNkGTyNr4q/wDBQD9qv4Xamvwel8O2OueNNIvdbbU7nRNEv9QsJ7XSLbSb2KKC0jv1ntpriPWIV86WaZFMMhMRDjbSQ3QqH6n+H/2fPgR4R+Kl58bvC/hPS7DxdqNv9mudWht0S6khwgKvKuCVIiQNzk7EBzgYwrL9lj9nCx8Xa348svA2kRax4nkgbV7z7GnnXb280c8JmbBVmSeKOQejBT15H573P7Yf7XfiKy1HXdItPDuhaRrN9r3hrQIbi0u5tQs9W03SLjVYrm+ZboRywBbWeGSNI1fcEYMM4P0XcePfijJ/wTL1X4k+Ntds7/xrH8OL3VLjU9Lia1T7U2lSTpMkUjTNE44LZ6uGIVQdoUn1F7Gb3PoG+/ZZ/Z11Lxh4f8c6h4I0eXWvDdzPdaXdm3QzWk1xcNczvC2CQz3EjzMc/fJYc81raj+z58Ddf8JweCtY8KaXd6RBosugxWj26GFNJuDH5lmFwAIG8qItHjaSi8fKMflhpXxb+PX7MHwW8HzaJ4dt/D8Ot6lJc68dZ1Gfxc0djHDbqJvtNtNZi1jlLFWlcSJAQpMbFwR0Wv8A7evx50qXxxpF/FpEGrf2rHa+EbaHSLy9kuIH1NrFbhFS+Q6uPJ8tj9la2McoKOrA8TfyJWHa2Z+mWo/AH4Jap4AvvhRqPhfS5fDOr7Td6W1un2acrt2l1/jIKIyn725Qc5Axydn+yX+zDYa74Z8WWngLR11LwTCbfQ50s186wj3O4jgOCYxumdsZHLMT9418s+Hf2vvi58WP2afg744+GkOkaB4r+K9zLaNca5a3D6dYNaWV9e3Be1W4hmzILFo44muAU3FiW8shvGPDf7f37Qfiy6uvGFpY+GbXw54Xk8N22tabKly+pX0mtXg02V7CT7QkccSSsJoGkikMqbY8bm30cyGqdU/VD/hTvwpOleGdFPh7TjaeD50n0KEwI8dhJHE0CPagj92fJd4wy4IVivQnPl99+xj+yXqXjeL4k6l8OdAl16OBrRdRawjNwLeR53eHeQSEZ7idtucbpWbGWNfmT4K/4KQftS+PYb6Tw94Ogtf7euLUeHbjU9JvLG2tlutWOnhbqU3Un24rGwnLQJApdGTALLX0j4M/bQ+Jt3+29Y/s269Z2t54f1G5vNGgv7TSrq2jbUtJ0tL29ddQlupIJVM6zQfZRCssWzLytg5LoPZVD7L+JX7NHwA+NOlaJovxZ8G6T4itfDu5dNhvbZJY7QlPLYQqRhV2KsZXGGVQOleleEPA/gzwJYy6d4I0u20m3mcPJHaxrEjMqKgO1fRVVQOwAA4Ffnz+zv8AtreOvi3+17rvwK121gk8OzafrOqaHfR6Zc2YaDRNQsdPlLXct1NDfed9tDDyre28kxlXVyQR+mCggDOcYwAe2OP6Zraklc56kpbMdSj/AA/nSUo/w/nWtTYxPxK8Of8AKy7ff9mzQ/8AqYyV++Sfdr8DfDn/ACsu33/Zs0P/AKmMlfvip4ArwMX/ABWfd5b/AAEMIJOfQ/pXyPq1hBD8dfFOpIp82TTdIhJ7BYnvGXA7Y3kkd+OmMj66YYbNfJ2uMqfGLxO7HAFlpjE9sD7T19B6nIxXLV+E5c6l+5aNUKqfInCjgDt9R6A9h2/UlRR3NrcZlgljdeWLIwYAcnJwSMcck8VI0iJH5xI243bsjaQRw24nbjJAJztGc9q4z46SaFwD1owB0qMvGAGZ1UMOCTxkDkDpuwQ2APmwMnpUr4iLNOfJA678DbkgYbdxkDsOpxjlqCLyEop2Cp2MBnAPHOATtHP681HJLHAnmylVRckljheM/eORgcZJz/OgNR1FPZHUiMKxY4AUrhicdMZz29ece9Ro6TIJIirqQCGU5BBAIIIPfvzwcigeotFGF3rFxvfIRcnLtj7oGc57+wBJpQyeZtjKyN1VRySc45UHIBJ/3RnFAryEopjSRxxiTcCvABJxuB6YzjvgD+Jm471I4AIBPB6HBAwTjIHUgf8A66AvISihGWcK8fzKcEbSGyGxt2lTyrE5VsnK0I0bsY94LDk7cZxnGQp52huM0BqFFGRx2JGSPxI/mDR/+v6e/wCHpQPUKKOSdqjJIzjuR/e+ntSq8bNtBBIwSOmB2JySRn3HPJHQ0CvISimqyvjyjuycDHQk8Z6nAAyCD0ZTShg2dpPQtxgkqDgkDvnrx70BeQtFMSRJo1eMqytxuRgy5Ix8pGcj0OeeaWSSOMr5hUCTIQMwUk4LYXJGSFBOBngE9qAvIdRQQA3ByD0OMZzyDjt6fhnvSgEkgdQMn6Dqf880BeQlFCnJwg38bsDnI6HnsOfrTI5oX3RxOJGjO1gCM5wM5H8PDA+uMHvQF5D6KiW4t33GJ0k2EBtrKRg4IyQ3DYOAp+ZuCPvVIM5wSDwCMehGQfXnrz06dqaGm+pi+JtH0rxB4a1HQtchW4s7y2lhnicfK8UiMjqfZlJBHTv2FewfAXVNU174KeENd1yZri9vdD06a4lc/M8slsjOx9yxJNeZ3RxaSkf3D/Ku8/Zs/wCTdvAQ/wCpc0r/ANJIq2w8Uj6jIZ35rn//1v6JtJGf+DhTxdg4b/hR2mY+p1644r9W734c+AtV8Sw+Mb7Q7ObWIZ4rpLx4E89J4IJYYpA7DdvjiuJo0PUCRgMAtn8o9K5/4OFPFy9v+FHaYfbjXrjn3xXR/tEeNfiP4f8A2nruD4dQw6prb32mW+jWt9LOtmt5J4b8QTxb1hdPlllgRHUnBUngsFI9LCfwkfH5or12kfo/p/wY+EOm21xa6b4Z02GC6NsZVjtURW+wTvPbblChT5Nw7ypxhHdmHJzXJ6H+yt+zb4Yt/FFvoPgPQ7KHxtv/AOEgjhsYFXUxK7s4ul24my8rt8wOS5IwSc/lB8Rv+CpPxh8RaHYeOP2cvDH9qaDrMd1qWlTtpM2oyXdvpdhbT3cDhLyzWCR7i4a2E/zCAQyF45DgCqv7RPxL8HfH3XvFnh+U29/qC67bWdnq7SvaWE19c+EIYpbqFXjzDaG6clUMbEM+118yulWehxeykup+uWp/syfs8a7480r4o6z4H0S68S6HHbQ2GpS2UJurVbJy1usUuwlBA3Me0ZXPGKgT9l79m+LQdT8NDwJoC6bra3SX1t9hh8q6F5L510svygMs0vzupXDOAxyea+Srn9pr9oGD9nLUNT09tAvfHel+OdK8D/2lHbz/ANizG/1izsDfJbC4aYLFHd7mgFyWSRChfAr52+Iv/BRr45/DE+HdJ1iw07UdS0jUvsPi8abpNzNBcxtrMelpLbyNfIdPSXc7hpEvAXG3aMZobsrsvkb0ufqfoH7O3wG8K+FV8D+F/B+j2Wkpps2jx2cNrEkf2CaQyy2xUDHlPKxkcfdLfMQTzTPid+zb+z38b9Y0nxB8XPBWjeJ77Q2ZtMn1KziuZLbcyOTE8inZlkRsLgDC45Ffl58Qv2sPjVoWta9498eT6B4x8JeB/GUlno7aFbXljdXFzp+katdXkLg3t0k3kmKO1EhARpvNOxfLAPYSftT/ALY3/CQ2vwT0/U/BeqeKtcutDlttctbG5k0y1tNaiv28qa2W+Lz3FubEsrrPEs0b58tNhLTGqm7Iv2Euh+iul/s5/ATQfHmtfFDSPBmj23iPxHbSWWq6lHaIt1e28oXzIppAC8ivsQMCTu2jIOBjN1P9lf8AZu8Qf8Iq+teBNDuj4GWJfD2+xhI01YSjxLaZH7na6I6hDwyqc5Ax+V3iD/gpN8VL+78AW/8AZkA0vxPp+i2XiCK006eVbbUvEEs1upj1M3YW1SECKZI5LWcyhgqupxtn/Zw/bc+Od18T/BXwYtfDt3qPha3TR9D1K7bTpZZZZ77ShfPqH9pm6CBYiQGgNo7SKrSCUDAGjiL2NTufqbrH7Ln7OOu+JNE8Va34E0O81Pw1cSXGl3MtjE0lnNNcfapZIHKt5bvcMZmIxmUlurM1eefCX9hz9mz4UQaxe2HhPStR1jxNeX1zqmqzWMIuL4X2oyansmdV+ZYpmXZu5BiUnkKa+cvB/wC2j8avFX7cOpfA2PwvO3g2w1258NtMmmyDypLWwivv7QfUzcNG0LtIIRB9lTazJmU5xXk+u/tQfH7wX4i8RaP8G7fQrfTdGbxj4o1o6pFdXs1zb6NrVvavb2p+1RiJ5opJG8wq0ayBQsZAbMtW1E6c+5+sV58Lfhfqk895f+H9Pnku7mS9lZ7dC0k81r9ge4bOMu1r/o7Mct5WFzt4rjfh5+zV+zx8I9Kh0n4Y+C9G0Czs7q4voY7GzijWOe6h+zXEyCNRteaLMbEYLLkHIJr8r/Ef7Yf7X/w5s/Ev+n6f4lu/EXxBn0Lw/HYeH7m9l0bT4dIl1Vmu7ZNRgN2HgjRUdZYArs7HzAyonZaT+2v+1t4z8DeIfiJouh6DokelN4U0m103Vbec3b6t4kGml2mkS7RI4YI7x2SNVLOWRd4MZEkuSWrJ9i3pc/ULQvg18KPDHiWz8ZeGvDem2OsWGnLolte29rGk8Fgp3LaJIFDiFTg7VIX24rA8Bfs6fAT4YW2uW/wy8HaRoUPitmfV47G0SEX7SbwROEVfMJ8xiS2QN75+8a/Kf4xf8FGfj38FvC62WrQaZqmveDdT1G38Vvp+j3MtrdWdjPDHHLCDfxnTFmWVlEsjXmx1I8s8muj+IP7Unxl07x5r+v8AjC40Dxf4K8F+M4LTSl0K3u7K/a7trHUL66tZGF/cLctbRRwwlzEscs7PmMeXipVWLBYaV9Gfq3P8J/hhLMbr/hHNPaTy7GIP9mUny9MeWSyQHgFbZ55mtwOEZ2KgZOeE8D/spfsw/DTVLvWfh78P9A0a6vru3v7m4s7CGOSW4tXaW3ndlXJeJ3ZoyTlWYsMEk1+esv7WX7Xq3mnfCy2v/BmpeKPEs3h260/V7Wyum0ywtdca8jkiuLf7YzTT232QyI63EQmBZQqbMNylz/wUg+Lv/CVfDDSv7OtJbfxA+g6X4litNOlmSHUPEGpyaWskd4bwC0WNlWeOKSC4abdsLowLm1qy3QqJbn6Yax+yp+zRrvinR/HWu+AdBudZ8Pyrc6bezWUDTWkyXBukkik25R0uT5qsp3CQ7h83NfNnwc/4JwfCL4ZePvHnjXxgun+J4PHkEun3VnNpNraRvaT3LXjJfGNib+YyEAzXH7zaoGR0Pxx+z7+3H8c9P8e+D/gtomg3ereGrCXSNP1S7fT57iW4bW3eU3v9pG6jSCOzEimWJ7SVpUjYrLHuwv1r/wAFFf2xvG37K/wwsPGPwmS21W6lsdU1mcNYPqvm6fpdp9rl2iC6tRAkwKx/ai8kcW4N5UvAqnpqJwmtLn2B4c/Z1+AHhrwzbeCfD3grR7TSLO2awhs4bOJYo7aWdbpoAoXAUzKJmXAy43EEnNUviH+zH+zt8W4Gt/id4G0XxAHvl1Nhe2UcqverBHbC4JZTmTyYkhDcttQDoOPz88T/ALcv7QfhLxd4p8c3+n6Jc+BNK1S80Sy0+K3uP7XNxD4fttZjuJ7oTmIRNNOYJIhaqyoonD4+WuJ+IfxX/bI1jxH8N9G0nxR4KuPFFvrt/cG90+3un0w2Evhe+vktrrTlv95nVlAjk+1bGXbOIgF8ornB05dz9cYPhd8N45Ypk0OwDQ6lc6shW3QeXqF3FLBcXI+XKTSxTOkjDDMrsDwxB5bwf+zj+z/4D8O3/hTwP4K0XSdK1SxGm3dpa2UUME1kBIv2aSNECmIiWT5MbT5jccnP5o/C3/goZ8dfih+0L4d8G2fhKU+F72bS9L1HytMlfE1/povJLuLUTeKiwQTHb5H2WRnQFvMX7oxP2lP28vjzofxl+IHwW+Fc1raQW+i6/b6PqD6PLMLXWNI0qPUHkN6b0RXJ2syi1+zIUbaTK2AKOYlU3e9z9BbD9hf9jPSvDdj4R0r4WeGbXStPvRqNrZR6ZAkUd3wPOVdoTeQAM4zwPQVtaj+x1+yhrZ8Qtq3w68PXZ8V3EdzrPm2ETi/njm89JJxtIdllPmjOcOd3Xmvzr1T9or9s/wCGuqa54i1jxZ4T8U2lh4D0bUrTTINMnslvNT1C9a2M0cjX0rLFgr5h+faSRlcADd+JH7a37Svw7/aB0v4KW8Ol6/cqtvod/LbaPPFaSeIrjTG1KJRevqA+zqRJbAWjxO7I4fzxu20RsX7OXRn6K61+zR+zv4l+E1n8Ctd8F6NdeCtOETW2hyWcP2C3aE74zHDs2x7WyRgcckYNeb6P+w/+zlpvxln+OF74W0u+1iH+y10Uz2MIOippdt9lgWycLmIDJwEwELZFfnZ4q/4Kb/G3xJomkax8D/D6Xdprk+prZXUGkz6uc+HbOxGq28lul5ZMGOp3UlvHL5hREtmcq24Eem3n7Yn7YHif4c678S/CGi6RpsC61p2j2GmPptzqmqQNPYJfXrNbxXlqLuSIubZYI3h2hXmMhWMxtTiQqM1uz9DvDn7Mf7OvhPXNW8VeF/BGiWOoa9eR6hqF1DZRJJdXcMhmjnlcLkuspLqWyd53ZzzVvTf2cfgFpfxbn+PGneC9Ht/G9yWM+upZQjUJPMiEL7pwm87ogIyd2SgCnIAFfAXgL9tf4u+OfF/hvxNp914bufB2oanonh+7tLeOQ6jeXmr6ZDfNqNjcNO0Ys0eQKkLQuz7JP3vy8frLhWZgMEfQ9+e/Tkn5e35U1C+hnNOO0jxjwX+zj8A/hz8QNT+K3gDwbo+jeJtZM327U7K0hiurn7RKk03mzKgkbzZI1eQFjuZQWyQCPaQOS3rnPrnJP9aX2ozW8YJbGMrvVhSj/D+dJSj/AA/nRU2IPxK8Of8AKy7ff9mzQ/8AqYyV+9/92vwQ8Of8rLt9/wBmzQ/+pjJX739lrwMX/FZ93lv8BDm6j8a+PPGXh3QPFvxQ8VeGfFllBqOl39lpkF1bXKCSGWJ/tW5HVjggrkEEEEZzX2G3UfjXw98XfHGi/DHxL8QfiX4kWV9P8O6JaaldLAheQw20d3JJtA5+6DyOQcVy1fhOPOl+6PyW8BfAP4wfCnwJ4X1D4U6a2hCLwdolrrGlQWqNBqF5dT3Ed99oGQC6q/zk5OX3clAR1lv4w+Leh/CH416L8Wo1TSdN8OQLplteWvl2UTTRzKlmscv7uZnTyh5aF1bI3ASSFB9b+H/28vgTq2s+JNM8Qai+jHw9HBOTekI0sEul2WorwdoScR3ar5WTnazetdd4i/ai+Bc+l+Dm1iZNT0nxtc3MFnI8aXFmj2MT3M32rcSqeX5ZJb++hbqM1xnzUpK2qPz1+IuvftN6x4ottU8Yah4itNN0LxU8+rXdnpwmk0+fyNat0jtI1Jea2MTWG4xGQB5GHH7wD0/46XP7UXiG28B6BqMd/b6rPY+HrqbT7G2R7S41WC5gm1RL2eMgQpAyZTuQrCLLA7frvRv20P2fNb02y1PRvEAvDeLJ9ihiz9puTbpvljiVGyHEQMhCniNlJ5YkXfD/AO1r8EdU8AeFfiBqOsjSLPxhY2N5p8d8vkSyrqE0dtAnljJ3PLIiKoIPzdwBuCOZdj80PBPxK/4KHnStD1TxQz3d7Lqs0YtIrS4iNxeG2jMltK0qRhES43hWl224RWdJCVi8z1GP/hpvx94Pu9Ohv9a1TSl0nXXu7fWdKitxfaig0iOG0QE+Z9nS4lv9pkUB2jKqjRhC30zo37d3wn8Tal4o0LwvPHNeaBNbRwLLP5MN7bXVlYX4ljmCMgZIdRjbywpO1QxI3EBdW/b6/Z603xHpunxauZ7G9lvIZL8IwWF7FIHEjoVZmgeKQzCX5diJ7YoHzLsfEujeNP2ivilp7a5a614gk0XTNetbnVPs1olukUUGsS2yW1m0ZJuIDa7JZ1APAGTkkLu2mr/ti2DQeBvCcl7ot7iGA29vp8f9n2ely3duDexnO1roSPMHi67c7uAK/RTxX+0n8C/hX4ruvh94i1qDSrvSLV7u4ijQJFBmM3DQ74/kExiJlAQBjlSOoFZ1n+19+z/J4bk8St4kht7O3IWXzsxtBIIZ5SroWwjqlvKGyPkIwT93IHMux8sfFqL9o2w+DWg6hpjS3HiPRL/xPbNq0lq0tzBYxTXMNlMfJEsoaW0WLeY43dlJcBmyDN4ytf2jfGmkfDLVPDRudG1fU9AtrfW9UNrG17bifUdNa4j+Zk2b4BM+EI5QEAMnHvr/ALb/AOzPHYDVovEaSYgW8McaZkjUzSWyqy7gFbzYJY9u9fmVucDne1r9rL4UeFPida/DbxNeCxTU9L07VrW/JP2aVNTuLmBA52r5YVoI037skyoMLtJIK67HwrFqf7VPj2+h0Xx1/bEur2+o6JdS2CWUCabHbWWuaY1tem43CQTywx3Ek8ahtuWEoWOOMyOsvjD+1n4k8UeDLiS31Oz05NQ0fStShezKtd3P2W2TVPVPKSY3LkyKkJRS0bM4jjb6j8Uft+/AzSLBJPD1zdaxciLUpkjhjwgbTbVbt2kckBFlhkRoZMfOpDdNwr0BP2x/gZH8I7X41XetyRaJeXa6YpUF5Rd+Sbj7OI+rMkKtKAcDZlunFAXXY/O64179vLwf8GrbRNEs10e08Pab4fLzfZnQLbXltCblYY7ZJblXsZbeeJo40YqJIyo25C+kePLj9q7TvHfgnxdZrfjxfeeDrGB4bK1WTS7zXRcJLLbXkvBggMZmYOwRADzh1VT9g6P+2b+zjr+naZrOi+JoGt9W1BdOtJUJVTLKkUkTq33xDMlxC0ThjnzB61Faftqfs4X1lY6hbeI08nVLmeFDsPyiEQvJcEAEiFRPb7ZQrACdCVyeAOZdj8/vAfj/APbouLGGT4nXeow2j6pdx2z6Lp0kt22phbQ29jLFdiFBavI16DMWFoCqjfgIxktvjr+3BoX/AAnuta7o+o3enpe6ra6JFa2cj3BvJ7e4GmxKjquEFxDGvmZ8lfMyW2kkffPjX9rbwP4c17StC8PNFqJ1KETzSPcC3W3hZrQqWGG370ulkQcZZQuSGIDIv25v2Y7nSk12DxTClu90bTcwCsiKkbyTHdyYVR1LyEYIfoeMA+ddj88viZ8Sv2/LGTxJZeBZpHSLX5oVuLu1n8mItC5063URw+Y/mS+Sshj3QbPmmZXd1T668c+G/ii37YPhrxjCdQsfD6z6bDqL6egC3c09lqkYjugmS8MMrQgMEKxbi2QCWP0H8QP2qfgf8KPE934L8beII9O1PTtPW/liIIYW7SJEqoMg5y8bYHBVsnGTXC6j+2p8Em1vwn4V8NX39rXvi/UbPTo7eM4a2+2XMtti4yCFkSW2mj8sgbmiZSy4IIEbPoeFfDLUvj/o37T58IzQy2nhe/k12RLe3tfJtkL3moSRXckiAwYkAtgxEnnl5AwjaJpXTyPWfjF+1zrd1pU2n2mq2drp2qWmnXUZsGJu7hVXz0iKcbATKEMmy0bkvKFWMt9aeHP26/hZf+KNY8O+OHPh+Oy1690LTprqcbrw6bKtvd3RhKr5UMdw6wD74zImSuSoWf8A4KBfs+apY6pF4M16HVNYsLG7nitpZTaxzG2tprlUM5DqiSx28rqwBykbn5QvIU0ux8e6hr/7Wnwn+HT+MLu/m0TRbG0js5rAW0EMGm2UX9nGa5iZ3RRMFkuyqkqFYYwTgV2vw11PRv2g/CvwP1T4tX39rf2trfjWy0y+vTBDcywj+0rPTpYmV2Xz3s1Vo2Ri7fK4wwOPqDxH+2J+zxc6dqlrLqWn3+kaRd3FprRvWWKCC1sobuS6uAjRyCdIHs5UdSoCurEEFADo+Hf2mf2V9avvC/hHRb+wjub+eWLSbE20UbW80ZaIgRHc0EjlyFKjkkjOMgBN12Pin4VeNP2pviH4nHh7wlrurf2TF4gmsNZnuLGNVtLez1cQWsVpIcBhcabHIZZo/uYVmHmHYtuw1n9trxnNLpuj6xq1gsNxPNfyyafGrxanb2uoS/Ybcb/mthIlhiVDsbe6/wATqPtnWf2wP2cPBmu6r4P1PXYLW50MyiSEIU8yRLuG0nWDO0OyXtykTgLzOQD6ho/bV/Zsl1O70lfFUEkmn2Ed9KygsgiaGKdI1HO+Rop4XWMAKQ4b+9QF12PiK+1z9qvwvqOrWmn3+vG5vvEF7d6dC1st5A15cwWbabZu7MwSwZjchiQEGG3kMsYbT8deJf2mvDWveHNc+FGm3KL4y8X31/qsDwTMklul9DpkcZAGFX+zLcXIE/lrzw+4qh+nvDH7fv7POu6d9q1jW49F3tqIjhuHJzBYLL5pmBKlC3kzHZgj90wyQOfYvAf7SHwn+J3imXwZ4L1f7Vf/AGNLvYQU3QsBjDO6lmCEP8wKhXU9lwA2ux8RXXgm18GTfEPw78C7C31O403X/Dcr/cupDPbWiq802SHM67ELNIPNX5WJJ24+rv2YoPjPp+haxpPxn1KfV7mG4s5bW7uIkiaRbrTbS5uQNhIIjvJZ4xnkBQvQDH0hZ6fp+mzTXGm28NvJcSedNJAqr5shAxKzKAXYqFG8kkgD0q36D04poyqTjbREF1/x6S/7jfyrvP2bP+Td/AX/AGLmlf8ApJHXB3X/AB6S/wC438q7z9mz/k3fwF/2Lmlf+kkdb0D6HIVZyP/X/ok0sM3/AAcJ+LwnUfA3TCB1z/xPrjt1/EHiv1muvh74E1DxHF4wu9Fs59Vgmjuorx7eNpkuIYpYI3EuN4eOGeaNW3AhJXUEhiK/JnTOf+DhLxcGGVPwO0vPYf8AIfuOp/zmvTvjr8VPjD4b/aQn+H3wP/sjT9c8U6z4f0JtU1e2uL+CC3m0vV9Qll+yRz24kcGwCKqypnzCzZ216eF0pI+PzON67R9k+KP2W/2bPGHhDTvAfivwBoGoaHpF1Jf2NhcadbyW9rdTytNLNFEUIjllldndx1ZiTnJz1OufA/4L+I4NTg8R+E9IvU1qG4g1BZrOF1uIbvyvPjmBUiRJRbw7w3DiKMMPkXH456l+178dL7Qdc8c/DXUfDfh74h6taeEdMhi1a1uLy01PWLptVtXgjQXtqLaNXtpbgy9Vtg29WYDEnxf/AG5fiN+zhoNxN4ItbWa4j8T+I77WIobCa/W4tLHUba1lImkvoBYrLJc7/PxcqhUJ5BDAjdSMKmHaaP2L8PfBb4R+DfA2n/DLwl4W0zS/Duj3EN3Zada2kS2tpcQT/aYp4YlUKskc48xHQArIA/UkjlPFP7L/AOzT451q28U+N/AHh7VNRsbiS4gurrTrWeSGWaTzndXZGKs8mHZuMv8AN1JNflwvxe/ad0+1/trWtc0Pxb4hs/iT4y0/w5bfYprT+zrey0TxDc2yXQiupBKsiW0aRsyqojbgMdrVznxH/wCCofxy1mysvHX7Pnh06joGr2mpa9pEi6Wb17/TdPEKC3dmv7NYJJpTIDOPO8pVVTC7AEHMS6UrH60+C/2Wf2afhzqtxrnw/wDh94e0S+1C9bUZ57DTbeGSS8fziZ2eONd0hM8p3/eBkc5y7Z0Ph7+zh+z78J7WOx+F3gjRNAhF5/aKrp9jBbhbvyjH9oXYgAkWM7A3UIcA44r4l/bG/aZ/aa+GPjmLTvgdHoVvY6b4Vj8SX1rrVrLPcXUtxqcGnx20ckdzEsARZjI0hjl3FdoVc5rnG/bZ+L/wzk8beCfjHd6BLq/gPTPEslxqNvA9nZ3l7pmmaXq9ikUM1xI6A2+pqjxB5GYxb1YZIp8y6ISpSvufdNz+yr+zLf8AiPSvG918PfDkuraFDDHpl8dNtmmtIrcsYY4JvL3RqhkcrtICFmbAODWxafs6/ALTviBpnxTtPBWiQeJtFtRY6fqiWMKXlrAI2iWCOYJvjQI7KAGwVJH3eK/I3Sfi7+0JcfFRb7TPFWn6b4W1a78UXms6Ve2ss0l5LDpen3Edra3Iuo2tyRM/lbVd1+ZlDbWFfQfiD9rHx54D/ZT8OyfDvQJ9B1OO18B2Nvr2vWjt4bJ8SahpemSPDN9pE0/2aO7ZyjMpyo+c8uq5yvYzkrXP0Ai+B3wXtfihJ8drXwppC+MZ4Ps7a4tpCt+8IwPLNwF8wrlVHJxwOuADpH4R/Cx3vJp/DOmubyK7trpjZxEzxX0gmu43O351nlxJLnId13Nlhx+Ouu/tZfF/w54k8Q+I9c1Kxv8AxP4W0+98NW93pVpJLp9/fNqlhDb3UGmvdgM4S82eQ118zoUEw37h1vwv/wCCifxi8V6F4Q07xDpNoNc8dajd6Dozmza2L6joev3Wm6mJbb7VcNGZLCEXUaiZxCVkVnkA3U+a5Dw01qfpR4t/Zc/Zp+IEWtWvjvwD4f1hPEhs/wC1zd6bBMb19PQpaGcvGTKbdG2wlslFZgpAyK7ix+FfwxsNOm0uz8N6db2txLZzyxJaxmNpbCOFLSRgFAc2ywRCJsfuxEoTG0V+Lfw0/wCCiP7XfxS8Ix3+l6BZ6VceLL7w2ui3uqaS8FppkWt6slg9vIseoSPqMkULiSOQGz3sjqYhgivob9sL9s/49/An42aZ8Lfhp4el1+PTPD9jrurNbaV9rXUftl7PaG1ilN9B9hYG1fDGK6OZVUoNq727LcI0pM+5PGv7L37NPxGvE1Tx/wDD/wAPa7cpNcXKyX+nW88omudguJd8qkkyBE805y+wE5IApfB37Ln7NHgLxDd+LPBHgHw/pGq398dSuryz0y3huZr1pJJmupHjQMZjLNKxkJ373c5yxr49/aa/as+Nvws+NXiTQvBWoeHLXw94C0TTtev9N1KGWTUtYW8uZYntLF/tMK28m1AsLGOYSSMsYRc7j826z/wUc+P7/Ejxz4D8G2lhdIkvkeG7m902WC0gMPiG30KfzJ1vpG1BUMskxxHZbWQx7SAGMproi/YTXU/WH4f/ALNv7PHwstZbT4beBdC8Pwy30epyx6dYwwKb2IFI7jEaL+9RThHxuUHAIFVtQ/Zd/Zp1HxRpPjvUvh/4em1rw95a6bfy6ZbNcWhhla4jMErJvj8uV3lTYRtdmYYLEn86Nc+Nv7a3gT4g+P8Awlf+M/C2r3r+MvCnhvSLaXR54E0+LWrawNxeFPt5knh3SybI96ZlB/efKQeA1P8A4KI/tQWPj7RPh3p3hxNYvNDt4j4kk03SzLBqd02tX2kSx2k8l/CbAKNPaVf3d65M4QoDGrO+YPYy6s/Vi4/Zn/Z3uPF2l+Pp/A+hf21olu9pp9/9ggM9pA4dXjhk2kon71xtXGS7Y++2cG8/Y/8A2ZNZ+FfhP4J+MfA2j+IPDfgq0hsdIstVs475LSCGJbdRF5wfb8qqrMOqjkdx+dHiL9tL9q3w98MvDXxl1a58O2Oka1q3iG5uGTTJrgWOkaNci2hE5a/tuJFWWSe9GVtxsAtZid1eeL8a/jf4I8Ea34W8eS6TrPhTxPr3itdHtRFcJfWh0nxJHlrq6W4zMkgmKJFHHCYViU5dSQq5yZUdbpn7VD4WfDOFWVvD2nHFw12y/ZYyhufIFq8pTaAGa2Ah3t/yzCqSR15bwD+zh+z/APCfS49F+G/grRdBtbS5nvUisLGGBBc3EP2aeZRGi/vJYW8t3ABZMr93r8SfAD9q742ePPjZYaL4vv8Aw5e+G/Eninxp4YsdN02GRdR00eE7+/torm8uDcSCQXEdmC6eREEeQYdtyqeIk/bP+PyeHrzx4ur+EFtPFMk1roOmTRTR33h911e202O41UC4P2uGNbjz7nb9m8sqFUyByyiY3CT2Z+jFp+zj8AtP8d6b8T7DwVosPiTRrYWdjqsVjELqC3VGiEUUqoHRArsu0MBsLDoSKI/2evgHF8Srn4yx+CtDHi69V0uNZFjbi/lV08tw9xs80hkyuCxBG0Hivy38Sftk/teQWmqaL4Tu/CV1f+BtP8T6prWomwna01dfD01qqQ2USXmbRrmOd/MkaW5ELIRtfI2+w/tvftyeMv2fvFXhCL4dQJfafdW9pq+sW39nm9aTT7y+gskUXH2uBbLJckSmG6BIwYlGCG5BGlUPtyw/Zm/Zw0y00mz0rwFoEUWh2klhpsUWnW6raWdxKtxLBABGBHHJKqSMi4VnAcjcM1oXv7PvwE1H4nw/G3U/BuizeMYFjEWuS2EDX8awgJEROV80BFIHDDavGQBX5Z+CPin+2zqPi7wlpviD4p+HJba5+JniDR9Ti/sN1f8As21uLwW1o2+/bY8scaG3kxkAqcSgENFbft0/tR6l4f0S+0ybwtf33xL06w1bQbWO2m26Al9qthpxstVP2ljdTCPUg6Oq2gd7eRfLyTtVynSn1P078T/swfs6+MfA1p8M/F3gLQtR0DT7t7610250+CW2hu3LtJPHEy7VldpH3uoLEO25iGNb/in4FfBPxz4XvPAnjDwppGp6JqN0l5dWNxaRPbzzoqhJ3QpsZxsA3sCwAzniviCH40+Ofhz8CfG/iTQX02DxKfiN/wAI0uoTxzNp8Vxf6ta6Yb+eBrjd5UPnGUwi4jDbPL8yNd7D5o8T/Hr9qLwj8ZNU+J2meJPCurw+CfA8V34kFjDcT2epwWeuXayfYI/tI+w3MsCsWdjcqrhF5XGDnIhS1u2fq9pv7OH7Puk+NNH+J+meCNCt/EPh+wh0vTdSisII7qzsoY/LitYJQm+KGNCVSNWACkgADivbY1CrhV2j6Ffbocnj8vSvwq8T/t4/ED4Ht4U0vwZYQPpt14v1iDXLVbN7wtFeeNptDhP2ua+hazyJGuN4hulYxmMJGvNbHjf/AIKM/H9NBl8P+CdHt38QaHf2vhPXru30572O38Ry395BP5VpJd2he3SCwMyxtcIxjvbZvOznOkJ6mcqPdn7g0V4D+y58UfFvxo+AXhj4m+O9KfRdY1azEt3ZvH5RSVWZGYR+ZMY1fbvVPNfCkfO3Jr36t4zuZSi1p0ClH+H86SlH+H86KmxnY/Erw5/ysu33/Zs0P/qYyV+9/Za/BDw5/wArLt9/2bND/wCpjJX75KBtFeBi/wCKz7rLf4CEbqPxr4w+IvhnS/Gvjrxz4M11Wew1jR7SwuVQ7WMN1FeQyAEdDsc//rr7OkyMMBnHb3r5Q1tl/wCFy+Jk6EWel5Htm5IP5/yrlq/Cc2cxfsXJHyR4t/Yl+HHxC8Fz+CvHmo3Wq/bLs3808ygmS5/siLRVdo2O0j7PArcj75NbKfshfDs/Crw38JvOaGx8P3FxcMbaKOCO6F9b3FtexyW6MI0juI7mbKAYRirgbua+sj3HbpSHnrXGfHurI+G/ht+wR8KPhheeGdZ0m7nW+8JXVxeWEkESWcayXaeRcu8MOFfzbcLCcjPyrJ96tXxn+w38LPH/AMMPBvww8YXuozW/gOyuLDSrmNzBcRxS2zWltIXUgmSzjZXgcnPmIHyDk19njg5HWgfKcrwf/r5/nQHtX3PkfUf2LfhBf+Hl8JbJ4dNS5S4+zI5EZEel2ukCLd/Cht7SPjsc92bNTT/2OvCraRPoPijxHqutQvZXelWou5OLawvUhQQxIGADIsWBJ95mOTyK+wtq4xjtj8PSnEk5yeuc/j1oD2r7ny98QP2YNI+IPi3WfE134h1SwttdgikuLCzl2Rm/tolhtbzfuJZoURWWI/u/OUORuCkcJq37BHwf8Sma78cz3es6ne6XqWm391L8i3balKk01zJCPkDoYYxGcbY0AVQBX2370dgPSgPavufDel/sHfDTRvhVrXwz0m68htegtxeTpZQLE0ttcXF3v+w7fJw7XTbkC7MBQB8gx13jL9kHwd4z1Wzn1TW9T/s2PSbPRdTsi29NUsrGSaaETv8AeVmkuGy45YZVsqa+tcDgenT88/zowP6/pj+XFAe1fc+Kj+xJ4Tk0ySz1XxHqd3dtvt2uJdjN/ZpsBpw08p9xkjgVR5n3mdTIfmYmvaU+A3hCC5hu4prgNB4gfxCgL8/a2sZNO2Ej+HyJCQfUe1e2gADAozkYPpj8PSgPavufBHiT/gnn8HfEdz4club26SLw2dKEMTBZAU0gWwtSrOcwy5tY98keJGUlM7WYHU8HfsNeF/A11FP4Y8U6rZ/6XdPdLbhbcT2l0LTfZlYziMM9lC7zj95I5kZyTK5P3Jk53d/X9KTsB6dPbr/ifzoD2r7nwzof7Bfw802aS41TXNS1N2lQw/aHwIbeM2zQwhQcEILaMeZ1cks3JNVfHv8AwT4+CfxCOkSa2pnl0qGG1jFxbx3SvbraxW0sO2XOx5kt0/fJiVMfKwyc/eGOAOw4H86D82c856+/f+dAe1fc+MfiD+xB8MfiR8eR8fvEF9cf2hDHAsMYVSIzbTw3AYzAlmjLWyEw52IxZgNxJrW/4Y+8IQ/ESz8eadrWo2ccGrrrt1pqsPIuryLUb3VLd5MfOqxTalcAonyyqy+ZnYuPrnc2c55/w6fypBwMD/P+c0B7V9z4x+JH7DXwd+J+t6TrfiWPz5tJ1HVL0JNbxXBkTWLyG9u7ZDJ/qC00EZWaPEkaqVUgMc6mu/sZfDLX/Dk3he6urs29wGVyrYPz6beaZ2Y8+RfSYz8wwuTwMfXXbHbGPwo9qCVVfc+Q/Fn7Fvwt8YaWul6jc3aQi31CAFGK/Lqj37zNkcgq2pTFfYAdhVHW/wBhv4Q678dYPj5qC79Vivl1CZZoIpd7wRQQw+U7/NB5Yt1b93y+4g19lZ5zSdAB6HIx60Fe1fc/MLxH/wAE/dc+JPxb8U6n8TtYtD4TupL+fQbCLzbs2t5qGr2mtST3FtcqsDbbu24iBK7HbPv7ncfsQfCVPCdp4X0aa505dNuba/sJLban2e7tLFLG2mhQEopjKLIEPybwQeGNfZIAAIHQ8frn+fP1pSAc5HXOfx4P5igftmfnbqX/AATX+DviHVf7f8UajcarqFxbX0F9e3cMT3F3JerOnniZvmtvLM8hRYiF4QYwor6FX9nHS4fjdN8ctI1u6s7ue2t7R7eCJFEkMO35JZEO5osD5ITlImyygFmNfR5JLFieSc59/WkPPX0x+FAnVuHYHOTgZPckDH/6/U5Peijp0opozbTILr/j0l/3G/lXefs2f8m7+Av+xc0r/wBJI64O7x9kmLcDY38q7n9mr/k3fwGRyP8AhHNK/wDSSOt6J9Tkaesj/9D+iXSjt/4OEvF7j7w+Bmmke5/t644r9ZbzwF4HvddXxXc6NZTapDLHNHePbxtOJYY5YYnWQgNvWOaREbdlRIwH3iD+TOlgn/g4S8XLuxn4G6YOoHXXrjv1z6Yp/wC3j8cfiwPEPiPwL4U8QaR4d0LwzqXg1brT7yF5NQ1j+1tYtFZrGdJk+zxwICjKIZg7oxPl8sfTwr/dI+RzGF67P0S8Yfsr/sx/ES0i0/xx8O/DWtWsDLLHFfaRa3MYaPzQrKJY2Rf9dLxwfnf++TVrxP8Asvfs1+MX04eM/h/4c1P+yZ5LqzF7plpceRLO6vLJFvj+RpXjRmIwWKLn7oA/HnTv20vj98d4tf0bxholzpegXGsafPYyrZR2klktr4ptLIW808V5cvdtcQ4dpDb2oThNjY3ne0/4i+Pv2d/2avhx8VfhMLy88V/Fe10fQbu7e2GrQ2K6Raajei4NlPe2MbySh2heRruP/lmSW2Kh3ucbp9Ln7J2Pwh+FNj4ofx7p/hrSoteubiK6m1BLOEXL3Udq9pHM823zGdbaWSANncInaMHaSDy3iH9mr9nDxXoWi+F/EvgLw/qOl+HZnn0qxuNNtZIbSV5BLIbaJ02RMzjewQBi2CTX53/DL9tf4/8AxBns/HettoXhiw0i30a31TwhqcTrrGpT6pplvfNNa3KSyeVsa5SNIfImSR4nV51XLp5pJ+3B+1YfAaR6XrXh3WdT1rT9B1+O90rSjN/ZVprEN+0mnNYy6jAt5eWzWse5pLq2/du0hhVgsbjY1S8z9ntZ8BeB/E12+o+I9HstQuJ4EtWmuLeOZ5IRIsyoWK5eMSqJAv3Q4DYyFNcJ47/Z2/Z9+KsJtfiX4J0HxDEbz+0Hj1HTrW7U3gt1svPbzY2Uy/ZY44d2N3lqqZ2gCvyS1f8AbO+JnhtR8Rvh5daNaaVrupWOoa9qQtXvY57SXRdPufNWOW7tWhgYSNvuI/NeJFAFtKwzVXxV+19+178KdE1XRG8RWnizWdd+IWt6TYSWGgrO2jadp0FzfQRT2kuqWwm+0xRxrFI1xF5abmCyNhaEwdBs/ZHU/gn8FtchtINb8I6Ldrp9/wD2pbRy2EEghvfLMDXUQKHZMYi0fmLhthKk7TiuY+Mv7Pfw5+OPwqg+Cviuzt/+EcjvtGu2sBbxy2zRaNfW1/FatCymIwubVYmXbjYSuORX5jaV+1h+3N8TdbtbvwbL4b8KabqGv6B4V/s7UdNlvbyzuNX8O2WsTXzyRXcSSiCa5MYttqB0GTOrAhs+1/4KS/FuTxv8KIriK1l07XJ9D0nxFDb6eskLXus6nJpYnS8e8SS1jGBMka2tyHx5TSxElgcwLDS3ufqZH+zX+zkvgdPhqvgTw7/wjgt3tF0tdNtjaC2aT7Q0SweX5e1p085htw0gyQXya5PT/wBk74a6L8SPBnizwtDbaJoXgCG9/sXw7p1lbWtha3t+GjnvIwiK4cxu6bPu5Yt1Oa88/al+OHj/AMPar4M8EfBTxL4f8OyeKoNUv/7d1yH7bp/k6XFCy2ypHcWylrkzjbKk3yLGzCOTkD5P8X/t1/GnR9a1bxtYX/h1tE028i0RfD8UMkt/NcTeHYtaGrQ3rSxN9iR5jCImsk3pGXMylilHOV7GWzZ+lPhn9nX4CeCb3UNU8KeCdC0q51a9t9RvZrXTreB7i9tZPOt55GVFZpYpS0iO5Z1Ysw61t+Ofgr8HviZrmj+Kvib4U0jX9T8OTefpl3qFlDcTWU29H3wTSo5jYyRo2UKnKowwVFfn5oHxi+PfiP4MfFLwf8cNQ0u51my8C6X4rtLrQ7aSwSCHXodRjW1IeeZne2k098S7k8xHX5EI3Gp+z3+1B8Wtf+KPg7w9qWp6Nc+Gta1e/wDB8WhxwsNYsTpGmXNyNVnu/P8A3kNy9mY1T7NGENzEfNkOMnMQqV9mfY+s/snfA/xb8cG/aC8eeH9O8QeIIYLKOwm1Gyt53sGs2aZLi1kkRpInMj78qQQwBGCK6jSf2Zv2cfD/AIi1Lxho/gLw7Z6trMwn1C9g0y1S4uZfOFyJJpViDyMZsS5Yk+YA/wB7mvzS1z9tj4/6d8UPFnwxv9X0HR5b/XLXS9AurywH2PTrWa7kt31CeYX7NexgIsbo6WW24dEDbWDjS8U/ti/tBaG9ssXiTwjcnwnaxXOsmC3mZfE4fVZdNaPSj9oRrSVEh3yEC6VZmEIdlxILasL2En1P1F1H4S/CzVvGbfEbVPDWl3PiBlt4zqb2kT3eyzkM1sPPKeZiGX54xuwrHcuDzXP6x+zz8A9d8QaV4u8QeC9CvNT0C6lvtOu57C3ea1nmlE0s8Mjxs0ckkwErMpVjIA5bdzX5Qj/goH+0FoHhW9+Jer6j4Z1u31u48SWWn6LY20kd3ocmiXk9vDeahKZpPOhdYf3ieVCUd1CyMuSPoq1/aj+MPh34F+PzrOr6FrniTwf4lsPDNv4ls7aSDSJv7XjsJI7+a2WaYiGy+3lLgJcHd9nYh15AhtDjh2up9q+K/wBnv4DeMtJ07Q/F/gnQtUtNCnkuNPt7vT4Joba5lbzHaFHUiJpGw7MuAWOSSTW/ffCf4X31vFbX/h3TZ7e2luHjSS1idA13IJblgGUqGnmUSS45kcBmySTX5T/sf+OfGeqftV3Hh34h61pnirU11LxrA2s6WkltbstovhsKsFs088UQcXGHXdJ868OCzVzUn7ffx/0XxJFrmpaz4YudM16WeePSYrR49R0O0tPEllo8q3s5uWWYNbTSSvMYogjghQypvKTK5G9mfpb8FP2Tvgd8Ctf1bxz4S8PaePFGvajq2oX+trZwLqM/9rajPqksD3Kp5siRyTGNNzE7UXPRcdKv7NP7PS6h4j1f/hBdA+2eM4Wg8QT/ANnW+/U45TvkS8Jj3TBmO8+cWBY5IyQa/Mv4jftneIZfi1r+t+CH0aeXR59a8O6Pq8vmSWdsoutChN1dhJgs0UD3chkIK7vLUb1B3D5t8T/twfHn9nfQfHEtr4h0zxV4gi8Xa3e3tzpelC4tbuw0bTNGgkEVvJqUIsVd7yJ5HSW7MbucRyhiVdyfYS2Z+7nh/wCBnwX8JeHY/Bfhbwho+m6RbWdxpsNla2EENvHaXT757dYlQKsczDfKmMSMdz54qDx38AfgX8VNU0rW/iV4J0TxDdaKoXTp9S0+3u5LRcggW7SqTFyvAXHPI5GD+WfxP/bb/am8P+HtT8T+F4rA22ueP7zwboKWOmJfT6fbaZZXl3Jd3Im1GyguGuDbpCkYkhEYJkDSOREfTfF8uqftcaD8HPD/AMT7O78Pt8QfC/ie21W0hcQTIZrOCIyRhXYRsDmaH5j5Z43P/Ec4lQad0z9Abz4DfAnXJ73UNZ8GaHdTanqNtrN281hbuZ9QsgBaXkhKHzLiAbfLmOWTGUIzk1vDn7O/wE8I6jqeu+E/BWhaZe6vex6jqVxaafbwyXV1DK08dzNIkal5I5ZWmV2JbzCzA7iTX5Tz/t/ftPyfFLxvDofhzf4a8P3XiCKMXOnCNba28MXIhubk3iXzz3TXtvFK0SNZQbGdPncbc7utft5/G3xNoq/EvwHqPh3QvDsOn3viywj1e1kml17RF1GSysLa0kW4j8qeWCEXTyqkpX7RCgjYEtQ2i1Sn3P1o1b4Y/DbxH4V1TwPr/h7TrvRdaMzahY3FtHJb3ZmYtK08RUq5kJy28EsevSsbR/gb8F/D/h7/AIQ/w94R0ez0lrD+y/sMFlAlu9jveX7Js2bPJMju5jxtyzNjJNfk/wCGf2y/FHwe8DfF57ye0tZdIt9W1/Q49Tb9/cajca9qdobXO8K4hEVsnlpjaXGWwQBY1j9pX4sXvxJ1nW/E2s+H/HfhDwv49Ww0eLSbNrG9S5tNP1W4uoZAt7cmYwtFFbI7IoklWVtu4BUG0SsPNbn6e67+zX+zt4v1TTPEPinwD4e1O80aaW5064udNtpZbWWa4N7JLAzxbome6zOWUgmX587ua2fEfwO+C/jTQNb8M+LvCOjalpviW8TUNWtbqxglhv7xY4oVuLpZEZZphHDHGJXBcJGi5wqgflRpf7XH7WesweG/AOjeJ/COq6/41v8Aw+9vrNlpsr2Oj2+tQXk09nPa/aybi4gNsPLYzQmRWYuiFV3czpf/AAUY/aY1b4qeEvBOneHVvEtrPSV15LGwikj1C7vb++0+5e2uJdRie0jgOntIqC2vC+8hmj2qZBVF2BUn3P228OeHvD/g7w/Z+F/ClhBpelabElta2lpGsUFvFHkCONFCqqqBwAMYGAOlbAYnGO/YdOnXJOWHPUZzxxmvxy/bB+Pvxhb4p3OgaH4h0fSvDfgzx/4G0mbRpoZDq+sm+vNLvWubS6WdRHEv2oW4iFvKHMMpdwCwPh/gn9sr4/ftAafBa/EPSZ9J02fxF4X1PT5ls47D7MLrWHt20+Vo728e5wkSu00kduzhmUwLkMWpkTwx+/6lsn04OTjPIHBwf5DHpT1zn24/nX4Qfs1ftvfEjQfGP7P/AMC7Vv7Q8M674d8L6FfM1kkki6he+HJNUM7ai14ZfMVbdcxGxdHWQsZ1bAP7uxNujX8PoeeoBJIHpk59h3rnvoRUouKufib4c/5WXb7/ALNmh/8AUxkr98k+7X4G+HP+Vl2+/wCzZof/AFMZK/fJPu15GL/is+zy3+AhHGcYx+PpXxt8V9E8R+AfirN8Ura1uNU0XW7C1sb+O0jae4s5rJ5TbzJAmXkjfz2SQIrNnZkbcsPsyo3TcQeOOfxrCSurG+IoKrBwkfCDfFvRFOG0fxEpOThtD1HOMnnHkcc5GMkccEjkp/wtzQ/+gR4h/wDBHqP/AMYr7vijEQ2KAF7ADAqWsvYo8p5DS7nwX/wtzQ/+gR4h/wDBHqP/AMYo/wCFuaH/ANAjxD/4I9R/+MV96UUexRH+r9LufBf/AAtzQ/8AoEeIf/BHqP8A8Yo/4W5of/QI8Q/+CPUf/jFfelFHsUH+r9LufBf/AAtzQ/8AoEeIf/BHqP8A8Yo/4W5of/QI8Q/+CPUf/jFfelFHsUH+r9LufBf/AAtzQ/8AoEeIf/BHqP8A8Yo/4W5of/QI8Q/+CPUf/jFfelFHsUH+r9LufBf/AAtzQ/8AoEeIf/BHqP8A8Yo/4W5of/QI8Q/+CPUf/jFfelFHsUH+r9LufBf/AAtzQ/8AoEeIf/BHqP8A8Yo/4W5of/QI8Q/+CPUf/jFfelFHsUH+r9LufBf/AAtzQ/8AoEeIf/BHqP8A8Yo/4W5of/QI8Q/+CPUf/jFfelFHsUH+r9LufBf/AAtzQ/8AoEeIf/BHqP8A8Yo/4W5of/QI8Q/+CPUf/jFfelFHsUH+r9LufBf/AAtzQ/8AoEeIf/BHqP8A8Yo/4W5of/QI8Q/+CPUf/jFfeLsFG4nAFVvtcJYqXGRzxz1+gNHsUH+r9LufC/8AwtzQ/wDoEeIf/BHqP/xij/hbmh/9AjxD/wCCPUf/AIxX3T9pi/v/AOfyo+0xf3/8/lR7FB/q/S7nwt/wtzQ/+gR4h/8ABHqP/wAYo/4W5of/AECPEP8A4I9R/wDjFfdP2mL+/wD5/Kj7TF/f/wA/lR7FB/q/S7nwt/wtzQ/+gR4h/wDBHqP/AMYo/wCFuaH/ANAjxD/4I9R/+MV90/aYv7/+fyo+0xf3/wDP5UexQf6v0u58Lf8AC3ND/wCgR4h/8Eeo/wDxij/hbuhf9AjxD/4I9R/+R6+6ftMX9/8Az+VL9ph7tn6//qFHsUH+r9Hufn5r+v8Aif4paRc/D/4ZWGr6fqOqxNA+pXllcWKWFvJ8kt0rXMaK8sYbMSIHYvtyNu5h93eGNG0rw3oVp4c0OFbey0+CO2t4kzsjiiUIiL14ULgDqAOa1N8UrgqQcA8fl29qmRArEgdQOfWtIxsehgsBGitD/9H+iLTF3f8ABwn4uwcf8WN03nJXGdeuB19uv4V+oPjH4GfBb4i+MNO8efEDwhomu6zoqD+z7++sILm5tdriRDDLIjPHhsONhXDcjmvzB0rH/EQp4v5wf+FGabyOo/4n1xzS/tAfG/4pfCL9r3x14g8D+KNGtNO0bSfDV5deHL+F5r7WxcTyQNBYOJo/s8pRvkdI5t0m1XQA7h6WE/ho+SzJN1pJH6caR8A/gT4f1vVfEuieC9CstQ8QTxzalcwadbRTXs0cwuI3uJBGHldZ/wB6rMSwkG8ENzV3xL8GPhJ438BxfC7xj4W0nVvDEAjC6Vd2EUtmiwnMe22lDRjYQu35OCCR3x+Wnij9vn4qat4Wn0jwBf6IvixNJ1m4uoTEkz2k9h4gXSVDQSz26FvIJKRTzQpLIATIq/NXG+HP2mPjf488aafafCbVNEtPFXivT/B+lXmv3OnGVYjJe+KoLl2sEuhGWhawbbHHcvGJN6rNIm1h0NnGqLta5+t//Chfgf8A8JXpXj5PBmh/29oFqLLTtQGn232qzt0RkWGCby98USo7KqKQAGYKACc8+v7LP7Mlv4c1DwVD8PfDUekavejUb2zGlWi29zeKzbbiWJoisky7ifMYFhk4PNfk3oX/AAUa/ab8S+P/AAVo9joCy2rWugDWYIbW3MF9LqkzwXc8VzNfRXFtHahDIscdndl2Uo7ICc5c/wC3t+1JD8JL3VrzxBo8es6drLHUXTSrYm2002L3KiOE6sIZoTwxuftCXIj5NluJUPmI9jLqz9i9Z/Z5+AniawstP8QeCNCvLbT5o7m1jn063dIJoY4443RXjIVkjjjQMANqxqvRVAj8X/s6fs9eP4tXh8ceA9A1pNfuLe81UXem205vbi0jMVvLOZIz5rxIfLid8lUJVcDNfKXx9/aQ+JWh/E/w94a+H3irw14X006Fb+JbibXoJJY9ajmukt/sVq/mRNbnYS/mLFNICyAw/MSfl34hft0/tFaDp2teLvDOr+Hb06ze69pmk6GLQvdeHpdH1RrCC61GUT5uYrlUDMhhtwjzIiPKAJGHMXsPM/Yi2+HngC12/ZtD06NluIbsNFaxJ/pNtBHbwzgbceZFBHHEj/eSNFRSFUAcXdfs4fs/6nr1j4pvPAnh+fVNLCrZXr6ZatPbBJfPXyZvL8yPbMfMG0ja2WGCSa/Lu4/am/bP+GFzq8nxD1rw5rtvaat4i8KWiWumvYvJe6Tol1rltqUha5kCI/2ZoJbQB8BvM84kGM3Ph7+0r+2PpPj4J8UNd8Oa3oula3o2i3kFjpclnPeN4h0ZdShlSU3UnkfZZpUh8v5hOgLbos+XUqp5D+rv+Y/SIfsv/s+XXwn0b4F654N0jWfCnh9VGnadqFlDe28PlgoGSKdWRWG5hwvCnHSumv8A4EfBHVfGsnxF1Lwbolx4hktH019Rl0+3e8No0Zje385o97QFDsKZ2lWKkYJFflpp/wC3R8c/jFZ/DfwT8H9a0C08QeM7Hwp/aV7Lam+TTbrWNM1G+vmNus8YMkRstkcJdNpLK5+7nyW8/aH+P3jLxXoniLw34n0jwRrSax4O0rxPqZsRcwXsK33iOwukZXuoUgtpJrLzEBO9SwQNgLl85So26n7ot4H8HMLlW0exYX9nDp1yGt4z59pbmQQW8oCndCnnSbI2+RfNkOPmOeZ0b4L/AAc0Dx9N8V9B8K6PaeJ7y3S0l1eCyt4r6WAKqhGuEjEpQKiIF3lSqKOgFfEvw6/aa+I3xE8eePfgn4qt7M3fw60XVx4m2wmJZri5nf8A4R94QX+WK9023muZI9zbSyDf6+L/AAX/AGj/AI/2/iPRLqwudGtvh7oup+D/AAvLpEdpKb24PiLSLK5Nwl75xCLbXF4gWMxOZIkOXXnL5hKi+5+kt1+zh+z1f3PiG81DwLoM0vizYmtySabbF9R2ESILpihM2HAkG/Pz4b73NJL+zf8As8zt4bEvgLw+/wDwhzAaCn9l2p/szBEgFn+7xb4f94PK2521+c2ueP8A466d+11aaP4O8e2vhrw5L8Qn0zUrS9skuhdwLo8VwllFK1zAsDS7XEQCufNYMquVKt8p2/7cHxE/aA1O20PxXIlxpdvrumeINJdbWKyjOm3llq3lWzeRe3bXERjiibzJltZOQWgjbAocxKjZ7n7K/Cj9kH9n/wCEmn6tHonhbSbrUfEJvxqupXFha/a9Si1G4kupobqVYv3sRZwhDb1KIgI4FemaB8FPgv4W+HU3wg8O+E9HsPCd0ksc2jQWNtDYTR3H+uSW0VPLYSnPmAoAxzkGvyf+E37cPj62/aQ+HXwH0yKE+E7+20vQbuzjsofLt72fQY9XD/bWvftPyxTwgwmyaMow/wBI3llWr4h/aO/aE8I33iv/AIUpPomj2Hh268d+JdVW8tHupNQOia9HZJaqROn2c3CO5kuCrNHt4jbdlZuaKn1ufrX4I+Cvwe+GFtZ2/wAMvCej+H4bBZ47VNLsbe0Ea3JRp1iESJt84xIX2kZKKWyBXzB8OP8Agn78I/A3xj8Y/F7XXg8SnxhHe2stle6bYJEttqEvn3MVxPDAk9+r8IDeSTbYwI02xjbXM/tM/tj6l8ENa8YQQ3Om2cNl4Gstf0Q32wPc6hdXt3aPEn7z96qqkB2JkqZMtkNgfPmt/tpftEeA11rxv451HSLjQ9afxjp/h6ztbBhPY3Ph7UfsVpLNM9wq3RuGkUNERDGCPmlCsWD5hKm1pc/TPTv2ePgFoXhqbwNongjw/aaRcwTWslhFplrHbvBOY/NiaLyxGUkMUYZcfMUTIO0YwJ/2Tf2VjoVl4Xf4aeFW07TZnubG0bRrR4LaZ0EfmxReVtR2WKNSUCsdq88DH55eBv2k/H/x1/Zitte8eSSJrfhz4n2GgXU0UENk115Fxb3GWtra6u4YyyTiIol06NgMzAsyjjdP/bq/aLuNG0kN4m8MM/xEs7S/srqCxLQ+CvtWrWenyQ6oDdD7Ywjvt8Zk+y7pLeVWRQC6JscaOu5+uvij4KfBzxp4UufBHjLwro+q6Fd3P2y40+8srea3e4LbhM0TKUaXd/y0ZS5bJLdK6a08F+DtKXTINP0myt/7Cga205IoIoxZwsqq0VuNuYkKKilUIUqqjGAK/EjSf2xfivfX83iC41fw5J4lcnwwniyC2m/syCA+JpNNGovbm4KtCsZ3hS4RpiB5ixjcOm+Jv7f3xn+Fviz4deFY9a0jxTHJq2maXr9xolhHJY366r4gi0WGWOae9iks9kcvmkW8V+nmKULhMvTuuwSpt6XP1mtPgl8ItP8AGmq/E/TvCekQ+I9bgMGoarHp8K3l3GVClJ5xGXlUqoBD7sgBenFU9b/Z/wDgL4kh8PWPiLwToV7H4N8saEt1p1tIullNixraKyEQBdiY8oKuVXoVGPgn9oP9q74yfDv9p7XvCfh7xB4fs9C8H2ng+5l0K7tjJqmtN4j1C7sp1trgzJ9nEAgR49sMxLAhxGp3V4X4A/agsPCNto4lXSdL1bRrHw/HoMDE75R4n1zULLUUjRpd0wH2KF8dIWyzHaRlc3WxKw7WzP1o8Vfs9/s++PLuzvPGvgfQNYlsprm5t3vtOtbhoprx99zLG8kbFXlcB5CuCzAEkkA1B4U/Z4/Z+8B6zdeJvA3gbw9o2oX12L64utP0y0t55boeY3nM0cQZpd8sp8wkvmRz/Exr8/f2hf25viR8Kv2x9M+Evhfy7nw7Hd2WjahatYxEfbdQs5bqJ2vHvUnQoDDhI7GSOUEgzq3yDx74WftbfturY+G/G/xI8R+Gr7RZbbwHqV/b2elywSzx+Nby1sGto52upBF9ge6WUTtva4wVMcQIap512KdCp3P1t8G/AH4E/DmJoPAHgrQtFikvV1Bhp+nW9ur3kausdwPLRczKrsFcHIDMA2WxT7z4CfBC+8QaR4s1Lwdok2reHnd9LvG0+3a4tGkkMrG2fyw8JaQmQ7CCJMkHPJ/GuP8Aa9+L/jvwJp958RtY8MeJ7LxReQSR6Rp9q0Uugy6d4ms7BReP9oYzC4R9yl4oTHIMAyoC1e9fs6ft6/ED4hfHD4g+EtetW1jRdO0HVvFOhLDZwWjfZNLvlto7eOWK7u5blp43RvMngtZEYYEOG4cXqQ6Ej9Hdf+BfwV8X+PbH4r+KfB2iar4o03yxaaxdadbz3kAgfzE8q5dDKgRiSgBDIzMV5JzH4Y+AfwJ8HXepX/hXwXoOmXGrXcd9eyWum28LXF1Ed8c0pjiUvKjHcruSwJJBGa/FXT/jR8TPFfxw0fXviV4q8O+NG1O0+H15bwaTC9tHpZ1TxfAht5B58qyz2yFTHISkjt96Horf0DLtKrtxtA4wMDqT0zx+QraMU3YidNxV7nkFp+zz8A7Dxdp3xAs/A3h+HXtHgitdP1JNMtlu7WCCIwRRQT+X5kSRxMY0VGAVCVAAOK9iHXP0/nSUo/w/nVyppK5jOq3ufiV4c/5WXb7/ALNmh/8AUxkr98k+7X4G+HP+Vl2+/wCzZof/AFMZK/fJPu14mL/is+3y3+Ah1FFFYnaFFFFABRRRQAUUUUAFFFFABRRRQAUUUUAFFFFABRRRQAUx92OKfTJOmaAPm/47eK9TspLbw7p0rRLLGZZSvDEbiq/+gmvnH+1tUIwbibA6Zc/417N8e4x/wldrIo4NqB0J6SPXhjDv/Q/1oAuf2lqjZAuZB9XIzjkjJPHAPPt71ydt8UPDN94yufh3YeIrefxDZxrNPpiXA+2Rxvgo725JdVfIwSoBBGMDNb45+UcngjrxzjOFDE8HoAc9x3H5qeL/AIY/GG2+J/xHudJ07W5tK1nWbHUmSye2iiudOjs9Ohure3kLGRLqRoGDIyiMAffBPAB+jOiePtI8TySW3h7W4r+SHAlW3uNxTcCRkqSFLbSRu6AdMg4peHfif4Z8Z6rqGieE/Edrqd7pMqw39vaXKzS2sr8qs0cb5TJ4wcHqM8cfmd8EP2bvi54T1/4a6941sbuRfC+rxyPELsSSwRS6deQO8pVIvPMdxLC0hAGV3lAfunz7xf8AsxftYWN54m1nw/qMcVvf3YltBpdmi3K2MmoXNxc20ymVFunLfZZEmd4z5Xmx8DaSAfs9/aOq/ea4kXGc/Mx2kZyG+YYAxz6ZGc9htQ1RSWF04wSBmQnBBxyc4x7mvxe1b4M/twzanrEesahqNzaNo1hazSW0as1zJbNZyAxIZYvOZsXIni3QcM2JCv3e/wBP+B/7UniTXbfTPFF1rGnrO9gNdul1AS29xZeTakWttiNWDwSpN57bV3qSwIMpSMA/WI6lqiHY08wIHQs2R7Zzz9aP7T1L/n4l/wC+z/jXkfwX0bxV4b+FOheHPG873WrWFokFxNM++WQxjaryN3dlALHAySegwB6dQB1nhrxdrWgaxBfwXEjBXBdGYkOvdev619+wFmXzGGCwB+nt+FfmwpAbmv0otxthVO4AB/CgD//S/ok0rj/g4U8Wk9P+FHaX0znP9vz+gOPr2r9Rdf8Agj8G/F/irT/Hvizwjouqa9pckUtnqV3YW1xeQNCd0bRTvGZVKNyjKQVbBHPI/LvShu/4OE/F6Dq3wN0wH6f29OT057V7H8fvgP8ADTxX+378KPEuuW0r3N9pPiG8uFWdkjmm0Z9MeyeSNCEPkmaQglT97B+9Xp4X+Ej5LMP47R9jyfs6/s8y3Wt6pP4F8PtP4oLf2xK2mWm7Ud2HIupBHvl3Mof95nLDJ5xXT6D8Kfhd4Wis4fDfhrSbAWCQx2gtrK3hEa23mNAsKog2CIyzNGq8JvcgDeSfxD+I3/BQb9pj4WfAH4c/FXXtXsbvWfE+nf8ACWXlnY6Vb+R/ZG61iS1Mt3fWpXzDIZGmgE06bgqW5Rd5yP2j/jV8ffj94Y+LHwC1nxdpek2lzfFLS2Okw3cTaPFrsGnPE0kd+skvmRTxR3YuY7Ro5tyQCWPMybtnKqbezP29uPgZ8E5/EGleMLjwfoban4eUxaZetp1sbiwj3M+LaQx7ogHkLYTGCzHOSawH/Zg/ZoutEn8MT/D7w0+n3V59vntDpVo0Ml3tMf2hoxHgyGN8FiM7GIyQSK/GzxJ+3v8AtRfDbV/iRoHhXSLf+zPA2n+J9N0uCaysLW1tJPDVvIttflhfyXrW93LCI/Lks44o/OTbNJwX981/xz+01oPxs1f4OeBfEWiaf4v1XXdN07VPEMmk+ZHMsXh6bUiyWLXKjPmIsK/vSBGWckscE5glhpLqfqR4s+Enwo8eX+l6v488M6RrdzoUwuNNuL+yt53s5FIIe2d0JicMoOUweFOeBignwM+CieJtW8Xjwdoa6zrwVNUvf7PtvtN8FZXX7TII90oDIjDeTyqnqox+Kt9+3n+2B4d+FHhjUvElxYX2sfE7TfDeuWF3pGnW5TQrPXIJppInTULy1t7sRNFHGkk81vnc2QCAW9M8J/tkftc+KJbDx3fTaX4f0Xw7onhPUda0i5sY57nUZfEOqanprPHcQ3TRWyFLOG5jCGcN5hjDAANTuiPZPufsBeeAfAupKyaloenXBlnkuyJLWFg9xNE8Esx3KcyPC7xu33mRmUkqSKtJ4F8FR3BmXR7FHFxDdu/2eMMZbZfKgmbj70SIFjc8qqgKQBX4m+Gv2lv2o/C3wysfC3iP4ueH315rjxpql1rWraVFEkK+Hby1gh8PvbfbFRLm4W6eYOziZIE+WKQLx9CftL/DjwH+0dpv7PnxO8eadPZ3vifXNMt57VJ3hKwXul3t7JavwjNslRd4O1z5YzyORyRapvuff3hP4EfBDwLdNdeB/Beg6NcS3P29pbDTrWB/thEg8/McanzQssgDn5sO4B+Y5vap8H/hHqmlXXh3UfCuj3VhqXl/a7WaxtminEczzx+ZGy7H2TyPImQdskjOBuJz+MUX/BQj9pHTPHvjfR7TRlg8P6UuqafYpeQWKxaOdOv7XTbe+uJIr+S7nhdZmuphNaWixxoSrOC23vPHn7Tn7Vnh3RL7QvAfxG8I+IpPCGl+I9e1HXrHSzLDf2+h2tpeRWv2dZzFA7m4a3leGeZY12vnzvMiROXkTyN9T9Ofhf8ABDQ/hxr3jPxVcahNrepeO9V/tDULi8jhUiGK3js7WyCwJGhgtoIQiggs3zNIWcszegWfw88A2cJgs9E0+JPOt7oolrEq+dZqiW8oAXBkgWONYXH3FRFQgLX45/E/9rj4teJrbxGl9r+kJo2tSa54eHhKKHGs6dHY6bPcx6xJcmQSNFM0PmhWiWMQTRESCT5GyR+3H8b/AIdaHN4r0/UdJ121sYtb0W38FpCRq1kdA0W6vodVublHaeSK7ksghjNsqKbqPY0h2lkprsCpS7n7M638NPhvr6iXXfDumXwivIdUU3NpDLtvbYAQXeXjb9/DgbJB86gDBwOOa8P/ALP/AMBfCUs8nhfwNoGmPcz+dcNZ6ZaQl5vny7tHENz4lf5jjG9ufmOfxp1r9r/4reEdY8SXniXxD4b+K2ofDVr250zWdKtBZQTNJ4ZbUmjKwT3CIQ5ALJ5h8rnbv+Wvc9b/AGj/AI6aXDpnwsg+M3gi4vbvUb0v45+wImnpDa2Ud0thLbG4+zRzyM7fMl3IwiG8qGOyndC9jLqz9LrX4I/BOw8ZW/xEtfBuhweIbWKOCDVE022F9FFCgjjjjnEIlVI0+RVBAVQFwB16L/hXXw+P2qOTQdNzdrcJcAWkJ81LuTzbhZPl+cTSDfJnHmsNx5Ga+GPit+0J4l8f/wDBPHVfjL4RnOheIrvw7p13qENo4lutIbUYraa4BVMsk0VrM00ZZQwQpIcDk/Ffij4naL+yx4k1/wAOfsYeOrCbwvqUfg2C8v8AULldV0vR9R17xImkPd7g6xtPcWksks8RdRvgjaRkVwaTkkHsZdz9pPGvwe+EHxJudPvPiL4U0fxBPpG4WL6jZQXTWocAOITMjGLcANwUrnAyegq9qfwu+GevacdG1rw5pd5aMLpHt5bOGSJkvW3XSGN02gXDndNx+8P3gc5P4beNP+Ci37VHh3WbPwV4RS38WTeHjevLqmm2dhHZ+KTZ6k1lHBAbzUbUWnmrGd0lob5laQ4TAQt9ofAT9ob9oDxD8d7DT/iVqul6h4Z8Xaj4w0/S7C0tPKuLFfDF80EcslyX/fPPHwyFE2YB5DfLPtECoyPvHwv8KPhZ4Q8Np4U8G+GtJ0rTYJ1uo7Szs4IIEuo9u2cRRIsYlTavzAZGAAfl48d+JX7IPwW8eeAfFPgfwto2neE5vGEsNzqN/pWm6eZ7mWGXzopLmK4t5ILsFyzOlykiNvcMpEjV+ZXhb9p39pXwpaXF54T1vTP+Ec8JXl5qWpW97atcXWorf+NdT0tbWO4Mqm2jjgAMcgWQnywoQBsjqbn9sb9qrwrY3Wv+Kta0Kay8XWevf2MPsPlReH20fXbDR0u7yTzCbuE2999quSwiSJozGN6sWF3RUaTvufoj8I/2Rfgn8K/g9D8GZtFsNf01oJYbx9QsLXF4LiY3Eokt0hS3SNpj5nkxxrCrfcRcV3Dfs4/s8mbQrpvAXh5pPDARdHf+yrQtp4ik85RaHySYNsw8xfKwQ/zAZya/MD/huP49+EbaHwbe6ro/i2+8Qand+DPDfiKytBDY3viMXVmlnI8MckiiI2t3LLLErlQLCYhzkCvBPHf7d/7R/wASPEnxD8AfDvxgnhqHStQ0vUNM1eTTLJ0sbG38WQ6NewuIb95ZYWi3TTyXa2zAK6bWiPmEuHsne9z9nJP2YPgzqXx2vf2j/EWhWGreJ7i0020tbm+tLeeXTxpv2lo3sp2QyxFvtbhmVgCQCMV1+o/Aj4F6xrOleINY8F6HdX+hgpptxLp1tJNZhn8w/Z5GjLRfP8/yEfPlupzX5IeNP2nPib4D8T/ELw18P/FvhrwybDU9Q1ufXb60WS11yXTvDugXCWkMZuMJLem4MivG0jLCgEaORg+3/CT9p79orxl8c9O1nxRe6Za+Bta8TyeFYdCW18u+gZtCi1dbtr1pTmQXDtAYBGB5eHBLjAcZIbpvufoVrXwS+C/iDxnH8RvEfhHRb/xEirEmq3VhbS3qqg+ULcvG0gAHQbvpW3D8PvAMNvFZ22haeI40s/LjS3iUolg6tZBcL8q2rqrwgECMqCm3FfmZ8Bv2w/j78S/21dc+E+t6PInhOPUdf0pbdoLCE2iaM+yK685b6S9mF2y7GSSyjSPzAUkkGCPmzxP+0N8WvhBrPjjwjorX+rX/AMBIdTuZEcqwuj4p1KGLRbmXznjjZbK0e4lIkkWMQgbpFC5ocl2EqT6yP1i+Dn7JX7PvwR8MNoHhLwtpJnmCG9vpNPtlu71kuDdxvdOsSs7RzESJvJKsqsMEA16d4T+Dvwh8BeIb7xd4D8LaPoeraqX+232n2Nva3Ny0snmv500SK7mSX52LE5bk8mvxkT9s39tfXvhzNPo17pmj3nhm08UapdX2o6bayHV7bQbe3u440trC+uoLUTGaS3eRLqZotgfaXZkT1rwV+0x8XvBHxg8c6v8AEvx9pt/4dufiJoWm2mm3dnFZtpGj6roel3gbzvtDsIfNmeMSOoQzRyOSGfaJ9otrB7F7qR+lHhf9nn4CeDLm4u/BPgnQNIlvZ4ryeSy0u1heWeKb7RFK7JDlnjlAdCeUdQwIPNex7txPrnnPX8RgCvwyn/bx/aP1j4ceIvjh4Lm03UvD/hr4e2Hif7JaWiyS6lqGr6jrVhEVmkljjgit49OgnJyRISylVB3V97fsJfGb4sfGf4TahqXxghL6jpWrXNhFf+TZ2y30KBWWYQWF5fwRkbtjKty/zKe2M605amNSnZXbPtelH+H86SlH+H863qbHKfiV4c/5WXb7/s2aH/1MZK/fJPu1+Bvhz/lZdvv+zZof/Uxkr98k+7XgYv8Ais+7y3+Ah1FMZsfzpolXO08E+vBrE7SWimb8HB/z+lHmD/P/AOqgB9FM8wf5/wD1UeYP8/8A6qAH0UzzB/n/APVR5g/z/wDqoAfRTPMH+f8A9VHmD/P/AOqgB9FM8wf5/wD1UeYP8/8A6qAH0UzzB/n/APVR5g/z/wDqoAfRTPMH+f8A9VHmD/P/AOqgB9FM8wf5/wD1UeYP8/8A6qAH0jZ7dab5g/z/APqo3j/P/wCqgDyv4m/Dr/hNreKWzkWK6gyFJ7qcZB/z3rxQfAjxYRxLDX1/vz7f5+lNBA6cf5+lAHyF/wAKG8Wn/lrAfqacfgR4vON00PHI578nr26n8zX15u9/8/lRu9/8/lQB8hf8KG8WH/ltCO+Pzz/Oj/hRHi5fuzQ/n7YH6cV9e7h6/wCfyo3e/wDn8qAPkA/Ajxd/z1gycnr/AHuv596afgN4tZGUyw5KkdfU5P519g7vf/P5Ubvf/P5UAfITfAnxaWZvNh+Zs/oB/Sk/4UP4s/56w/ma+vt3v/n8qN3v/n8qAPmDw18CtTg1aK716aM28TBjGozv9jnt6+tfUCDHPTNRvIEG4nj/AD9KfG4cnHbsetAH/9P+iTTP+VhDxhwSB8DdMJwM8f2/Pn6fX61+v1zpmk3Gow6rc28El9ZxyxwTMitLEJiGcI5BdVfykLAcMUBOdvH5A6Ym7/g4Q8YEqCv/AAo3TAfqdeuPz6dK8R/bn8Sa5ov7dNvq+mXWlQzaQfBbwyvq0ltrsMNxriJdrpenBGW8FxCGiuFZkxEWbJICn1MN/DsfIZj/ALwz9svEXwT+DHi230218VeEdE1OLRQU05bzTba4FojALi3V4z5QKjZtTbx8uDRYfCH4Q6fquoeJtM8LaLBfay4a/uYrK3WS6bzQ4E0qRqZSJAGG9j+8w2cgV+T13+2nefFK58NeAdUutF1W8QW+oaxY7UleyvrXxZbaVGJowS0TKnRWAZnywA7fMJ+OvxIv/gN4V+G1v450nwzpWh6f4Ni/sS+iR9S15tTvUMtxbXLSCaIQALGBEjgsrq+xMVrc51C+lz9/5vg18ILzxDqfjC58J6NPquuQG11C+axt2uLuBtqGK4l8vfMrBFUhmIwq5Hyiusbwp4Wl1Z9ffTLQ6i0ona5+zxmYyLEbcMz7d5ZYiYtxJOz5fukivxO+Hf7R/wC0Dovh/wAP6z4DvtJ0vwb4Y0Pwvq1/oUdgksup/wDCQa3qOn3UMdwzr9mEcduskJVCXclWAU769f8A2ZP2xPiB4r+O0Xhv4r+P/DtzpGsaRqGoyaPHBFZXOgXVvqtvp1rY3EzvulkkMoQeaiO8jBVUjazimuxEKbd9T9L9Z+Evwn8R6CfCHiHwzpF/ppt4LT7Hc2VtLAIICGgi8tkZPKjKgxptCoRwPTRsvht8OrCwGj6doOmw2nkW1qkEVrAsYgs9xtoQqoAI4CzmJMbULEqBk1+afxa+IfxmT9rbXPhH8CtY0zwrqviC98P2k+s3Nkl/JFbHTdTuc/Z2lTznEkShFMgBVnYHGQ3yrN+2p+1Bo+k+JPjvJ4pt71dX+GngfWdL8KR2NqBaX2rTXsGoX1vNcXUKTQ28iebLv2Jh4UkkiCBi+dWvYv2Uj9sdc+APwN8SW1xbeIvBWg363OoNq00dzptrKJdQZApupA8Z33DIADKcucYzxXpN5o+j38trJf2kM5s5Flty8auYZFQoJIyR8jBWZQw6AkdDX4I6t+3j+07/AMKmt9d1fxVo/ge60DTtf1MalrFrp9wnig6Vfi2t7aAWV3c2tvLIjFpRbzzsGICK65Yen+Ov2wf2kdA+Dnib4mXXiKzsJNU8bN4U8OW1rpti8luthb3F5cyvJqV9ZWjtPFbyALPNEkYT5HeV1jK5/IPYyezP1nf4OfCI65qnikeE9I/tTX4GttTuxYQfaL2GRPLaK4k2bp42XAKSEow4xgUmhfCL4ReFtDi8K+F/DGjafp8cNxAlnb2MEUHk3J/0hPJRVASZuJV27HJG4GvyE+Fv7bf7TfxH1LQPiy1/p0fhCK38IQah4fW0jN3qFx4jtpxPKLsvmAx3CRmONVbcA2WAwT4f4d/at+M2p/FLQfidd/Evw5qN94r8A2kpuba0iSy8IHWtXsROl/F5zLOLJcRgzmGUlSJFiBNHMl0EqE1qz96f+FN/CKPxTc+OY/Cukf21d2v2K41A2Ft9rktwgj8mSfZ5jR+WqqULFSqhcY4rM1r4E/CHUbzWNZh8Pabp+razYSaXc6tZ20EF+bWSNV8v7UE8wABEKAnau1eMqmPz88Q/tb/E3Rv2Kbzx4PEdre+JovFUnhKy8RWNrYm31Hy9Uayjv7e3vLi3slEkalgslysIlU4kYEE+Q/Gv4l2v7YP/AASu8JeOfHmpaF4c8X+NYk/sq616Y2OnrqUAuTO/n2/2mGGaSyguTCQzR+bjY54JPaJ9A9m+599/s2fsY/Cv9m7w/qWkWO3xBe6tMZ7m+u7HTrVpAtv9mCJa6fa21rGnkM0bFYFL5bzCx5r1qT9nT9nd/BqfDmTwJ4cbw3Hcm9XSm0qz+xfaCp/fC3MZiDlBjO0H5eoAwfxb0H9q34pr8QdP8VfCuK1/siXwhaeFvDXhW8upJdbtpz4fuNZTUzbmMi4RpoYbRpN2HQZPzEA7vwe/Z8+FX7RUq/Cr4R+OrvV/CceleGPGGq3rTDU868kj75JcyL5d7eRfvpyx8yOWOORoyQMu4eza6n7W6F8NPh/4a1bxHrmh6dax3HjCWKTVcKhF48NnHaR70+64FvEigYOUXBJUADynxV+yB+zt4i+HB+Eun+EtJ0Tw9PrOm61c6fpun2ttbXc+mXkN3EJ4BF5UiyvAsbqVyYyVzjNfJnxJ1jyP+CguheGIFiR4f+EVklnQj7RN58HikFZpMkSKi2wZVI6s7AAnFeWeOfjd+2zq3xCvLb4f+NdD0fQtX8V+JvC9lbSaPHdT2Efh6zub+O58wzKLh7j7E1s8b7PLjl81SXUCk5eQuR3tc/UX/hQnwLbTtC0x/BWgtZ+F3MujwNptt5dg27futkMWIH3BXJjwdwBzkCu7tvCnhnT7uK9sdLtYprR5jBLHCgdGuSGneNgPleYnLkcufvE1+OXhb9uj40+KvFWgeLJNf0Szi1Gay0uTwSLeN9QlF1o5vZdYik3ed9milBYKUMRgViX8wBTy/hD9rj9qpfBnhjwr8TvHmgaRqvjqy8NatF4ol02CGy0KHWbCe5ntGglmEdxmWAQwSzSR7xIc7XCIyUvIaovoz9obfwB8PjbXEa6Hpvl3GRMq2sQVws5uAGG05/fOZSD0lLN94k0/U/h78Pr/AE6TSdW0LTZ7Nobi0limtYWiaC8ZWuYmVlx5czBWlU/K5UbgTivwO+DX7X/xm8LfDWyfSfGuhImk3uo6rJaSW29vGM+r+MtXs5rfTTIwmijtUt1YGBJTmWNSFQbq+gf+Cg3xt+Ic/ijxT8LbTxxpPhLRtHg8Og6FewRnUfEH9r3oWaW0m81ZY1gVREvkRyFpFkDhAFLVzIapy3Z+sOi/DD4aeHNH03w94c8O6Xp9ho1wbrT7e3soY4bS5ZHjaWCNECRSFZJEJjCuQ7cncayLf4FfA+0l1q4sfBugxt4jSRNVZNPtt1+swLyLdN5f+kB8l380tuJOc5yfw9i/bG+P/wAcvEV54a8fWElnoUvi7w5cJDJ/Z0MmkvZePdHsbeAtZXc19It3GzPuvba2KGLaqyBqn+Bv7Ynx88NfFLwP8EfCtlJcaBbXNha3Ns66Z/xMk1fUb0XM6y3V6l8DYKu7ba21wjhW8xo2BALgoPufuBrnwL+CviOwi0bxB4M0PULa1uVvIobnTraWOK4jiW3jnVHjKrIkKRxqwG4RqqA7UAHZjwv4VgvUvBptrHcfaDdiRYIi/wBoaPyTOG2kiRo/3ZbrtO0nHFfkz8bv23/iB4G/bZj+Cmna5HpfhUN/Y189xbad5VhdyaZNqLag8010l6wgTypQBZ/ZHXKmcOGUfLdr+2l8btK+HNj8eJNf0X4g6xfaB4nudD1XTbKyt57LTpdX8N2ltJdQreNbxv5FyL25ilnjUb0SRkVNwVxOm+5+92k/C74a6R40uviZpHhzTLXxHqEXlXOqQ2cKXs0eFGyS5CCWRcKudzEEgegrRvvBPgq8GqJf6RZT/wBvxC11LzbeJvtsQiaIR3GR+/RYyw2PuGzIAxxX4i2n7YX7aPiP4fQa1pmr6boc/hfQfE/iC+ub2ysLmTWo9Bv7aC3jIsLu7tLRLuGZ/NkgnmWJwuwvmuM+PX7ZPxbsPiBa/GC08RaVqkfhW/8AFl/pvw7igWPVoW0Pw/qEtq91MH850umG5g0SqAyeWXJFVzISoy6M/dTQPhF8KfDWkJ4e8NeF9J0/T1ingFtbWNvFEsV0f38exEUbJurjHz5O7NQeI/gx8HvFq30firwlomprqlvBaXgurC3n+029s2+CKYSRtvjib5o0bKoeVANfJP8AwT++O3xi+NvhTxMPi3u1D+xb23hs9XZNLiN2JoBLLGY9IvtQtVMDnGRcFmDglV4z+gR54NbRgmYVIyjucLp/w2+HOj6TLoOleHtNtrCeyXTJLaK0hjheyQyFLZo1QKYFM0pWMjYPMfA+Zs3fBPgbwP8ADnQI/Cnw70Ww0DS4GZo7PTbaK1t1ZzlisUKogLHkkDk11mBSgAdK0jTSdzFybClH+H86SlH+H86KmxJ+JXhz/lZdvv8As2aH/wBTGSv3yT7tfgb4c/5WXb7/ALNmh/8AUxkr98k+7XgYv+Kz7vLf4CGSrkZ79u3v1r5U8S/BXwd8XfjFrl349m1OeHTrLT47W3tNSv7CKJpPPaV8Wc8IdpMICXyRsGMc19XnqK8s8L/8lT8T/wDXtpv8p6xO08sP7HHwMbkQ65/4UWuf/JtH/DG/wN/5465/4Uet/wDybX1PgDpRQB8sf8Mb/A3/AJ465/4Uet//ACbR/wAMb/A3/njrn/hR63/8m19T0UAfLH/DG/wN/wCeOuf+FHrf/wAm0f8ADG/wN/5465/4Uet//JtfU9FAHyx/wxv8Df8Anjrn/hR63/8AJtH/AAxv8Df+eOuf+FHrf/ybX1PRQB8sf8Mb/A3/AJ465/4Uet//ACbR/wAMb/A3/njrn/hR63/8m19T0UAfLH/DG/wN/wCeOuf+FHrf/wAm0f8ADG/wN/5465/4Uet//JtfU9FAHyx/wxv8Df8Anjrn/hR63/8AJtH/AAxv8Df+eOuf+FHrf/ybX1PRQB8sf8Mb/A3/AJ465/4Uet//ACbR/wAMb/A3/njrn/hR63/8m19T0UAfLH/DG/wN/wCeOuf+FHrf/wAm0f8ADG/wN/5465/4Uet//JtfU9FAHyx/wxv8Df8Anjrn/hR63/8AJtH/AAxv8Df+eOuf+FHrf/ybX1PRQB8sf8Mb/A3/AJ465/4Uet//ACbR/wAMb/A3/njrn/hR63/8m19T0UAfLH/DG/wN/wCeOuf+FHrf/wAm0f8ADG/wN/5465/4Uet//JtfU9FAHyx/wxv8Df8Anjrn/hR63/8AJtH/AAxv8Df+eOuf+FHrf/ybX1PRQB8sf8Mb/A3/AJ465/4Uet//ACbR/wAMb/A3/njrn/hR63/8m19T0UAfJGpfsbfBc2r/AGE69bS7W2yx+ItZ3occMu+9K5U4PzKynGCOa9k+B/iLVfF/wb8J+LNdmE19qmi6feXDqoRWlnt0kdgoACgsxwAAAOBXpV7/AMecv+438q8f/Zu/5N58B/8AYuaX/wCkkVAH/9T+iTSv+VhXxcQM/wDFjdMH4HX581+qOs/Cf4V+J/FNl498T+GdJ1HXNOKtaalc2NvNeQGPDKYp3RpIyvO3awweRX5X6Udv/Bwl4vJOAPgbpmfYDX5zn8K9t+K/7QfxB0X9qr/hAofHWjeD9M0K40OCPw/qduslx4mGsS+XPJayKr3K/Zi2yMQRsu9P35jjJkX1cK/cufIZjBuu7H3Bpnwg+FGj63f+JtH8K6Paajqkiz3l3FYW6T3MiyecrzSKgZ2EmH3MSd/zZB5qK9+Dfwj1PUrDWNU8J6NcXmlRCCxuJLC3aS2iDF1SFzGWjQOdwVOASSM5JH4xeFf20P2nvGOlaRpfhnxzod/rHju10XUHENhbSN4OuNTvVhn0i5jjZvPuLeORsC4CzFrdgyAF2G9L+2p+0N4W8ceCtG8W+J7O5t7TUta0HU4ra0sFn1q90nX9Q0eKR7Zplurf7WlijxrYRThJpGExSPy3OvMjl9k+5+zkfgrwVbWv2KPSNPjt2SKPyxBEqFIHaaFNoGCIpHdowAQpLFSGNfGvg3/gnv8AAXwx4y8SeNvEEsvib/hJHil+zalFYqltHFqCamqo9vbQzzg3SRSebdSTyAogVuBX57n9pn4ifEv+wtH8YeM9H8b2t5feHPET/wBl28MK6FPc3k8Uuj3bQsfMKKgf97iXMUnmIgC7uT/4aE8ceJdN+GHhu58aaF4a0jTNf8A2ieCFhgjvL2Ob7HetqNvKpMoi3kBFjUxGMMu4PhS3JB7FvRM/oP8A+Ea8PvqJ1ybTrZ70MGNw8KGbcqugYvjllV2GQejFRwTnn7z4U/C7U40ivvDGlXBism05BLZQPts2K77ZSUOITtGYx8hwDjiv58vDP7dP7Rnx18MahLZ/EseCrPTNe8MaudfmsNGdING1mW4DWs6wXkkUcKBYste+ROvSeNSRX1v+z/8Atx/GDxX+1d4p8J/E2S107wZp+o+IdPlS6n0a3j0mLR797GxvCY71tQYX5WI4ureKLNxH5Ujo0bOm1YccPNO9z66+Pf7CnwV+O2j+HPDt4W8L6P4bFxHHYaPaabHaSQXUkbzRBLm0mFsxMQPnWpgnALgSDca+ltb+Fnww8ReHT4X8Q+HdLv8ASmmF01tdWcM1u04GRMUkRkd92G3klyc5JxX5J/8ABSn41+OYL3xl8K4PHmleCtL0nRNFmi0a/hiN54kOq3ssU/2WWZo5o/swgVUa33nzc+aEXDHxC9/bB+Pvxp13xl4O8dWjRaAL+KRbR20mOTSH07xVp1ha2+LS6k1A/bUkkkP2+2tzG8YC7s8JWKcZbXP3w0/wP4H063FrpGi2EECtCVSC1iRAbY5i4VQAYmzsB+4fu4PB5e0+BvwQso9Uis/Buhwrrm8akqadaqLwPJ5rfaQsY83dJ858zdluTzkD8Lfhb+158ffBXxS8MfB3wHaG40aLxJcxS2zNpCDV01fxbqVteyK93dw34FhFukH2K3uC8ibX2KSa+kf2rv2jP2gtF+OPjz4K+C/GcWiwTeD9R/sGCytLK6uxqcelT3azbWmW+E++PdEogFrsxifzR5YfMuxHs59Wfq1L8LfhfN4Jh+Gtx4b0qTw3bqqxaS1lA1iiowZAlsU8pQrcjC8HkVFq3wj+FGu+EI/hxrHhfSb3QLRlaDTJbG3ks4zH9wpbuhiXbn5cKMdq/FfXf29Pip8NviJ8IvAukeOrfx3Z6ja+G4NavLe10lI9Ql169ntXmwLoXQa2SDKrYwXCGTeJ2i2kjsvC3xW/a11Hxb8HviZ47+K1lYWPi7w14p1CXRotMtVsru+gn09rDT45ncPJP5byiNgpmZY5NikGTE+0XYpUm9Ez9f7f4YfDW28U23ju28O6XFrVtbraQaglpbi6jgRdohSfZ5ojCZUIrBQvGMUng/wB8OvhnFcWngDRNN0BNQuDczJYWcVos9w3LSOIggkk29TyxGfSvxa1P/gon408f6b4N0nwJ8SfDvhyPXbvwnp+seIJora6h0u41bQdT1K8jkVn8kSm4s44wkroIzJsyp+VvVNB+Nnj341aV4N8WPfadd634L8O+MvEP9osAmm6hNplxcaPpeolI9wSG58sXgMYYeXIfLZkAJpVF2HPDye7P1tl8M+H5tZTXptPt5dRQxKl00SNKohDiPDlS2FEsu0548xsdTUT+GfCqLHM+m2a7JJbpC0MQxJMjCaQ5VcPIruJGzkqx3E5r8M/CP7bnxp8T+HbDw9rXxW0Twte6e2sXV9rmsWGnGG5n0+30ie30UCzmuLTfcR6k04e0muJvKjU7PNEsSecftRftwfEXxf4n+KXwUu9SSXwzqXhvxJYrAEsIUsbzRrSJ3lDC4XVWLSLIuLq1gjIcNEzgBqfMZqk11P32i+FHwri8RQ+L4fDWlDVra3FnDfCzgFzHahTGIVl2b1jWMldgOMDGMCp9b+GXwz8R6K/h/xN4b0u/wBPlihhktLmzglhaO2OYYzGyFSkWPkUjC9sV+JVr/wUI/aYj+LHjaTWIYbTw7pN5cmeG7Gk7dFstN1yx095pFt7uW9MVzZzXM0r3dvD5WxdjOudvRfEb9u/xz4t+IWqeH/h18WfC/grw7b6r4jistevYrO9t7mPRLHS5Y7ZHdxG5eW5uPMkRmfaMIr7TtOZFqm3pc/X9vgt8H5JNI83wjorPoJdtNP2C2P2Pe4eQ2+Y/wBzucbnKbSW55PBu+IPhn8MvG2vW/iPxf4c0vVtTsP3Vvc3tpBPPCu4P5aySo7xjOGwpHQHvx8o/EX9qLVv+GNbn4z+GJrLSvEcdjpI1OGeSO4TQrjU0tJJjfRbiUNtDdiZllQHBRmAiYtX5D3/AO2P+0B8ItQ8ZaT8PvGNl4zudU8YapdXHi3TY9Egsr46N4e8PLa2SrqV5Z2MbXjXBDfZ5nkzDI0KuC+IdRCjTdm7n9EVj8KPhTYapqHiPTPDWkw32qSx3F7cx2Nus1zNBIJ4mndYwzyRzDepcllcbuDzT5PhT8L28Qaf4pbwzpLalpKMljeGyg8+2Vy25YZdm+MEsSQpGdzZ6nP5veA/jZ41+HP7MPxG/aGmhSzk0DxpNrniKzZROYtLjntZtYhjJUHzLe0acxYG5pIgoOWyPna2/b1/au1D43+CtDgtIk03WpdFv4bBP7Iii1HSvEV+8aSZu7uLUC1hppWd1s7e4zKGSVlABpqqhODP2m1f4PfCTxHr8virxD4U0bUNVuIzDJd3Fhby3Eke0oUaV4y5XazLgnG046VX0b4JfBzw7ok3hvQPCGiWOn3Mc0U1pb6dbRwyRz+X5yPGkYVlk8qPeCCG2LnO0Y/C/wAe/tJftn6t8BZ9S1T4l2mhXHifQ7HxXZ6pZaXbKdFtLXxFZadcQMXdFniltbkSTTSbfL2uuSuSPpDx7+3x4v8AB91dfD3Q/E2i6l4qt9e16zhtdsQlm06x8MTavZ3flI2VimmWOQTLmNlby0LYwzVRMHB9z9VtI+GPw58PaLH4e0Hw9plhp8EMltHa21lBFCkEpzJEsaIFEbkZZQMMeoNU1+Enwqi8US+OIvC+kDWZxiW+SygF042GPDzbPMI8slOv3TjpX44eIf2xv2vfAvxt8AfDDULyLW3l0/w3eX5jh0exh1o6/dutwIhd3kF4q2cRVIhZQTNI6ZlVA1fUPjj9pHx1o/7Xl54MuPHmieHtC0C606zHhW9thNqGvQX1o9xLeWrqr3K+WwwoiRocRuZXjw2HzIPZvoz9AfBvgTwF8N9IbQfh7oun+H7AyGZ7fTbaK1h8w8M5SJVQs2ABkc8eldUZAzYQ5KgEgHnnPY8kcdcY64r+cz4X/wDBSf4+/ELwodE1Hx3pfhn+0PEfhi1j8T6nbaS9vY2XiCy1C8aJI7O7ntj5TWkUcTXUsNwVbdLFGxQPtan+0F8cPHuoQ+L9E8d2HhK907WPBWn6r4stbC2ki1jSh4l8TaSLmbzHWGG0vYrSK7TbJsCTfKCrhi1VtqZvDXP6FXdYkLyNhRzliF6+pJwOcfyqVWbYzSZzjgYwRnB5/PH4V/O38R/23fHnxT+JPxK+CF1qi6h4cl0jVNQ07bHpsTWv9ha7pOmgI1tdTXp+0rfSO/26CDaUXyPNBZl+s/jl+2D+0B4R/bt0/wCCngyzA8P2+o+H7CSzc6Si6pHrEqpd3SPd3sV/myiZnCWlvMjNAyuyDcRcayk7Iznh3FXZ+u7feP1oH+H86iiZHUvGcjJHqD7g459PTjjvUo/w/nWsn7pgfiV4c/5WXb7/ALNmh/8AUxkr98k+7X4G+HP+Vl2+/wCzZof/AFMZK/fJPu14OL/is+7y3+AhT1FeWeF/+Sp+J/8Ar203/wBBnr1M9RXlnhf/AJKn4n/69tN/9BnrE7T1SikLBetAYN0oAWiiigAooooAKKKKACiiigAooooAKKKKACiiigAooooAKKKKACiiigAooooAKKKKACiiigCtef8AHnL/ALjfyrx/9m7/AJN48Bf9i5pX/pJFXsF5/wAecv8AuN/KvH/2bv8Ak3jwF/2Lmlf+kkVAH//V/ol0rB/4OFPF2e3wO0wj05124HP51+smr+C/AuqeIrLxrruk2E+r6XlLO/uLeF7m23E58mZ1LoMOeFYZyRzmvyZ0whf+DhPxcSMgfA7TCfoNfn6+3r29a57/AIKDfHLxx/wnGq/DY+PNO8IadouqeDBZ+HrqC3a68TnUNZtWuJLeWQi4UW2PLU2wIBUtLiMZr1MOrUkz5PMFeuz9etL+HHw08Oz3F5oXh7S9Plv7pZ7h4bWGNprgFjHJK0aDfLuYlWJ3DccHLGny/D34cahqth4kn0LTJ7vTpJJ7O6e1gaW3knczSyQyMm5GkkJkdkOS5Yk5+avwO0D9sH9oD48y+J/DnxFRE0Zda02RLQzaNu0aW18WWtnBAY7G4kvSksQwxvoYj5nAyDTfgN+2F+0H4Y8a/Cj4KeCUU+H49M8OW5spZtIj/teLVHuPtdwGu501Em1EaootIZVMiN5zRg7q0U0cdn3P3y0X4Y/DTQTd/wBheHNLs2vZ0ubn7NZwRGaVD8kshRBukGTtZsnk4PcwXfw0+FzeIrLxPdeHtJ/tWARwWl5JZ2/nxLESYkjkK7h5YB2qp46gcV+evxf/AG2dY8AfF/xP8Jptc0211e38aaPpmkabP5P2ubR7rQre/nnELsGMX2o3KfaD8ilCqnIIr5u8OfGX9pnxQ3w38H/EzxNpniHX/GFv4d8U6VfHTLeFdKm1rSNaCwxRqg8zyZ7UMkzYkKs68D71OSDkfc/Y+z+DHwd0/RtQ8OWPhPRYLDVMG9tYrC3EVwN3mDzo0jCyYYErvB+YA9ao+LPgL8GfHFvq0HiXwtplwdeWJNRmFpCst0kcscqCWQpucIyIQGJ+7nqBX4b/ABN/4KTftK674E0bx/4FKeGNK1e7ubB7iT+x4BaaloFhG+p2zy6zNb2zRSag7229XMga0fyUcE17J43/AGlv2u7zwB4/+JLeI9P8IR6Tr/h3QLbSTBpJktHvdE0jVb1vtmpyQ2LT+ZfSxRpcXKRFeVdW2Ar2iYuR9z9hdc8A/DnxdqMGr+KND0vVr3TV8uC4u7WK5lgyA4VXcM6A7s9ic7u9JY/Dz4ZRarqPiDTdC0oX2pSKL65jtYBNO0RBUTyKu6Rkddw3klTjvX4maH8bvHnjj4o+C/il4e+IkPhHQNT+IGnQa9ew2FtFFrUF18Pba/tlumuNhDvckRQqVJYyxqozHFXafsF/tdeMvH3xB+NPh+KOLV7XTLBPGVnDbDS1Jur+81SB7b/iWyyS/P8A2fG5+2CG7DyMJIwo3UKfkDptn6+3nw1+Gd5qtlrt/wCHdMkvdMZ2s7l7OF5bcyM0jmFym6MuzMxKkZZiTkk1oTeBPBU/ikeObvSLBtbWE2/9otbRG7SDkFBOV8zyzkjZuxg9K/Hj9kP9t/8AaU8e/s1/FL4veNYItf1Dwx4XHiHTMTaTJt1B7CW7fS2j0We5AEUsYC+cPtOOHjViFPmnxp/bb+Pfww8A6Vovw++Kmj/EBdR1Sbf4w0qPQrWK2CaabuPT5W1Ca30gtJKuMx3Ek6xNuKhtqmvad0Zxo21uftpD8G/g9FfafqUfhHRYrrSU8uykXT7YyWilmfZCwjDIoZ3f5CBl2PUmuk1Dwn4NngsV1DTbFo9IcTWfmwRbLR0UjzYQw/dMqkjII4OM4Jr8g9M/aI/bA8W+JdS8XXviG18P6V/buieEB4ejsLa5kt7vW/DGm6h9s+1qd8sltfagPLhVikijBIBUHyf4efGT4++KvgFN4e1j4l2PjjSNB+F95r2vXNzYWUs2pajLcalZ/Yp1hO2NbcwYlCnzGaEIeXep9pHoa8jfU/Wrxh+y58APFUGkR3/hnSrOw0PWDr32WCytYrae5+yXNluu4/KZJFEd5I4Jw27YwYANXrej+BfAekXUtxo2lWUGbNNMaOGNBEtnBkJb7F+RI0BI2KoUDAOeMfi9/wAFO/jp4w8NfAvxZ8NNJ8daT8PNMh+EmpazFBdwW7f8JBcy21xbNpls1wd0ZRFB/wBH3yhpk3DAGfoXXviT8TdA+Gfi22+DVzp/h/WtS+Ka+Ho7z7JHIsUdyLZJZ2hcfvZ1Ul13cswUNjnKTKdK3U+/4/gz8Fv7Hg8PReE9D/s+xuTeRW40+2MMN1wGuFjCFFlOBkgBuhrWl+Fnwzl1q78Qt4Z0k6lfq0Vxc/YoTNKHXaUml2bpEK8MGJBHHavx08Q/tD/EDwF8SNX+H2nfEHQfhrb2+u+ItRm1TULK1EevX1hNp1uLHa0ZKzTJM8snkBrg4GxXAbb5hrf/AAUG/a7TWPi9caMtvajw3ovimWy0+8OksNHl0dlTT7qSCO4fVmW43KXS8tUjYyR7CwOafMiHB9z92v8AhWPwwTUNW1r/AIRzSzc63E0OpTG0tzLfQvw0Vy+zdKr85DkgjrXmep/so/ALWPEej69feF9MeDQre4trXTvsNq9hG106M8ogMRQS/Io8wANjIzXxTB8f/iv4R/aVf4eePPitpK/8I1PbabJ4cutOhj1HxBDcae95JqcCWyvcRhZPljWIfZwsTeY4b5Rg/wDBNP8Abq8RftGXvivw/wDFrxFaX00LaRc6LO82kB7j+1rSa6e1gGlTTRSGBY8Kjst0Fz50anGXCSbsZzi0tz9OtN+GXw901/EUkGj2u3xddC81iJ41kS7mFtFabplbKuTBBGnzD7qhegAFOb4J/BmbQI/C0ng/RDpkVwLpbQ6fbGFJ9uzzlj8vaJNgC7wN23jOK9LjcPllOQeeMYz3wR/iecjNSYFbqhFnPztGH/YmjC0udPFnbi3vC5uIfLXy5vMG1y6Yw5deGJByODWRdfDv4fXuraZ4g1DQNNmvtHQR6fcPawtLaIo2hYJCpaIAcAIQMcV2W1fSlp+wiN1ZHLXXg3wXe2jWF3o1jNbvbPZtE9vGyNbOQXhKlcGNiASmNp7isSP4V/CpNZ/4SVfDGkDUTALb7V9hg8/7OsYiEPmbN3liMBAudu0BcY4r0PAowPSj2ERKbOP1PwF4A1rXdP8AFGraHp93qekgCyu5rWJ57YKcqIZWUvGAScbSMVJeeA/AureKIPG+paJp9xrVqhjh1CW2ie6iRgVKpMVMigqSCA2CCR3rrMClwB0p+xQe0Z88+Kv2VfgH4tttL0u68L6ZaWWm6pFqrWttZWsdvdzxRSwoLmPyisqqszEBgcHHtXqEnw4+HMuiN4am8P6a2nNBBatatZwGAwW2WgiMflhCkRY+WuMIScAZrtv/ANVJgUvYor20tjgbb4XfC2z1W+16x8M6VFfamGW8uI7G3WW4DusjCZwgaQF0VjuJyyg9QK09T8DeCNd8UWfjbWdFsbrWtOXbaX81tE91AvzcRTFTIg+duFYfePqa6vao7Uo46VUaSWqJdRvQTB3Fj35pw/w/nSUo/wAP506mxB+JXhz/AJWXb7/s2aH/ANTGSv3yT7tfgb4c/wCVl2+/7Nmh/wDUxkr98k+7XgYv+Kz7vLf4CFPUV8ufED4t+E/gS/xD+Lvjkzf2VoGl2F3OttGZZ5AomCxwxj78sjEJGg5ZiAOtfUZ6ivjn4tfBHT/2gtd1/wCHeuatqGk6cZtDvbptMme2uJktGmmSETRsrxgyqjllOfkx3rE7To/GH7W/wS8Ia54d8K3muwNq/igWk1lYK6/aGtbwsq3BX5hsXY7HH90+hzd+GH7VHwX+L1pruseCdct7vS9C1m30Nr5JB9nmvbuK3lijickb9zXUUYx/HlegNfLtp/wTjs9N03S/Bml+OtR/4RjTkslbT7i3gup5W02GW1sy19J/pGY7Z4oySx3mPe3Mj509Z/ZB8beGv2bfiP8ADqw8Qy+LvE3jUQ/Zb6aG3082k9vZ2un2UsfkEKhtPs0c6yAeZ5ikjJwCAfVsP7S3wIufFEvhC38XaY2o29o19JbLOpdbVJBE0vpsEny7s9xxyDXUWnxg+GF94zg+Gthr1pJr1xFcTRWKyBp2jtHEU7beTiKQhHPZvevizUv+Cf1jqFhP4dsvGF1a6IbErZ2aWVszW+rfYksl1I3DEySfIpkNsx8tndmIzzXtfwF/Zif4N67ceMNe8RzeJtavoLuO6u57aG2803d7JfMVjiIVAHkKhem0Y6AUAdLP+1z+zbbaHdeKJPG2l/2fZ6oujTz+eNqX5/5dwcEM/fjIxk5wKJf2uf2arbx6fhVP430lPEYvY9M+wG4Hnfa5WKpEF7uSMYycHAOM18xT/wDBP7XJfAmneBofiJcg6NEml6bcDTLMtBoiWVxp5sHX/lqTBcyD7Q/7zdg+telf8MQeDPs0dvaatcRGGHxBBDIEjMgXX9VsdVY+YcsWhewRFJOWBLH5gKAPS/C/7YX7MnjXxQ/gnwv440m71WJ7pHt0uV3hrIM1x3wREEYtg4wrYJCtizpX7Wv7NmtroDab430ub/hJ5Gg0vbcIftMiNsZV7blYhCDgbiF5JFeFal/wT7+Hmr+Hm8NXuq3P2eaN4ZGiiiid0kstVsWG9QGU7NVlYEdGQHqxNZHw3/4J76T4G0hbfVvFt3rF/JNaXE17JaQQyTSWep2mpKzKgwGf7GkLMPm2cg5AoA9Z1f8Abo/Zw0z4R2vx1i8SW8/hS411vD76kCRDFdrO9uwbIBKiSMjIGcEcZzXoup/tQfs/aLeappWq+MtLt59G0xdZvle4VWt9OdEdbpy3AjKyI248YYdua5LTP2Zba08MWHhTVNcmvLXSfF8/iqzLQRxmJJbua9Wz+XG5I3nZRI3zkYJOa+VtD/4Jc+D9H1bUJrrxbfX+nahpkdn9intoHWO6S0tbFrpHIyN8FttaL7p3GgD798KfG74T+OvF978PvCPiGz1DWrC2ivLmzgl3TRW84BSUr1AYMMemRXqcUquCwzzjr9B/n618L+EP2Lj4A+PXiH47eEvGN1bS65PNPHZTWlvPHa/bry0u9SWGR/mxdraCM/8APPcWX5gK+l/B3hL4iaJeJL4p8UtrkKwhGjezgtizhVG8vFyDuDNjp82O1AHq4IPSlqKPGSR3wf8AI7VLQAUUUUAFFFFABRRRQAUUUUAFFFFABRRRQAUUUUAVrz/jzl/3G/lXj/7N3/JvHgL/ALFzSv8A0kir2C8/485f9xv5V4/+zd/ybx4C/wCxc0r/ANJIqAP/1v6JdL/5WE/Fo6H/AIUfpmD6f8T245/p+NfrNrXgPwP4i1e117xJomn39/ZjbBc3FtFLNCN27bHI6lkG75sKRzzX5MaX/wArCfi7/shumf8Ap+uK/ZTjJ9yc17ODScFE+PzaVqzOTtvAvgTT9SvdZ0/RbGC71KRZbueO3iWS4kRg6vK4Xc7KwDAsSQQD1FQt4A8ASapY642hae19piCKzuWtojLbINxCwvt3Rr8zcKQOT612O1fSjavpXV7GJ5XtGclf+BvBOqeIY/FeqaLYXOrRIIkvZbaJ7hYwSdglKlwuSTtBxkmtFfD3hqOe3uUsLcS2YRIHEKboliDCJUOMqEDuFAxtDHHU1ubV64o2r6UexiCqM47U/h/8Pdd0YeHta0LT72wSd7pba4tIZIRPI7SPKI2UqJGd2ZmA3FmJJyTVjVPBPg7X7C70rX9Isb60vXWWeC4topEmkRVRXdWUhmVVUAkZAAA6CupwtGBQqMVsNVGc3N4N8F3Np/Z9zpNi8AeKfynt4inmwKqRSYK43oqKqN1UKACABTNA8E+DPClzeXnhTR7HS5r5gbmSztooGmxkjzTGql8FiRuz1Pqa6ij3p+zQ3WkzmdA8E+DfCcdxB4R0mx0uO7k8ydLK3jtxLIeC0gjVdzHOMnJ5rCHwn+FC+Hv+ERXwtpH9lGX7QbP7Bb/ZzLtC+Z5WzZv2gDdjOMDPFehnkYNB560vZIXtGY40PQostHZW4ZpUuDiJB+9iRY0k4H30RVVW6hVABwBWbp3g3wfo9rNY6Xo9jaw3IdZkht4kWQSu0jhwqgNudmZs9WJJySa6navpRhaFRiL2jOR8R+BPAfjFbZfF+h6fqosiTbi9tYrjyi3DGPzFbZkDnHWtptJ0VkKfYoMGb7TgRJ/r/wDnr0/1n+11961MLRtX0qnSQ1UZx+r+A/AWvtbvr+haffPaz/a4muLWKQx3B6zIWU7ZDgZcfN70R/Dz4fnVL3WhoOnfbdSQw3dx9khMs8bclJX27nU45DEg12G1fSlqHRQvaM5ufwb4RvfEUPjG70qym1iJCkd89vGblFIKlVmK7wCCQQD04rP0j4b/AA78OPG3h/w/plg0UvnI1vaQxFZNpTeCiDDbWZdw5wSM4NdpjHSj3pxopO6E5tikk8Ekn3pKKK0SJCiiimAUUUUAFFFFABRRRQAUUUUAFKP8P50lA6/59RUzV0B+Jfhz/lZdvv8As2aH/wBTGSv3yT7tfgX4d/5WXb//ALNlh/8AUxkr99E+7Xz+J1qNn3mW/wACIp6ivK/DCqfin4nyM/6Npv8AKevVD1FeWeF/+Sp+J/8Ar203/wBBnrE7D1Mqp6io5ELDgA/X8qlooAjRAg2YGB0qTAoooAQqp6j3owKWigBNq+ntQVU8EUtFACYB60EA9aWigBpRCckDNLgUtFABRRRQAUUUUAFFFFABRRRQAUUUUAFFFFABRRRQAUUUUAVrz/jzl/3G/lXj/wCzd/ybx4C/7FzSv/SSKvYLz/jzl/3G/lXj/wCzd/ybx4C/7FzSv/SSKgD/1/6I9LOf+DhPxf7fA3TD/wCV64r9kwfmP51/Pd/wUQ+Ng/4Jsf8ABVLwZ/wUV+L+k39x8GfGvgF/h/4j1mwtZrsaJqNvqLajZ3NykKswimR2iGQRuz6V3cf/AAcn/wDBGYrvPxfj5/6ht+OBx3gr1MHWilZnyua4Wc6nNFH7sUV+Ff8AxEn/APBGb/or0f8A4Lr7/wCMUf8AESf/AMEZv+ivR/8Aguvv/jFd3t4nlrBVex+6lFfhX/xEn/8ABGb/AKK9H/4Lr7/4xR/xEn/8EZv+ivR/+C6+/wDjFHt4j+o1ex+6lFfhX/xEn/8ABGb/AKK9H/4Lr7/4xR/xEn/8EZv+ivR/+C6+/wDjFHt4h9Rq9j91KK/Cv/iJP/4Izf8ARXo//Bdff/GKP+Ik/wD4Izf9Fej/APBdff8Axij28Q+o1ex+6lFfhX/xEn/8EZv+ivR/+C6+/wDjFH/ESf8A8EZv+ivR/wDguvv/AIxR7eIfUavY/dSivwr/AOIk/wD4Izf9Fej/APBdff8Axij/AIiT/wDgjN/0V6P/AMF19/8AGKPbxB4Gr2P3Uor8K/8AiJP/AOCM3/RXo/8AwXX3/wAYo/4iT/8AgjN/0V6P/wAF19/8Yo9vESwVXsfupRX4V/8AESf/AMEZv+ivR/8Aguvv/jFH/ESf/wAEZv8Aor0f/guvv/jFHt4j+o1ex+6lFfhX/wARJ/8AwRm/6K9H/wCC6+/+MUf8RJ//AARm/wCivR/+C6+/+MUe3iH1Gr2P3Uor8K/+Ik//AIIzf9Fej/8ABdff/GKP+Ik//gjN/wBFej/8F19/8Yo9vEPqNXsfupRX4V/8RJ//AARm/wCivR/+C6+/+MUf8RJ//BGb/or0f/guvv8A4xR7eIfUavY/dSivwr/4iT/+CM3/AEV6P/wXX3/xij/iJP8A+CM3/RXo/wDwXX3/AMYo9vEPqNXsfupRX4V/8RJ//BGb/or0f/guvv8A4xR/xEn/APBGb/or0f8A4Lr7/wCMUe3iH1Gr2P3Uor8K/wDiJP8A+CM3/RXo/wDwXX3/AMYo/wCIk/8A4Izf9Fej/wDBdff/ABij28Q+o1ex+6lFfhX/AMRJ/wDwRm/6K9H/AOC6+/8AjFH/ABEn/wDBGb/or0f/AILr7/4xR7eIfUavY/dSm/xr9a/C3/iJP/4Izf8ARXo//Bdff/GKZJ/wcnf8EatheP4vxDaCcnTr7IODjAMHzem3vng8VMsRFIawFW+x0Xh//lZZvj/1bNB/6mElfvknSv5uf+CX/j66/wCCiP8AwUu+K3/BVPwDpWoab8KbHwZYfDDwTfajbzWr65FHqD6rf30UU6rIIY59qKSBncUIDI4H9IcPK5zn+vvXiVpXldH2WBi40lFkp6ivLPC//JU/E/8A17ab/wCgz16fIcY/z+teS+FL60k+L/ivT45VM8VppbvHkFlV/tIUkDoDtbHrisjqPX6KaSB1OKTcOxz/AJ/CgB9FM3H/AD/+ujcf8/8A66AH0Uzcf8//AK6Nx/z/AProAfRTNx/z/wDro3H/AD/+ugB9FM3H/P8A+ujcf8//AK6AH0Uzcf8AP/66Nx/z/wDroAfRTNx/z/8Aro3H/P8A+ugB9FM3H/P/AOujcO5x/n8aAH0Uzcv97/P5Ubl/vf5/KgB9FM3L/e/z+VG5f73+fyoAfRTNy/3v8/lRuX+9/n8qAH0Uzcv97/P5Ubl/vf5/KgB9FM3L/e/z+VG5f73+fyoAfRTNy/3v8/lRuX+9/n8qAIbz/jzl/wBxv5V4/wDs3f8AJvHgL/sXNK/9JIq9U1e9trHTJ7q5kVIo42Z3Y4CqByScY/CvLv2c4J7X4AeBrW5RopIvD2mI8bjDoy2sYKt7joeOoNAH/9D+9vXfDmheJdOk0nxHZ29/aTACSC5iSWNwDkblcEHB9RXjA/Zf/ZrlkY/8IB4e4wP+Qbbfp+7r6Cf7tUYfvt+FT1A8P/4Zb/Zr/wChA8O/+C22/wDiKev7LX7NZ/5kDw7/AOC22/8AjZr3WpI+9UB4R/wyx+zX/wBCB4d/8Ftr/wDG6P8Ahlj9mv8A6EDw7/4LbX/43XvdFA7ngn/DLH7Nf/QgeHf/AAW2v/xuj/hlj9mv/oQPDv8A4LbX/wCN173RQFzwT/hlj9mv/oQPDv8A4LbX/wCN0f8ADLH7Nf8A0IHh3/wW2v8A8br3uigLngn/AAyx+zX/ANCB4d/8Ftr/APG6P+GWP2a/+hA8O/8Agttf/jde90UBc8Cb9lr9msf8yB4d/wDBbbf/ABsUz/hlv9mv/on/AId/8Ftt/wDEV75J2qOgvoeFL+y1+zWf+ZA8O/8Agttv/jZp3/DLH7Nf/QgeHf8AwW2v/wAbr3ePvUlBmeCf8Msfs1/9CB4d/wDBba//ABuj/hlj9mv/AKEDw7/4LbX/AON173RQO54J/wAMsfs1/wDQgeHf/Bba/wDxuj/hlj9mv/oQPDv/AILbX/43XvdFAXPBP+GWP2a/+hA8O/8Agttf/jdMf9ln9msf8yB4d/8ABbbf/G69+qOTtQVF6ngqfss/s1n/AJkDw7/4Lbb/AON0/wD4ZY/Zr/6EDw7/AOC21/8Ajde7x96koCT1PBP+GWP2a/8AoQPDv/gttf8A43R/wyx+zX/0IHh3/wAFtr/8br3uigm54J/wyx+zX/0IHh3/AMFtr/8AG6P+GWP2a/8AoQPDv/gttf8A43XvdFAXPBP+GWP2a/8AoQPDv/gttf8A43R/wyx+zX/0IHh3/wAFtr/8br3uigLngn/DLH7Nf/QgeHf/AAW2v/xuj/hlj9mv/oQPDv8A4LbX/wCN173RQFzwF/2Wf2ax/wAyB4d/8Ftt/wDG6hP7MH7N0MsbJ4B8PA7h0022x+I8vmvoCTtVOb/WRf74pPYvoQ6JpGl6Fp0elaJbRWdpCMRwQIscaDJOFVQAB9BWqAB0qOL7oqWhbGZDMcLx1/8ArivEfiL+zj8EfjFrMXiD4j+HbbU721TyEmfej7AcgFo2UsBngNnHOMZNe2z/AHf8+opIOsn++f5CmB8sH9iD9lROvgy0/wC/k/8A8dpP+GI/2VP+hMtP+/k//wAcr6sk7VHQB8r/APDEf7Kn/QmWn/fyf/45R/wxH+yp/wBCZaf9/J//AI5X1RRQB8r/APDEf7Kn/QmWn/fyf/45R/wxH+yp/wBCZaf9/J//AI5X1RRQB8r/APDEf7Kn/QmWn/fyf/45R/wxH+yp/wBCZaf9/J//AI5X1RRQB8r/APDEf7Kn/QmWn/fyf/45R/wxH+yp/wBCZaf9/J//AI5X1RRQB8r/APDEf7Kn/QmWn/fyf/45R/wxH+yp/wBCZaf9/J//AI5X1RRQB8r/APDEf7Kn/QmWn/fyf/45R/wxH+yp/wBCZaf9/J//AI5X1RRQB8r/APDEf7Kn/QmWn/fyf/45R/wxH+yp/wBCZaf9/J//AI5X1RRQB8r/APDEf7Kn/QmWn/fyf/45R/wxH+yp/wBCZaf9/J//AI5X1RRQB8r/APDEf7Kn/QmWn/fyf/45R/wxH+yp/wBCZaf9/J//AI5X1RRQB8r/APDEf7Kn/QmWn/fyf/45R/wxH+yp/wBCZaf9/J//AI5X1RRQB8r/APDEf7Kn/QmWn/fyf/45R/wxH+yp/wBCZaf9/J//AI5X1RRQB8r/APDEf7Kn/QmWn/fyf/45R/wxH+yp/wBCZaf9/J//AI5X1RRQB8r/APDEf7Kn/QmWn/fyf/45R/wxH+yp/wBCZaf9/J//AI5X1RRQB8qD9i79liyvLe5g8GWfmK4KkvOQPqDIQR7EYr6rt4Vt1EKYCKAFAGAAOg61Suv9dB/vitMffP0FAH//2Q==;imageBorder=default;" vertex="1" parent="1">
          <mxGeometry x="349" y="673" width="542" height="277" as="geometry" />
        </mxCell>
      </root>
    </mxGraphModel>
  </diagram>
</mxfile>
